<?xml version="1.0" standalone="no"?>
<!DOCTYPE svg PUBLIC "-//W3C//DTD SVG 1.1//EN" "http://www.w3.org/Graphics/SVG/1.1/DTD/svg11.dtd" >
<svg>
<metadata>
Created by FontForge 20090914 at Sun Mar 20 20:54:15 2022
 By www-data
Galiver Sans &#194;&#169; 2016 Josen Fonts. All Rights Reserved.
</metadata>
<defs>
<font id="GaliverSans" horiz-adv-x="800" >
  <font-face 
    font-family="Galiver Sans"
    font-weight="400"
    font-stretch="normal"
    units-per-em="1300"
    panose-1="2 11 6 4 0 0 0 8 9 3"
    ascent="1040"
    descent="-260"
    x-height="700"
    cap-height="1000"
    bbox="-1099.46 -400.001 2300 1485"
    underline-thickness="150"
    underline-position="-141"
    unicode-range="U+001D-U+FB17"
  />
<missing-glyph 
d="M700 -100h-700v1200h700v-1200zM50 1000v-300h149v150h299v-146l-224 -453h150l224 446v303h-598zM274 0h150v150h-150v-150z" />
    <glyph glyph-name="fi" unicode="fi" horiz-adv-x="700" 
d="M200 550v-550h-150v550h-50v150h50v300h300v-150h-150v-150h150v-150h-150zM600 700v-700h-150v700h150zM600 1000v-150h-150v150h150z" />
    <glyph glyph-name="fl" unicode="fl" horiz-adv-x="700" 
d="M200 550v-550h-150v550h-50v150h50v300h300v-150h-150v-150h150v-150h-150zM600 0h-150v1000h150v-1000z" />
    <glyph glyph-name="uniFB00" unicode="ff" horiz-adv-x="1150" 
d="M250 400v-400h-150v400h-100v150h100v450h450v-350h-150v200h-150v-300h200v-150h-200zM750 400v-400h-150v400h-100v150h100v450h450v-350h-150v200h-150v-300h200v-150h-200z" />
    <glyph glyph-name="uniFB03" unicode="ffi" horiz-adv-x="1300" 
d="M250 400v-400h-150v400h-100v150h100v450h450v-350h-150v200h-150v-300h200v-150h-200zM800 550v-550h-150v550h-50v150h50v300h300v-150h-150v-150h150v-150h-150zM1200 700v-700h-150v700h150zM1200 1000v-150h-150v150h150z" />
    <glyph glyph-name="uniFB04" unicode="ffl" horiz-adv-x="1300" 
d="M250 400v-400h-150v400h-100v150h100v450h450v-350h-150v200h-150v-300h200v-150h-200zM800 550v-550h-150v550h-50v150h50v300h300v-150h-150v-150h150v-150h-150zM1200 0h-150v1000h150v-1000z" />
    <glyph glyph-name="uniFB06" unicode="st" horiz-adv-x="1050" 
d="M800 550v-550h-150v550h-100v150h100v300h150v-300h175v-150h-175zM550 150v-150h-550v150h353l-353 400v150h450v-150h-242z" />
    <glyph glyph-name="uniFB13" unicode="&#x574;&#x576;" horiz-adv-x="1500" 
d="M650 850v-850h-600c-14 -0 -25.833 4.83301 -35.5 14.5s-14.5 21.5 -14.5 35.5v650h150v-550h350v850h400v-850h350v550h150v-700h-600c-14 -0 -25.833 4.83301 -35.5 14.5s-14.5 21.5 -14.5 35.5v800h-100z" />
    <glyph glyph-name="uniFB14" unicode="&#x574;&#x565;" horiz-adv-x="1450" 
d="M750 850h-100v-850h-600c-14 -0 -25.833 4.83301 -35.5 14.5s-14.5 21.5 -14.5 35.5v650h150v-550h350v850h400v-300h450v-150h-450v-400h300v250h150v-400h-150v100l-100 -100h-350v850z" />
    <glyph glyph-name="uniFB15" unicode="&#x574;&#x56b;" horiz-adv-x="1500" 
d="M750 850h-100v-850h-600c-14 -0 -25.833 4.83301 -35.5 14.5s-14.5 21.5 -14.5 35.5v650h150v-550h350v850h400v-300h500v-700h-150v550h-350v-850h-150v1150z" />
    <glyph glyph-name="uniFB16" unicode="&#x57e;&#x576;" horiz-adv-x="1500" 
d="M650 850v-1000h150v-150h-300v300h-450c-14 -0 -25.833 4.83301 -35.5 14.5s-14.5 21.5 -14.5 35.5v650h150v-550h350v850h400v-850h350v550h150v-700h-600c-14 -0 -25.833 4.83301 -35.5 14.5s-14.5 21.5 -14.5 35.5v800h-100z" />
    <glyph glyph-name="uniFB17" unicode="&#x574;&#x56d;" horiz-adv-x="1850" 
d="M750 850h-100v-850h-600c-14 -0 -25.833 4.83301 -35.5 14.5s-14.5 21.5 -14.5 35.5v650h150v-550h350v850h400v-300h425v-550h275v550h150v-700h-525c-13.333 0 -25 5 -35 15s-15 21.667 -15 35v500h-275v-850h-150v1150z" />
    <glyph glyph-name=".notdef" 
d="M700 -100h-700v1200h700v-1200zM50 1000v-300h149v150h299v-146l-224 -453h150l224 446v303h-598zM274 0h150v150h-150v-150z" />
    <glyph glyph-name=".null" horiz-adv-x="0" 
 />
    <glyph glyph-name=".null" horiz-adv-x="0" 
 />
    <glyph glyph-name="space" unicode=" " horiz-adv-x="500" 
 />
    <glyph glyph-name="space" unicode="&#xa0;" horiz-adv-x="500" 
 />
    <glyph glyph-name="exclam" unicode="!" horiz-adv-x="250" 
d="M0 0v150h150v-150h-150zM150 800l-25 -550h-100l-25 550v200h150v-200z" />
    <glyph glyph-name="quotedbl" unicode="&#x22;" horiz-adv-x="600" 
d="M150 600h-150v400h150v-400zM500 600h-150v400h150v-400z" />
    <glyph glyph-name="numbersign" unicode="#" horiz-adv-x="1100" 
d="M205 350l90 300h-150l45 150h150l60 200h150l-60 -200h200l60 200h150l-60 -200h149l-44 -150h-150l-90 -300h150l-45 -150h-150l-60 -200h-150l60 200h-200l-60 -200h-150l60 200h-150l45 150h150zM445 650l-90 -300h200l90 300h-200z" />
    <glyph glyph-name="dollar" unicode="$" 
d="M0 1000v-575h550v-275h-550v-150h275v-200h150v200h275v575h-550v275h550v150h-275v100h-150v-100h-275z" />
    <glyph glyph-name="percent" unicode="%" horiz-adv-x="1100" 
d="M0 0l800 1000h200l-800 -1000h-200zM0 1000h400v-400h-400v400zM100 900v-200h200v200h-200zM600 400h400v-400h-400v400zM700 300v-200h200v200h-200z" />
    <glyph glyph-name="ampersand" unicode="&#x26;" horiz-adv-x="1008" 
d="M300 650l150 150v50h-300v-50zM450 0h-450v350l200 200l-200 200v250h600v-250l-200 -200l200 -200l150 150h200l-250 -250l250 -250h-200l-150 150zM400 150l100 100l-200 200l-150 -150v-150h250z" />
    <glyph glyph-name="quotesingle" unicode="'" horiz-adv-x="250" 
d="M150 600h-150v400h150v-400z" />
    <glyph glyph-name="parenleft" unicode="(" horiz-adv-x="500" 
d="M0 350l250 650h150l-250 -650l250 -650h-150z" />
    <glyph glyph-name="parenright" unicode=")" horiz-adv-x="500" 
d="M400 350l-250 -650h-150l250 650l-250 650h150z" />
    <glyph glyph-name="asterisk" unicode="*" horiz-adv-x="600" 
d="M0 899v100h100l100 -100v100h100v-100l100 100h100v-100l-100 -100h100v-100h-100l100 -100v-100h-100l-100 100v-100h-100v100l-100 -100h-100v100l100 100h-100v100h100z" />
    <glyph glyph-name="plus" unicode="+" horiz-adv-x="900" 
d="M325 425h-325v150h325v324h150v-324h325v-150h-325v-325h-150v325z" />
    <glyph glyph-name="comma" unicode="," horiz-adv-x="250" 
d="M100 0h-100v150h150v-350h-50v200z" />
    <glyph glyph-name="hyphen" unicode="-" horiz-adv-x="500" 
d="M400 424h-400v150h400v-150z" />
    <glyph glyph-name="hyphen" unicode="&#xad;" horiz-adv-x="500" 
d="M400 424h-400v150h400v-150z" />
    <glyph glyph-name="period" unicode="." horiz-adv-x="250" 
d="M150 0h-150v150h150v-150z" />
    <glyph glyph-name="slash" unicode="/" horiz-adv-x="641" 
d="M150 -300h-150l450 1300h150z" />
    <glyph glyph-name="zero" unicode="0" horiz-adv-x="701" 
d="M0 1000h600v-1000h-600v1000zM150 850v-700h300v700h-300z" />
    <glyph glyph-name="one" unicode="1" horiz-adv-x="500" 
d="M375 0h-150v850h-200v150h350v-1000z" />
    <glyph glyph-name="two" unicode="2" horiz-adv-x="701" 
d="M0 1000h600v-300l-410 -550h410v-150h-600v150l449 591v109h-299v-150h-150v300z" />
    <glyph glyph-name="three" unicode="3" horiz-adv-x="699" 
d="M350 575v275h-350v150h500v-425h100v-575h-600v150h450v275h-450v150h350z" />
    <glyph glyph-name="four" unicode="4" 
d="M450 1000h150v-600h100v-150h-100v-250h-150v250h-450v150zM175 400h275v360z" />
    <glyph glyph-name="five" unicode="5" horiz-adv-x="699" 
d="M518 575c22.667 0 42 -8.16797 58 -24.501s24 -36.166 24 -59.499v-408c0 -23.333 -8 -43 -24 -59s-35.333 -24 -58 -24h-436c-22.667 0 -42 8 -58 24s-24 35.667 -24 59v217h150v-150h300v275h-450v575h600v-300h-150v150h-300v-275h368z" />
    <glyph glyph-name="six" unicode="6" horiz-adv-x="700" 
d="M150 425v-275h300v275h-300zM600 575v-575h-600v1000h600v-300h-150v150h-300v-275h450z" />
    <glyph glyph-name="seven" unicode="7" horiz-adv-x="850" 
d="M575 850h-425v-151h-150v301h750v-150l-475 -848h-175z" />
    <glyph glyph-name="eight" unicode="8" horiz-adv-x="700" 
d="M450 575v275h-300v-275h300zM0 0v425l75 75l-75 75v425h600v-425l-75 -75l75 -75v-425h-600zM150 425v-275h300v275h-300z" />
    <glyph glyph-name="nine" unicode="9" horiz-adv-x="700" 
d="M450 575v275h-300v-275h300zM0 425v575h600v-1000h-150v425h-450z" />
    <glyph glyph-name="colon" unicode=":" horiz-adv-x="250" 
d="M150 0h-150v150h150v-150zM150 550h-150v150h150v-150z" />
    <glyph glyph-name="semicolon" unicode=";" horiz-adv-x="250" 
d="M100 0h-100v150h150v-350h-50v200zM150 550h-150v150h150v-150z" />
    <glyph glyph-name="semicolon" unicode="&#x37e;" horiz-adv-x="250" 
d="M100 0h-100v150h150v-350h-50v200zM150 550h-150v150h150v-150z" />
    <glyph glyph-name="less" unicode="&#x3c;" horiz-adv-x="700" 
d="M0 575l600 225v-150l-400 -150l400 -150v-150l-600 225v150z" />
    <glyph glyph-name="equal" unicode="=" 
d="M0 600v150h700v-150h-700zM0 250v150h700v-150h-700z" />
    <glyph glyph-name="greater" unicode="&#x3e;" horiz-adv-x="700" 
d="M600 575v-150l-600 -225v150l400 150l-400 150v150z" />
    <glyph glyph-name="question" unicode="?" horiz-adv-x="698" 
d="M2 1000h598v-303l-224 -446h-150l224 453v146h-299v-150h-149v300zM226 0v150h150v-150h-150z" />
    <glyph glyph-name="at" unicode="@" horiz-adv-x="1300" 
d="M800 700h-400v-400h400v400zM350 150c-27.333 0 -50.833 9.83301 -70.5 29.5s-29.5 43.167 -29.5 70.5v500c0 27.333 9.83301 50.833 29.5 70.5s43.167 29.5 70.5 29.5h600v-550h100v650h-900v-900h1050v-150h-1200v1200h1200v-950h-850z" />
    <glyph glyph-name="A" unicode="A" horiz-adv-x="850" 
d="M600 850h-450v-275h450v275zM600 425h-450v-425h-150v1000h750v-1000h-150v425z" />
    <glyph glyph-name="B" unicode="B" horiz-adv-x="850" 
d="M600 150v275h-450v-275h450zM600 850h-450v-275h450v275zM750 1000v-1000h-750v1000h750z" />
    <glyph glyph-name="C" unicode="C" horiz-adv-x="850" 
d="M750 150v-150h-750v1000h750v-150h-600v-700h600z" />
    <glyph glyph-name="D" unicode="D" horiz-adv-x="900" 
d="M718 1000c22.667 0 42 -8.00098 58 -24.001s24 -35.667 24 -59v-833c0 -23.333 -8 -43.166 -24 -59.499s-35.333 -24.5 -58 -24.5h-618v850h-100v150h718zM250 849.999v-700h400v700h-400z" />
    <glyph glyph-name="E" unicode="E" horiz-adv-x="700" 
d="M600 1000v-150h-450v-200h450v-150h-450v-350h450v-150h-600v1000h600z" />
    <glyph glyph-name="F" unicode="F" horiz-adv-x="750" 
d="M650 1000v-150h-400v-200h400v-151h-400v-499h-150v499h-100v151h100v200h-100v150h650z" />
    <glyph glyph-name="G" unicode="G" horiz-adv-x="850" 
d="M0 0v1000h750v-150h-600v-700h450v275h-250v150h400v-575h-750z" />
    <glyph glyph-name="H" unicode="H" horiz-adv-x="850" 
d="M600 1000h150v-1000h-150v425h-450v-425h-150v1000h150v-425h450v425z" />
    <glyph glyph-name="I" unicode="I" horiz-adv-x="699" 
d="M600 1000v-150h-225v-700h225v-150h-600v150h225v700h-225v150h600z" />
    <glyph glyph-name="J" unicode="J" horiz-adv-x="850" 
d="M150 150h250v700h-400v150h750v-150h-200v-850h-550v350h150v-200z" />
    <glyph glyph-name="K" unicode="K" 
d="M150 436v-436h-150v1000h150v-429l432 429h217l-499 -500l499 -500h-217z" />
    <glyph glyph-name="L" unicode="L" horiz-adv-x="600" 
d="M150 1000v-850h350v-150h-500v1000h150z" />
    <glyph glyph-name="M" unicode="M" horiz-adv-x="1100" 
d="M150 701v-701h-150v1000h200l300 -794l300 794h200v-1000h-150v701l-275 -701h-150z" />
    <glyph glyph-name="N" unicode="N" horiz-adv-x="900" 
d="M150 723v-723h-150v1000h150l500 -723v723h150v-1000h-150z" />
    <glyph glyph-name="O" unicode="O" horiz-adv-x="900" 
d="M0 1000h800v-1000h-800v1000zM150 850v-700h500v700h-500z" />
    <glyph glyph-name="P" unicode="P" horiz-adv-x="900" 
d="M250 425v-425h-150v850h-100v150h800v-575h-550zM250 850v-275h400v275h-400z" />
    <glyph glyph-name="Q" unicode="Q" horiz-adv-x="900" 
d="M475 150h174v700h-499v-700h175v150h150v-150zM325 0h-325v1000h800v-1000h-325v-150h-150v150z" />
    <glyph glyph-name="R" unicode="R" horiz-adv-x="900" 
d="M250 850v-275h400v275h-400zM347 425h-97v-425h-150v850h-100v150h800v-575h-257l304 -425h-196z" />
    <glyph glyph-name="S" unicode="S" horiz-adv-x="850" 
d="M750 150v-150h-750v150h552l-552 700v150h750v-150h-553z" />
    <glyph glyph-name="T" unicode="T" horiz-adv-x="900" 
d="M475 850v-850h-150v850h-375v150h900v-150h-375z" />
    <glyph glyph-name="U" unicode="U" horiz-adv-x="851" 
d="M150 150h450v850h150v-1000h-750v1000h150v-850z" />
    <glyph glyph-name="V" unicode="V" horiz-adv-x="900" 
d="M325 0l-375 1000h170l290 -772l290 772h170l-374 -1000h-171z" />
    <glyph glyph-name="W" unicode="W" horiz-adv-x="1350" 
d="M248 0l-298 1000h160l218 -731l217 731h160l217 -731l218 731h160l-298 -1000h-160l-217 731l-217 -731h-160z" />
    <glyph glyph-name="X" unicode="X" horiz-adv-x="900" 
d="M500 500l350 -500h-200l-250 357l-250 -357h-200l350 500l-350 500h200l250 -357l250 357h200z" />
    <glyph glyph-name="Y" unicode="Y" horiz-adv-x="899" 
d="M325 325l-375 675h175l275 -493l275 493h175l-375 -675v-325h-150v325z" />
    <glyph glyph-name="Z" unicode="Z" horiz-adv-x="851" 
d="M150 850v-150h-150v300h750l-517 -850h367v150h150v-300h-786l518 850h-332z" />
    <glyph glyph-name="bracketleft" unicode="[" horiz-adv-x="500" 
d="M0 1000v-1300h400v150h-250v1000h250v150h-400z" />
    <glyph glyph-name="backslash" unicode="\" horiz-adv-x="641" 
d="M450 -300h150l-450 1300h-150z" />
    <glyph glyph-name="bracketright" unicode="]" horiz-adv-x="500" 
d="M400 1000h-400v-150h250v-1000h-250v-150h400v1300z" />
    <glyph glyph-name="asciicircum" unicode="^" horiz-adv-x="650" 
d="M183 1000h201l182 -500h-200l-82 245l-84 -245h-200z" />
    <glyph glyph-name="underscore" unicode="_" horiz-adv-x="699" 
d="M600 -201h-600v100h600v-100z" />
    <glyph glyph-name="grave" unicode="`" horiz-adv-x="500" 
d="M200 1050l200 -250h-200l-200 200z" />
    <glyph glyph-name="a" unicode="a" horiz-adv-x="799" 
d="M350 150c55.333 0 102.5 19.5 141.5 58.5s58.5 86.167 58.5 141.5s-19.5 102.5 -58.5 141.5s-86.167 58.5 -141.5 58.5s-102.5 -19.5 -141.5 -58.5s-58.5 -86.167 -58.5 -141.5s19.5 -102.5 58.5 -141.5s86.167 -58.5 141.5 -58.5zM550 603v97h150v-700h-150v97
c-62.667 -64.667 -137.667 -97 -225 -97c-90 0 -166.667 34.167 -230 102.5s-95 150.833 -95 247.5s31.667 179.167 95 247.5s140 102.5 230 102.5c87.333 0 162.333 -32.333 225 -97z" />
    <glyph glyph-name="b" unicode="b" 
d="M0 350l-0.000976562 650.001h150v-650c0 -55.333 19.5 -102.5 58.5 -141.5s86.167 -58.5 141.5 -58.5s102.5 19.5 141.5 58.5s58.5 86.167 58.5 141.5c0 56 -19.5 103.333 -58.5 142s-86.167 58 -141.5 58l1 150c96.667 0 179 -34 247 -102s102 -150.333 102 -247
s-34 -179.334 -102 -248.001s-150.333 -103 -247 -103c-97.333 -0 -180.166 34.333 -248.499 103s-102.5 151 -102.5 247z" />
    <glyph glyph-name="c" unicode="c" horiz-adv-x="750" 
d="M523 249h163c-16 -54 -45.333 -102.667 -88 -146c-68 -68.667 -150.333 -103 -247 -103c-97.333 -0 -180.166 34.333 -248.499 103s-102.5 151.334 -102.5 248.001s34.167 179 102.5 247s151.166 102 248.499 102c96.667 0 179 -34 247 -102
c44 -44 73.667 -93.667 89 -149h-162c-8.66699 15.333 -19.667 29.666 -33 42.999c-39.333 38.667 -86.666 58 -141.999 58s-102.5 -19.333 -141.5 -58s-58.5 -86 -58.5 -142c0 -55.333 19.5 -102.5 58.5 -141.5s86.167 -58.5 141.5 -58.5s102.666 19.667 141.999 59
c12 12 22.333 25.333 31 40z" />
    <glyph glyph-name="d" unicode="d" 
d="M0 700h550v300h150v-1000h-700v700zM550 150v400h-400v-400h400z" />
    <glyph glyph-name="e" unicode="e" 
d="M536 425c-9.33301 24.667 -24.001 47 -44.001 67c-39.333 38.667 -86.666 58 -141.999 58s-102.333 -19.333 -141 -58c-20.667 -20 -35.667 -42.333 -45 -67h372zM677.999 225c-17.333 -44.667 -43.999 -85.333 -79.999 -122c-68 -68.667 -150.333 -103 -247 -103
c-97.333 -0 -180.166 34.333 -248.499 103s-102.5 151.334 -102.5 248.001s34.167 179 102.5 247s151.166 102 248.499 102c96.667 0 179 -34 247 -102s102 -150.333 102 -247c0 -26.667 -2.66699 -52 -8 -76h-528c9.33301 -24 24.333 -46 45 -66
c38.667 -39.333 85.667 -59 141 -59s102.666 19.667 141.999 59c5.33301 5.33301 10.333 10.666 15 15.999h171z" />
    <glyph glyph-name="f" unicode="f" horiz-adv-x="600" 
d="M250 400v-400h-150v400h-100v150h100v450h450v-350h-150v200h-150v-300h200v-150h-200z" />
    <glyph glyph-name="g" unicode="g" 
d="M550 550h-400v-400h400v400zM550 0h-500c-14 -0 -25.833 4.83301 -35.5 14.5s-14.5 21.5 -14.5 35.5v600c-0 13.333 4.83301 25 14.5 35s21.5 15 35.5 15h650v-950c0 -14 -4.83301 -25.833 -14.5 -35.5s-21.5 -14.5 -35.5 -14.5h-650v150h550v150z" />
    <glyph glyph-name="h" unicode="h" horiz-adv-x="751" 
d="M0 1000h150v-300h500v-700h-150v550h-350v-550h-150v1000z" />
    <glyph glyph-name="i" unicode="i" horiz-adv-x="250" 
d="M0 0v700h150v-700h-150zM0 850v150h150v-150h-150z" />
    <glyph glyph-name="j" unicode="j" horiz-adv-x="250" 
d="M0 850v150h150v-150h-150zM0 700h150v-1000h-200v150h50v850z" />
    <glyph glyph-name="k" unicode="k" horiz-adv-x="700" 
d="M150 286v-286h-150v1000h150v-579l272 279h214l-334 -350l334 -350h-214z" />
    <glyph glyph-name="l" unicode="l" horiz-adv-x="250" 
d="M0 0v1000h150v-1000h-150z" />
    <glyph glyph-name="m" unicode="m" horiz-adv-x="1100" 
d="M425 550h-275v-550h-150v700h950c14 0 25.833 -4.83301 35.5 -14.5s14.5 -21.5 14.5 -35.5v-650h-150v550h-275v-550h-150v550z" />
    <glyph glyph-name="n" unicode="n" horiz-adv-x="750" 
d="M150 550v-550h-150v700h600c14 0 25.833 -4.83301 35.5 -14.5s14.5 -21.5 14.5 -35.5v-650h-150v550h-350z" />
    <glyph glyph-name="o" unicode="o" 
d="M351 0c-97.333 0 -180.166 34.333 -248.499 103s-102.5 151.334 -102.5 248.001s34.167 179 102.5 247s151.166 102 248.499 102c96.667 0 179 -34 247 -102s102 -150.333 102 -247s-34 -179.334 -102 -248.001s-150.333 -103 -247 -103zM491.5 208.5
c39 39 58.5 86.167 58.5 141.5c0 56 -19.5 103.333 -58.5 142s-86.167 58 -141.5 58s-102.5 -19.333 -141.5 -58s-58.5 -86 -58.5 -142c0 -55.333 19.5 -102.5 58.5 -141.5s86.167 -58.5 141.5 -58.5s102.5 19.5 141.5 58.5z" />
    <glyph glyph-name="p" unicode="p" 
d="M700 0h-550v-300h-150v1000h700v-700zM150 550v-400h400v400h-400z" />
    <glyph glyph-name="q" unicode="q" 
d="M550 0h-500c-14 -0 -25.833 4.83301 -35.5 14.5s-14.5 21.5 -14.5 35.5v600c-0 13.333 4.83301 25 14.5 35s21.5 15 35.5 15h650v-1000h-150v300zM550 550h-400v-400h400v400z" />
    <glyph glyph-name="r" unicode="r" horiz-adv-x="700" 
d="M150 550v-550h-150v700h550c14 0 25.833 -4.83301 35.5 -14.5s14.5 -21.5 14.5 -35.5v-300h-150v200h-300z" />
    <glyph glyph-name="s" unicode="s" horiz-adv-x="650" 
d="M550 150v-150h-550v150h353l-353 400v150h550v-150h-342z" />
    <glyph glyph-name="t" unicode="t" horiz-adv-x="550" 
d="M250 550v-400h200v-150h-350v550h-100v150h100v100l150 200v-300h200v-150h-200z" />
    <glyph glyph-name="u" unicode="u" horiz-adv-x="750" 
d="M500 150v550h150v-700h-600c-14 -0 -25.833 4.83301 -35.5 14.5s-14.5 21.5 -14.5 35.5v650h150v-550h350z" />
    <glyph glyph-name="v" unicode="v" 
d="M265 0l-315 700h170l230 -511l230 511h170l-315 -700h-170z" />
    <glyph glyph-name="w" unicode="w" horiz-adv-x="1050" 
d="M178 0l-228 700h160l143 -459l142 459h160l142 -459l143 459h160l-228 -700h-150l-147 453l-147 -453h-150z" />
    <glyph glyph-name="x" unicode="x" horiz-adv-x="700" 
d="M398 350l255 -350h-193l-158 218l-159 -218h-193l255 350l-255 350h194l158 -217l157 217h194z" />
    <glyph glyph-name="y" unicode="y" 
d="M304 -300h-183l136 307l-306 693h183l214 -485l214 485h183z" />
    <glyph glyph-name="z" unicode="z" horiz-adv-x="699" 
d="M150 550v-150h-150v300h601l-358 -550h207v150h150v-300h-636l358 550h-172z" />
    <glyph glyph-name="braceleft" unicode="{" horiz-adv-x="600" 
d="M100 425v425l150 150h250v-150h-250v-425l-75 -75l75 -75v-425h250v-150h-250l-150 150v425h-100v150h100z" />
    <glyph glyph-name="bar" unicode="|" horiz-adv-x="300" 
d="M0 -300v1600h100v-1600h-100z" />
    <glyph glyph-name="braceright" unicode="}" horiz-adv-x="600" 
d="M400 425h100v-150h-100v-425l-150 -150h-250v150h250v425l75 75l-75 75v425h-250v150h250l150 -150v-425z" />
    <glyph glyph-name="asciitilde" unicode="~" horiz-adv-x="750" 
d="M250 467l-50 -67h-200l150 200h200l50 -67l50 67h200l-150 -200h-200z" />
    <glyph glyph-name="exclamdown" unicode="&#xa1;" horiz-adv-x="300" 
d="M200 700v-150h-150v150h150zM50 -100l25 550h100l25 -550v-200h-150v200z" />
    <glyph glyph-name="cent" unicode="&#xa2;" horiz-adv-x="750" 
d="M308 2l-104.998 -301.998h-150l120 347c-24.667 15.333 -48 34 -70 56c-68.667 68.667 -103 151.334 -103 248.001s34.167 179 102.5 247s151.166 102 248.499 102c16 0 31.667 -1 47 -3l105 303h150l-121 -349c23.333 -14.667 45.333 -32.334 66 -53.001
c44 -44 73.667 -93.667 89 -149h-162c-8.66699 15.333 -19.667 29.666 -33 42.999c-4 3.33301 -7.66699 6.66602 -11 9.99902l-122 -352c51.333 2 95.666 21.667 132.999 59c12 12 22.333 25.333 31 40h163c-16 -54 -45.333 -102.667 -88 -146
c-68 -68.667 -150.333 -103 -247 -103c-14.667 0 -29 0.666992 -43 2zM224.002 194.002l123 356c-54 -0.666992 -100 -20 -138 -58c-39.333 -38.667 -59 -86 -59 -142c0 -55.333 19.667 -102.333 59 -141c4.66699 -5.33301 9.66699 -10.333 15 -15z" />
    <glyph glyph-name="sterling" unicode="&#xa3;" horiz-adv-x="950" 
d="M300 425v-275h550v-150h-850v150h150v275h-100v150h100v425h600v-350h-150v200h-300v-275h350v-150h-350z" />
    <glyph glyph-name="currency" unicode="&#xa4;" horiz-adv-x="723" 
d="M109 607l-90.001 89l101 105l91 -91c38.667 26 88 39 148 39c59.333 0 108.333 -13 147 -39l91 90l102 -104l-90 -89c26 -40.667 39 -89.334 39 -146.001c0 -57.333 -13 -106.333 -39 -147l90 -89l-102 -105l-90 92c-39.333 -26.667 -88.666 -40 -147.999 -40
c-60 0 -109.667 13.333 -149 40l-90 -92l-101 105l90 89c-26 40.667 -39 89.667 -39 147c0 56.667 13 105.334 39 146.001zM213.999 461c0 -40.667 14.001 -75 42.001 -103s62 -42 102 -42s74 14 102 42s42 62.333 42 103c0 40 -13.833 74 -41.5 102s-61.834 42 -102.501 42
c-40 0 -74 -14 -102 -42s-42 -62 -42 -102z" />
    <glyph glyph-name="yen" unicode="&#xa5;" horiz-adv-x="900" 
d="M475 300h325v-100h-325v-200h-150v200h-325v100h325v100h-325v100h300l-350 500h200l250 -357l250 357h200l-350 -500h300v-100h-325v-100z" />
    <glyph glyph-name="brokenbar" unicode="&#xa6;" horiz-adv-x="300" 
d="M0 612.002v687.988h100v-687.988h-100zM0 -299.998v687.988h100v-687.988h-100z" />
    <glyph glyph-name="section" unicode="&#xa7;" horiz-adv-x="1050" 
d="M396 250h337l-178 200h-337zM528 100l222 -250v-150h-550v150h333l-533 600v150h422l-222 250v150h550v-150h-332l532 -600v-150h-422z" />
    <glyph glyph-name="dieresis" unicode="&#xa8;" horiz-adv-x="601" 
d="M150 850h-150v150h150v-150zM500 850h-150v150h150v-150z" />
    <glyph glyph-name="copyright" unicode="&#xa9;" horiz-adv-x="1300" 
d="M901 800v-150h-450v-300h450v-150h-600v600h600zM1050 50v900h-900v-900h900zM1200 -100h-1200v1200h1200v-1200z" />
    <glyph glyph-name="ordfeminine" unicode="&#xaa;" horiz-adv-x="561" 
d="M230.99 669.996c36.5186 0 67.6475 11.6992 93.3867 35.0986s38.6084 51.6982 38.6084 84.8965s-12.8691 61.4971 -38.6084 84.8965s-56.8682 35.0986 -93.3867 35.0986s-67.6475 -11.6992 -93.3867 -35.0986s-38.6084 -51.6982 -38.6084 -84.8965
s12.8691 -61.4971 38.6084 -84.8965s56.8682 -35.0986 93.3867 -35.0986zM362.985 941.785v58.1973h98.9961v-419.982h-98.9961v58.1973c-41.3584 -38.7979 -90.8564 -58.1973 -148.494 -58.1973c-59.3975 0 -109.995 20.499 -151.793 61.4971
c-41.7979 40.999 -62.6973 90.4971 -62.6973 148.494c0 57.998 20.8994 107.496 62.6973 148.494s92.3955 61.4971 151.793 61.4971c57.6377 0 107.136 -19.3994 148.494 -58.1973z" />
    <glyph glyph-name="guillemotleft" unicode="&#xab;" horiz-adv-x="598" 
d="M132 691h132l-118 -348l118 -343h-132l-116 343zM420 691h132l-117 -348l117 -343h-132l-117 343z" />
    <glyph glyph-name="logicalnot" unicode="&#xac;" 
d="M600 500h-600v100h700v-200h-100v100z" />
    <glyph glyph-name="registered" unicode="&#xae;" horiz-adv-x="1300" 
d="M551 500h-100v-300h-150v600h600v-300h-180l230 -300h-170zM1050 50v900h-900v-900h900zM1200 -100h-1200v1200h1200v-1200z" />
    <glyph glyph-name="macron" unicode="&#xaf;" 
d="M0 800v150h700v-150h-700z" />
    <glyph glyph-name="degree" unicode="&#xb0;" horiz-adv-x="300" 
d="M150 701c-41.333 0 -76.666 14.667 -105.999 44s-44 64.666 -44 105.999s14.667 76.5 44 105.5s64.666 43.5 105.999 43.5s76.5 -14.5 105.5 -43.5s43.5 -64.167 43.5 -105.5s-14.5 -76.666 -43.5 -105.999s-64.167 -44 -105.5 -44zM220.5 779.5
c19.667 19.667 29.5 43.167 29.5 70.5c0 28 -9.83301 51.667 -29.5 71s-43.167 29 -70.5 29s-50.833 -9.66699 -70.5 -29s-29.5 -43 -29.5 -71c0 -27.333 9.83301 -50.833 29.5 -70.5s43.167 -29.5 70.5 -29.5s50.833 9.83301 70.5 29.5z" />
    <glyph glyph-name="plusminus" unicode="&#xb1;" horiz-adv-x="700" 
d="M225 525h-225v150h225v225h150v-225h225v-150h-225v-225h-150v225zM600 -1h-600v150h600v-150z" />
    <glyph glyph-name="uni00B2" unicode="&#xb2;" horiz-adv-x="351" 
d="M0 1000h300v-150l-205 -275h205v-75h-300v75l225 296v54h-150v-75h-75v150z" />
    <glyph glyph-name="uni00B3" unicode="&#xb3;" horiz-adv-x="350" 
d="M175 788v137h-175v75h250v-212h50v-288h-300v75h225v138h-225v75h175z" />
    <glyph glyph-name="acute" unicode="&#xb4;" horiz-adv-x="500" 
d="M400 1000l-200 -200h-200l200 250z" />
    <glyph glyph-name="mu" unicode="&#xb5;" horiz-adv-x="750" 
d="M0 700h150v-550h350v550h150v-700h-501v-300h-149v1000z" />
    <glyph glyph-name="paragraph" unicode="&#xb6;" horiz-adv-x="1000" 
d="M450 850v-1150h-150v700h-300v600h900v-150h-100v-1150h-150v1150h-200z" />
    <glyph glyph-name="periodcentered" unicode="&#xb7;" horiz-adv-x="300" 
d="M0 400v200h200v-200h-200z" />
    <glyph glyph-name="periodcentered" unicode="&#x2219;" horiz-adv-x="300" 
d="M0 400v200h200v-200h-200z" />
    <glyph glyph-name="cedilla" unicode="&#xb8;" horiz-adv-x="400" 
d="M0 -400v100h200v100h-200v250h100v-150h200v-300h-300z" />
    <glyph glyph-name="uni00B9" unicode="&#xb9;" horiz-adv-x="251" 
d="M188 500h-75v425h-100v75h175v-500z" />
    <glyph glyph-name="ordmasculine" unicode="&#xba;" horiz-adv-x="562" 
d="M231.65 580c-64.2373 0 -118.905 20.5996 -164.004 61.7979s-67.6475 90.7959 -67.6475 148.794c0 57.9971 22.5488 107.395 67.6475 148.192s99.7666 61.1973 164.004 61.1973c63.7979 0 118.136 -20.3994 163.014 -61.1973s67.3174 -90.1953 67.3174 -148.192
c0 -57.998 -22.4395 -107.596 -67.3174 -148.794s-99.2158 -61.7979 -163.014 -61.7979zM324.377 705.095c25.7393 23.3994 38.6084 51.6982 38.6084 84.8965c0 33.5986 -12.8691 61.9971 -38.6084 85.1953c-25.7393 23.1992 -56.8682 34.7988 -93.3867 34.7988
s-67.6475 -11.5996 -93.3867 -34.7988c-25.7393 -23.1982 -38.6084 -51.5967 -38.6084 -85.1953c0 -33.1982 12.8691 -61.4971 38.6084 -84.8965s56.8682 -35.0986 93.3867 -35.0986s67.6475 11.6992 93.3867 35.0986z" />
    <glyph glyph-name="guillemotright" unicode="&#xbb;" horiz-adv-x="598" 
d="M436 691l116 -348l-116 -343h-132l117 343l-117 348h132zM148 691l117 -348l-117 -343h-132l117 343l-117 348h132z" />
    <glyph glyph-name="onequarter" unicode="&#xbc;" horiz-adv-x="1708" 
 />
    <glyph glyph-name="onehalf" unicode="&#xbd;" horiz-adv-x="1000" 
d="M163 500h-75v425h-100v75h175v-500zM900 1001l-780 -1000h-120l780 1000h120zM600 500h300v-150l-205 -275h205v-75h-300v75l225 296v54h-150v-75h-75v150z" />
    <glyph glyph-name="threequarters" unicode="&#xbe;" horiz-adv-x="1708" 
 />
    <glyph glyph-name="questiondown" unicode="&#xbf;" horiz-adv-x="698" 
d="M696 -300h-598v303l224 446h150l-224 -453v-146h299v150h149v-300zM472 700v-150h-150v150h150z" />
    <glyph glyph-name="Agrave" unicode="&#xc0;" horiz-adv-x="850" 
d="M600 850h-450v-275h450v275zM600 425h-450v-425h-150v1000h750v-1000h-150v425zM308 1350l200 -250h-200l-200 200z" />
    <glyph glyph-name="Aacute" unicode="&#xc1;" horiz-adv-x="850" 
d="M600 850h-450v-275h450v275zM600 425h-450v-425h-150v1000h750v-1000h-150v425zM642 1300l-200 -200h-200l200 250z" />
    <glyph glyph-name="Acircumflex" unicode="&#xc2;" horiz-adv-x="850" 
d="M600 850h-450v-275h450v275zM600 425h-450v-425h-150v1000h750v-1000h-150v425zM475 1300l150 -200h-200l-50 67l-50 -67h-200l150 200h200z" />
    <glyph glyph-name="Atilde" unicode="&#xc3;" horiz-adv-x="850" 
d="M600 850h-450v-275h450v275zM600 425h-450v-425h-150v1000h750v-1000h-150v425zM300 1200l-75 -100h-150l150 200h150l75 -100l75 100h150l-150 -200h-150z" />
    <glyph glyph-name="Adieresis" unicode="&#xc4;" horiz-adv-x="850" 
d="M600 850h-450v-275h450v275zM600 425h-450v-425h-150v1000h750v-1000h-150v425zM275 1150h-150v150h150v-150zM625 1150h-150v150h150v-150z" />
    <glyph glyph-name="Aring" unicode="&#xc5;" horiz-adv-x="850" 
d="M600 850h-450v-275h450v275zM600 425h-450v-425h-150v1000h750v-1000h-150v425zM375 1100c-27.333 0 -50.833 9.83301 -70.5 29.5s-29.5 43.167 -29.5 70.5c0 28 9.83301 51.667 29.5 71s43.167 29 70.5 29c28 0 51.667 -9.66699 71 -29s29 -43 29 -71
c0 -27.333 -9.66699 -50.833 -29 -70.5s-43 -29.5 -71 -29.5zM405.5 1169.5c8.33301 8.33301 12.5 18.5 12.5 30.5s-4.16699 22.167 -12.5 30.5s-18.5 12.5 -30.5 12.5s-22.167 -4.16699 -30.5 -12.5s-12.5 -18.5 -12.5 -30.5s4.16699 -22.167 12.5 -30.5
s18.5 -12.5 30.5 -12.5s22.167 4.16699 30.5 12.5z" />
    <glyph glyph-name="AE" unicode="&#xc6;" horiz-adv-x="1200" 
d="M315 350l-140 -350h-175l400 1000h700v-150h-350v-200h350v-150h-350v-350h350v-150h-500v350h-285zM600 500v350h-85l-140 -350h225z" />
    <glyph glyph-name="Ccedilla" unicode="&#xc7;" horiz-adv-x="850" 
d="M750 150v-150h-750v1000h750v-150h-600v-700h600zM225 -400v100h200v100h-200v250h100v-150h200v-300h-300z" />
    <glyph glyph-name="Egrave" unicode="&#xc8;" horiz-adv-x="700" 
d="M600 1000v-150h-450v-200h450v-150h-450v-350h450v-150h-600v1000h600zM233 1350l200 -250h-200l-200 200z" />
    <glyph glyph-name="Eacute" unicode="&#xc9;" horiz-adv-x="700" 
d="M600 1000v-150h-450v-200h450v-150h-450v-350h450v-150h-600v1000h600zM567 1300l-200 -200h-200l200 250z" />
    <glyph glyph-name="Ecircumflex" unicode="&#xca;" horiz-adv-x="700" 
d="M600 1000v-150h-450v-200h450v-150h-450v-350h450v-150h-600v1000h600zM400 1300l150 -200h-200l-50 67l-50 -67h-200l150 200h200z" />
    <glyph glyph-name="Edieresis" unicode="&#xcb;" horiz-adv-x="700" 
d="M600 1000v-150h-450v-200h450v-150h-450v-350h450v-150h-600v1000h600zM200 1150h-150v150h150v-150zM550 1150h-150v150h150v-150z" />
    <glyph glyph-name="Igrave" unicode="&#xcc;" horiz-adv-x="699" 
d="M600 1000v-150h-225v-700h225v-150h-600v150h225v700h-225v150h600zM233 1350l200 -250h-200l-200 200z" />
    <glyph glyph-name="Iacute" unicode="&#xcd;" horiz-adv-x="699" 
d="M600 1000v-150h-225v-700h225v-150h-600v150h225v700h-225v150h600zM567 1300l-200 -200h-200l200 250z" />
    <glyph glyph-name="Icircumflex" unicode="&#xce;" horiz-adv-x="699" 
d="M600 1000v-150h-225v-700h225v-150h-600v150h225v700h-225v150h600zM400 1300l150 -200h-200l-50 67l-50 -67h-200l150 200h200z" />
    <glyph glyph-name="Idieresis" unicode="&#xcf;" horiz-adv-x="699" 
d="M600 1000v-150h-225v-700h225v-150h-600v150h225v700h-225v150h600zM200 1150h-150v150h150v-150zM550 1150h-150v150h150v-150z" />
    <glyph glyph-name="Eth" unicode="&#xd0;" horiz-adv-x="1000" 
d="M650 575v275h-400v-700h400v275h-250v150h250zM100 850l-100 0.000976562v150h800v-425h100v-150h-100v-425h-618c-22.667 0 -42 8.16699 -58 24.5s-24 36.166 -24 59.499v766z" />
    <glyph glyph-name="Ntilde" unicode="&#xd1;" horiz-adv-x="900" 
d="M150 723v-723h-150v1000h150l500 -723v723h150v-1000h-150zM325 1200l-75 -100h-150l150 200h150l75 -100l75 100h150l-150 -200h-150z" />
    <glyph glyph-name="Ograve" unicode="&#xd2;" horiz-adv-x="900" 
d="M0 1000h800v-1000h-800v1000zM150 850v-700h500v700h-500zM333 1350l200 -250h-200l-200 200z" />
    <glyph glyph-name="Oacute" unicode="&#xd3;" horiz-adv-x="900" 
d="M0 1000h800v-1000h-800v1000zM150 850v-700h500v700h-500zM667 1300l-200 -200h-200l200 250z" />
    <glyph glyph-name="Ocircumflex" unicode="&#xd4;" horiz-adv-x="900" 
d="M0 1000h800v-1000h-800v1000zM150 850v-700h500v700h-500zM500 1300l150 -200h-200l-50 67l-50 -67h-200l150 200h200z" />
    <glyph glyph-name="Otilde" unicode="&#xd5;" horiz-adv-x="900" 
d="M0 1000h800v-1000h-800v1000zM150 850v-700h500v700h-500zM325 1200l-75 -100h-150l150 200h150l75 -100l75 100h150l-150 -200h-150z" />
    <glyph glyph-name="Odieresis" unicode="&#xd6;" horiz-adv-x="900" 
d="M0 1000h800v-1000h-800v1000zM150 850v-700h500v700h-500zM300 1150h-150v150h150v-150zM650 1150h-150v150h150v-150z" />
    <glyph glyph-name="multiply" unicode="&#xd7;" horiz-adv-x="950" 
d="M434 372l-250 -272h-234l367 400l-367 400h233l251 -273l250 273h233l-367 -400l367 -400h-234z" />
    <glyph glyph-name="Oslash" unicode="&#xd8;" horiz-adv-x="900" 
d="M550 850h-400v-700zM250 150h400v700zM0 1000h800v-1000h-800v1000z" />
    <glyph glyph-name="Ugrave" unicode="&#xd9;" horiz-adv-x="851" 
d="M150 150h450v850h150v-1000h-750v1000h150v-850zM308 1350l200 -250h-200l-200 200z" />
    <glyph glyph-name="Uacute" unicode="&#xda;" horiz-adv-x="851" 
d="M150 150h450v850h150v-1000h-750v1000h150v-850zM642 1300l-200 -200h-200l200 250z" />
    <glyph glyph-name="Ucircumflex" unicode="&#xdb;" horiz-adv-x="851" 
d="M150 150h450v850h150v-1000h-750v1000h150v-850zM475 1300l150 -200h-200l-50 67l-50 -67h-200l150 200h200z" />
    <glyph glyph-name="Udieresis" unicode="&#xdc;" horiz-adv-x="851" 
d="M150 150h450v850h150v-1000h-750v1000h150v-850zM275 1150h-150v150h150v-150zM625 1150h-150v150h150v-150z" />
    <glyph glyph-name="Yacute" unicode="&#xdd;" horiz-adv-x="899" 
d="M325 325l-375 675h175l275 -493l275 493h175l-375 -675v-325h-150v325zM667 1300l-200 -200h-200l200 250z" />
    <glyph glyph-name="Thorn" unicode="&#xde;" horiz-adv-x="900" 
d="M650 350v300h-500v-300h500zM800 200h-650v-200h-150v1000h150v-200h650v-600z" />
    <glyph glyph-name="germandbls" unicode="&#xdf;" 
d="M0 1000h450v-400h250v-600h-450v150h300v300h-250v400h-150v-850h-150v1000z" />
    <glyph glyph-name="agrave" unicode="&#xe0;" horiz-adv-x="799" 
d="M350 150c55.333 0 102.5 19.5 141.5 58.5s58.5 86.167 58.5 141.5s-19.5 102.5 -58.5 141.5s-86.167 58.5 -141.5 58.5s-102.5 -19.5 -141.5 -58.5s-58.5 -86.167 -58.5 -141.5s19.5 -102.5 58.5 -141.5s86.167 -58.5 141.5 -58.5zM550 603v97h150v-700h-150v97
c-62.667 -64.667 -137.667 -97 -225 -97c-90 0 -166.667 34.167 -230 102.5s-95 150.833 -95 247.5s31.667 179.167 95 247.5s140 102.5 230 102.5c87.333 0 162.333 -32.333 225 -97zM283 1050l200 -250h-200l-200 200z" />
    <glyph glyph-name="aacute" unicode="&#xe1;" horiz-adv-x="799" 
d="M350 150c55.333 0 102.5 19.5 141.5 58.5s58.5 86.167 58.5 141.5s-19.5 102.5 -58.5 141.5s-86.167 58.5 -141.5 58.5s-102.5 -19.5 -141.5 -58.5s-58.5 -86.167 -58.5 -141.5s19.5 -102.5 58.5 -141.5s86.167 -58.5 141.5 -58.5zM550 603v97h150v-700h-150v97
c-62.667 -64.667 -137.667 -97 -225 -97c-90 0 -166.667 34.167 -230 102.5s-95 150.833 -95 247.5s31.667 179.167 95 247.5s140 102.5 230 102.5c87.333 0 162.333 -32.333 225 -97zM617 1000l-200 -200h-200l200 250z" />
    <glyph glyph-name="acircumflex" unicode="&#xe2;" horiz-adv-x="799" 
d="M350 150c55.333 0 102.5 19.5 141.5 58.5s58.5 86.167 58.5 141.5s-19.5 102.5 -58.5 141.5s-86.167 58.5 -141.5 58.5s-102.5 -19.5 -141.5 -58.5s-58.5 -86.167 -58.5 -141.5s19.5 -102.5 58.5 -141.5s86.167 -58.5 141.5 -58.5zM550 603v97h150v-700h-150v97
c-62.667 -64.667 -137.667 -97 -225 -97c-90 0 -166.667 34.167 -230 102.5s-95 150.833 -95 247.5s31.667 179.167 95 247.5s140 102.5 230 102.5c87.333 0 162.333 -32.333 225 -97zM450 1000l150 -200h-200l-50 67l-50 -67h-200l150 200h200z" />
    <glyph glyph-name="atilde" unicode="&#xe3;" horiz-adv-x="799" 
d="M350 150c55.333 0 102.5 19.5 141.5 58.5s58.5 86.167 58.5 141.5s-19.5 102.5 -58.5 141.5s-86.167 58.5 -141.5 58.5s-102.5 -19.5 -141.5 -58.5s-58.5 -86.167 -58.5 -141.5s19.5 -102.5 58.5 -141.5s86.167 -58.5 141.5 -58.5zM550 603v97h150v-700h-150v97
c-62.667 -64.667 -137.667 -97 -225 -97c-90 0 -166.667 34.167 -230 102.5s-95 150.833 -95 247.5s31.667 179.167 95 247.5s140 102.5 230 102.5c87.333 0 162.333 -32.333 225 -97zM275 900l-75 -100h-150l150 200h150l75 -100l75 100h150l-150 -200h-150z" />
    <glyph glyph-name="adieresis" unicode="&#xe4;" horiz-adv-x="799" 
d="M350 150c55.333 0 102.5 19.5 141.5 58.5s58.5 86.167 58.5 141.5s-19.5 102.5 -58.5 141.5s-86.167 58.5 -141.5 58.5s-102.5 -19.5 -141.5 -58.5s-58.5 -86.167 -58.5 -141.5s19.5 -102.5 58.5 -141.5s86.167 -58.5 141.5 -58.5zM550 603v97h150v-700h-150v97
c-62.667 -64.667 -137.667 -97 -225 -97c-90 0 -166.667 34.167 -230 102.5s-95 150.833 -95 247.5s31.667 179.167 95 247.5s140 102.5 230 102.5c87.333 0 162.333 -32.333 225 -97zM250 850h-150v150h150v-150zM600 850h-150v150h150v-150z" />
    <glyph glyph-name="aring" unicode="&#xe5;" horiz-adv-x="799" 
d="M350 150c55.333 0 102.5 19.5 141.5 58.5s58.5 86.167 58.5 141.5s-19.5 102.5 -58.5 141.5s-86.167 58.5 -141.5 58.5s-102.5 -19.5 -141.5 -58.5s-58.5 -86.167 -58.5 -141.5s19.5 -102.5 58.5 -141.5s86.167 -58.5 141.5 -58.5zM550 603v97h150v-700h-150v97
c-62.667 -64.667 -137.667 -97 -225 -97c-90 0 -166.667 34.167 -230 102.5s-95 150.833 -95 247.5s31.667 179.167 95 247.5s140 102.5 230 102.5c87.333 0 162.333 -32.333 225 -97zM350 800c-27.333 0 -50.833 9.83301 -70.5 29.5s-29.5 43.167 -29.5 70.5
c0 28 9.83301 51.667 29.5 71s43.167 29 70.5 29c28 0 51.667 -9.66699 71 -29s29 -43 29 -71c0 -27.333 -9.66699 -50.833 -29 -70.5s-43 -29.5 -71 -29.5zM380.5 869.5c8.33301 8.33301 12.5 18.5 12.5 30.5s-4.16699 22.167 -12.5 30.5s-18.5 12.5 -30.5 12.5
s-22.167 -4.16699 -30.5 -12.5s-12.5 -18.5 -12.5 -30.5s4.16699 -22.167 12.5 -30.5s18.5 -12.5 30.5 -12.5s22.167 4.16699 30.5 12.5z" />
    <glyph glyph-name="ae" unicode="&#xe6;" horiz-adv-x="1300" 
d="M450 275h-300v-125h300v125zM1036 425c-9.33301 24.667 -24.001 47 -44.001 67c-39.333 38.667 -86.666 58 -141.999 58s-102.333 -19.333 -141 -58c-20.667 -20 -35.667 -42.333 -45 -67h372zM599.999 106l0.000976562 -105.998h-550c-14 0 -25.833 4.83301 -35.5 14.5
s-14.5 21.5 -14.5 35.5v325c-0 14 4.83301 25.833 14.5 35.5s21.5 14.5 35.5 14.5h400v125h-450v150h550c14 0 25.833 -4.83301 35.5 -14.5s14.5 -21.5 14.5 -35.5v-55c0.666992 1.33301 1.66699 2.33301 3 3c68 68 150.667 102 248 102c96.667 0 179 -34 247 -102
s102 -150.333 102 -247c0 -26.667 -2.66699 -52 -8 -76h-528c9.33301 -24 24.333 -46 45 -66c38.667 -39.333 85.667 -59 141 -59s102.666 19.667 141.999 59c5.33301 5.33301 10.333 10.666 15 15.999h171c-17.333 -44.667 -44 -85.334 -80 -122.001
c-68 -68.667 -150.333 -103 -247 -103c-97.333 -0 -180 34.333 -248 103c-1.33301 0.666992 -2.33301 1.66699 -3 3z" />
    <glyph glyph-name="ccedilla" unicode="&#xe7;" horiz-adv-x="750" 
d="M523 249h163c-16 -54 -45.333 -102.667 -88 -146c-68 -68.667 -150.333 -103 -247 -103c-97.333 -0 -180.166 34.333 -248.499 103s-102.5 151.334 -102.5 248.001s34.167 179 102.5 247s151.166 102 248.499 102c96.667 0 179 -34 247 -102
c44 -44 73.667 -93.667 89 -149h-162c-8.66699 15.333 -19.667 29.666 -33 42.999c-39.333 38.667 -86.666 58 -141.999 58s-102.5 -19.333 -141.5 -58s-58.5 -86 -58.5 -142c0 -55.333 19.5 -102.5 58.5 -141.5s86.167 -58.5 141.5 -58.5s102.666 19.667 141.999 59
c12 12 22.333 25.333 31 40zM194 -400v100h200v100h-200v250h100v-150h200v-300h-300z" />
    <glyph glyph-name="egrave" unicode="&#xe8;" 
d="M536 425c-9.33301 24.667 -24.001 47 -44.001 67c-39.333 38.667 -86.666 58 -141.999 58s-102.333 -19.333 -141 -58c-20.667 -20 -35.667 -42.333 -45 -67h372zM677.999 225c-17.333 -44.667 -43.999 -85.333 -79.999 -122c-68 -68.667 -150.333 -103 -247 -103
c-97.333 -0 -180.166 34.333 -248.499 103s-102.5 151.334 -102.5 248.001s34.167 179 102.5 247s151.166 102 248.499 102c96.667 0 179 -34 247 -102s102 -150.333 102 -247c0 -26.667 -2.66699 -52 -8 -76h-528c9.33301 -24 24.333 -46 45 -66
c38.667 -39.333 85.667 -59 141 -59s102.666 19.667 141.999 59c5.33301 5.33301 10.333 10.666 15 15.999h171zM283 1050l200 -250h-200l-200 200z" />
    <glyph glyph-name="eacute" unicode="&#xe9;" 
d="M536 425c-9.33301 24.667 -24.001 47 -44.001 67c-39.333 38.667 -86.666 58 -141.999 58s-102.333 -19.333 -141 -58c-20.667 -20 -35.667 -42.333 -45 -67h372zM677.999 225c-17.333 -44.667 -43.999 -85.333 -79.999 -122c-68 -68.667 -150.333 -103 -247 -103
c-97.333 -0 -180.166 34.333 -248.499 103s-102.5 151.334 -102.5 248.001s34.167 179 102.5 247s151.166 102 248.499 102c96.667 0 179 -34 247 -102s102 -150.333 102 -247c0 -26.667 -2.66699 -52 -8 -76h-528c9.33301 -24 24.333 -46 45 -66
c38.667 -39.333 85.667 -59 141 -59s102.666 19.667 141.999 59c5.33301 5.33301 10.333 10.666 15 15.999h171zM617 1000l-200 -200h-200l200 250z" />
    <glyph glyph-name="ecircumflex" unicode="&#xea;" 
d="M536 425c-9.33301 24.667 -24.001 47 -44.001 67c-39.333 38.667 -86.666 58 -141.999 58s-102.333 -19.333 -141 -58c-20.667 -20 -35.667 -42.333 -45 -67h372zM677.999 225c-17.333 -44.667 -43.999 -85.333 -79.999 -122c-68 -68.667 -150.333 -103 -247 -103
c-97.333 -0 -180.166 34.333 -248.499 103s-102.5 151.334 -102.5 248.001s34.167 179 102.5 247s151.166 102 248.499 102c96.667 0 179 -34 247 -102s102 -150.333 102 -247c0 -26.667 -2.66699 -52 -8 -76h-528c9.33301 -24 24.333 -46 45 -66
c38.667 -39.333 85.667 -59 141 -59s102.666 19.667 141.999 59c5.33301 5.33301 10.333 10.666 15 15.999h171zM450 1000l150 -200h-200l-50 67l-50 -67h-200l150 200h200z" />
    <glyph glyph-name="edieresis" unicode="&#xeb;" 
d="M536 425c-9.33301 24.667 -24.001 47 -44.001 67c-39.333 38.667 -86.666 58 -141.999 58s-102.333 -19.333 -141 -58c-20.667 -20 -35.667 -42.333 -45 -67h372zM677.999 225c-17.333 -44.667 -43.999 -85.333 -79.999 -122c-68 -68.667 -150.333 -103 -247 -103
c-97.333 -0 -180.166 34.333 -248.499 103s-102.5 151.334 -102.5 248.001s34.167 179 102.5 247s151.166 102 248.499 102c96.667 0 179 -34 247 -102s102 -150.333 102 -247c0 -26.667 -2.66699 -52 -8 -76h-528c9.33301 -24 24.333 -46 45 -66
c38.667 -39.333 85.667 -59 141 -59s102.666 19.667 141.999 59c5.33301 5.33301 10.333 10.666 15 15.999h171zM250 850.001h-150v150h150v-150zM600 850.001h-150v150h150v-150z" />
    <glyph glyph-name="igrave" unicode="&#xec;" horiz-adv-x="250" 
d="M0 0v700h150v-700h-150zM8 1050l200 -250h-200l-200 200z" />
    <glyph glyph-name="iacute" unicode="&#xed;" horiz-adv-x="250" 
d="M0 0v700h150v-700h-150zM342 1000l-200 -200h-200l200 250z" />
    <glyph glyph-name="icircumflex" unicode="&#xee;" horiz-adv-x="250" 
d="M0 0v700h150v-700h-150zM175 1000l150 -200h-200l-50 67l-50 -67h-200l150 200h200z" />
    <glyph glyph-name="idieresis" unicode="&#xef;" horiz-adv-x="250" 
d="M0 0v700h150v-700h-150zM-25 850h-150v150h150v-150zM325 850h-150v150h150v-150z" />
    <glyph glyph-name="eth" unicode="&#xf0;" 
d="M550 150v400h-400v-400h400zM633 800l67 -100v-700h-700v700h520l-67 100h-153v100h87l-67 100h180l67 -100h133v-100h-67z" />
    <glyph glyph-name="ntilde" unicode="&#xf1;" horiz-adv-x="750" 
d="M150 550v-550h-150v700h600c14 0 25.833 -4.83301 35.5 -14.5s14.5 -21.5 14.5 -35.5v-650h-150v550h-350zM250 900l-75 -100h-150l150 200h150l75 -100l75 100h150l-150 -200h-150z" />
    <glyph glyph-name="ograve" unicode="&#xf2;" 
d="M351 0c-97.333 0 -180.166 34.333 -248.499 103s-102.5 151.334 -102.5 248.001s34.167 179 102.5 247s151.166 102 248.499 102c96.667 0 179 -34 247 -102s102 -150.333 102 -247s-34 -179.334 -102 -248.001s-150.333 -103 -247 -103zM491.5 208.5
c39 39 58.5 86.167 58.5 141.5c0 56 -19.5 103.333 -58.5 142s-86.167 58 -141.5 58s-102.5 -19.333 -141.5 -58s-58.5 -86 -58.5 -142c0 -55.333 19.5 -102.5 58.5 -141.5s86.167 -58.5 141.5 -58.5s102.5 19.5 141.5 58.5zM283 1050l200 -250h-200l-200 200z" />
    <glyph glyph-name="oacute" unicode="&#xf3;" 
d="M351 0c-97.333 0 -180.166 34.333 -248.499 103s-102.5 151.334 -102.5 248.001s34.167 179 102.5 247s151.166 102 248.499 102c96.667 0 179 -34 247 -102s102 -150.333 102 -247s-34 -179.334 -102 -248.001s-150.333 -103 -247 -103zM491.5 208.5
c39 39 58.5 86.167 58.5 141.5c0 56 -19.5 103.333 -58.5 142s-86.167 58 -141.5 58s-102.5 -19.333 -141.5 -58s-58.5 -86 -58.5 -142c0 -55.333 19.5 -102.5 58.5 -141.5s86.167 -58.5 141.5 -58.5s102.5 19.5 141.5 58.5zM617 1000l-200 -200h-200l200 250z" />
    <glyph glyph-name="ocircumflex" unicode="&#xf4;" 
d="M351 0c-97.333 0 -180.166 34.333 -248.499 103s-102.5 151.334 -102.5 248.001s34.167 179 102.5 247s151.166 102 248.499 102c96.667 0 179 -34 247 -102s102 -150.333 102 -247s-34 -179.334 -102 -248.001s-150.333 -103 -247 -103zM491.5 208.5
c39 39 58.5 86.167 58.5 141.5c0 56 -19.5 103.333 -58.5 142s-86.167 58 -141.5 58s-102.5 -19.333 -141.5 -58s-58.5 -86 -58.5 -142c0 -55.333 19.5 -102.5 58.5 -141.5s86.167 -58.5 141.5 -58.5s102.5 19.5 141.5 58.5zM450 1000l150 -200h-200l-50 67l-50 -67h-200
l150 200h200z" />
    <glyph glyph-name="otilde" unicode="&#xf5;" 
d="M351 0c-97.333 0 -180.166 34.333 -248.499 103s-102.5 151.334 -102.5 248.001s34.167 179 102.5 247s151.166 102 248.499 102c96.667 0 179 -34 247 -102s102 -150.333 102 -247s-34 -179.334 -102 -248.001s-150.333 -103 -247 -103zM491.5 208.5
c39 39 58.5 86.167 58.5 141.5c0 56 -19.5 103.333 -58.5 142s-86.167 58 -141.5 58s-102.5 -19.333 -141.5 -58s-58.5 -86 -58.5 -142c0 -55.333 19.5 -102.5 58.5 -141.5s86.167 -58.5 141.5 -58.5s102.5 19.5 141.5 58.5zM275 900l-75 -100h-150l150 200h150l75 -100
l75 100h150l-150 -200h-150z" />
    <glyph glyph-name="odieresis" unicode="&#xf6;" 
d="M351 0c-97.333 0 -180.166 34.333 -248.499 103s-102.5 151.334 -102.5 248.001s34.167 179 102.5 247s151.166 102 248.499 102c96.667 0 179 -34 247 -102s102 -150.333 102 -247s-34 -179.334 -102 -248.001s-150.333 -103 -247 -103zM491.5 208.5
c39 39 58.5 86.167 58.5 141.5c0 56 -19.5 103.333 -58.5 142s-86.167 58 -141.5 58s-102.5 -19.333 -141.5 -58s-58.5 -86 -58.5 -142c0 -55.333 19.5 -102.5 58.5 -141.5s86.167 -58.5 141.5 -58.5s102.5 19.5 141.5 58.5zM250 850h-150v150h150v-150zM600 850h-150v150
h150v-150z" />
    <glyph glyph-name="divide" unicode="&#xf7;" horiz-adv-x="901" 
d="M800 424h-800v150h800v-150zM475 700h-150v200h150v-200zM475 100h-150v200h150v-200z" />
    <glyph glyph-name="oslash" unicode="&#xf8;" 
d="M269 166c24.667 -10.667 51.667 -15.999 81 -15.999c55.333 0 102.5 19.5 141.5 58.5s58.5 86.167 58.5 141.5c0 53.333 -17.667 98.666 -53 135.999zM203 214.001l228 320c-24.667 10.667 -51.667 16 -81 16c-55.333 0 -102.5 -19.333 -141.5 -58s-58.5 -86 -58.5 -142
c0 -52.667 17.667 -98 53 -136zM181 43.001l-30.998 -43h-100l65 91l-12 12c-68.667 68.667 -103 151.334 -103 248.001s34.167 179 102.5 247s151.166 102 248.499 102c62 0 118.333 -14 169 -42l30 42h100l-64 -90l12 -12c68 -68 102 -150.333 102 -247
s-34 -179.334 -102 -248.001s-150.333 -103 -247 -103c-62.667 0 -119.334 14.333 -170.001 43z" />
    <glyph glyph-name="ugrave" unicode="&#xf9;" horiz-adv-x="750" 
d="M500 150v550h150v-700h-600c-14 -0 -25.833 4.83301 -35.5 14.5s-14.5 21.5 -14.5 35.5v650h150v-550h350zM258 1050l200 -250h-200l-200 200z" />
    <glyph glyph-name="uacute" unicode="&#xfa;" horiz-adv-x="750" 
d="M500 150v550h150v-700h-600c-14 -0 -25.833 4.83301 -35.5 14.5s-14.5 21.5 -14.5 35.5v650h150v-550h350zM592 1000l-200 -200h-200l200 250z" />
    <glyph glyph-name="ucircumflex" unicode="&#xfb;" horiz-adv-x="750" 
d="M500 150v550h150v-700h-600c-14 -0 -25.833 4.83301 -35.5 14.5s-14.5 21.5 -14.5 35.5v650h150v-550h350zM425 1000l150 -200h-200l-50 67l-50 -67h-200l150 200h200z" />
    <glyph glyph-name="udieresis" unicode="&#xfc;" horiz-adv-x="750" 
d="M500 150v550h150v-700h-600c-14 -0 -25.833 4.83301 -35.5 14.5s-14.5 21.5 -14.5 35.5v650h150v-550h350zM225 850h-150v150h150v-150zM575 850h-150v150h150v-150z" />
    <glyph glyph-name="yacute" unicode="&#xfd;" 
d="M304 -300h-183l136 307l-306 693h183l214 -485l214 485h183zM615 1000l-200 -200h-200l200 250z" />
    <glyph glyph-name="thorn" unicode="&#xfe;" 
d="M550 150v400h-400v-400h400zM700 0h-550v-300h-150v1300h150v-300h550v-700z" />
    <glyph glyph-name="ydieresis" unicode="&#xff;" 
d="M304 -300h-183l136 307l-306 693h183l214 -485l214 485h183zM248 850h-150v150h150v-150zM598 850h-150v150h150v-150z" />
    <glyph glyph-name="Amacron" unicode="&#x100;" horiz-adv-x="850" 
d="M600 850h-450v-275h450v275zM600 425h-450v-425h-150v1000h750v-1000h-150v425zM100 1100v150h550v-150h-550z" />
    <glyph glyph-name="amacron" unicode="&#x101;" horiz-adv-x="799" 
d="M350 150c55.333 0 102.5 19.5 141.5 58.5s58.5 86.167 58.5 141.5s-19.5 102.5 -58.5 141.5s-86.167 58.5 -141.5 58.5s-102.5 -19.5 -141.5 -58.5s-58.5 -86.167 -58.5 -141.5s19.5 -102.5 58.5 -141.5s86.167 -58.5 141.5 -58.5zM550 603v97h150v-700h-150v97
c-62.667 -64.667 -137.667 -97 -225 -97c-90 0 -166.667 34.167 -230 102.5s-95 150.833 -95 247.5s31.667 179.167 95 247.5s140 102.5 230 102.5c87.333 0 162.333 -32.333 225 -97zM75 800v150h550v-150h-550z" />
    <glyph glyph-name="Abreve" unicode="&#x102;" horiz-adv-x="850" 
d="M600 850h-450v-275h450v275zM600 425h-450v-425h-150v1000h750v-1000h-150v425zM250 1100l-100 100v150h150v-100h150v100h150v-150l-100 -100h-250z" />
    <glyph glyph-name="abreve" unicode="&#x103;" horiz-adv-x="799" 
d="M350 150c55.333 0 102.5 19.5 141.5 58.5s58.5 86.167 58.5 141.5s-19.5 102.5 -58.5 141.5s-86.167 58.5 -141.5 58.5s-102.5 -19.5 -141.5 -58.5s-58.5 -86.167 -58.5 -141.5s19.5 -102.5 58.5 -141.5s86.167 -58.5 141.5 -58.5zM550 603v97h150v-700h-150v97
c-62.667 -64.667 -137.667 -97 -225 -97c-90 0 -166.667 34.167 -230 102.5s-95 150.833 -95 247.5s31.667 179.167 95 247.5s140 102.5 230 102.5c87.333 0 162.333 -32.333 225 -97zM225 800l-100 100v150h150v-100h150v100h150v-150l-100 -100h-250z" />
    <glyph glyph-name="Aogonek" unicode="&#x104;" horiz-adv-x="850" 
d="M600 850h-450v-275h450v275zM600 425h-450v-425h-150v1000h750v-1000h-150v425zM520 -250h230v-150h-400v150l230 250h170z" />
    <glyph glyph-name="aogonek" unicode="&#x105;" horiz-adv-x="799" 
d="M350 150c55.333 0 102.5 19.5 141.5 58.5s58.5 86.167 58.5 141.5s-19.5 102.5 -58.5 141.5s-86.167 58.5 -141.5 58.5s-102.5 -19.5 -141.5 -58.5s-58.5 -86.167 -58.5 -141.5s19.5 -102.5 58.5 -141.5s86.167 -58.5 141.5 -58.5zM550 603v97h150v-700h-150v97
c-62.667 -64.667 -137.667 -97 -225 -97c-90 0 -166.667 34.167 -230 102.5s-95 150.833 -95 247.5s31.667 179.167 95 247.5s140 102.5 230 102.5c87.333 0 162.333 -32.333 225 -97zM470 -250h230v-150h-400v150l230 250h170z" />
    <glyph glyph-name="Cacute" unicode="&#x106;" horiz-adv-x="850" 
d="M750 150v-150h-750v1000h750v-150h-600v-700h600zM642 1300l-200 -200h-200l200 250z" />
    <glyph glyph-name="cacute" unicode="&#x107;" horiz-adv-x="750" 
d="M523 249h163c-16 -54 -45.333 -102.667 -88 -146c-68 -68.667 -150.333 -103 -247 -103c-97.333 -0 -180.166 34.333 -248.499 103s-102.5 151.334 -102.5 248.001s34.167 179 102.5 247s151.166 102 248.499 102c96.667 0 179 -34 247 -102
c44 -44 73.667 -93.667 89 -149h-162c-8.66699 15.333 -19.667 29.666 -33 42.999c-39.333 38.667 -86.666 58 -141.999 58s-102.5 -19.333 -141.5 -58s-58.5 -86 -58.5 -142c0 -55.333 19.5 -102.5 58.5 -141.5s86.167 -58.5 141.5 -58.5s102.666 19.667 141.999 59
c12 12 22.333 25.333 31 40zM610 1000l-200 -200h-200l200 250z" />
    <glyph glyph-name="Ccircumflex" unicode="&#x108;" horiz-adv-x="850" 
d="M750 150v-150h-750v1000h750v-150h-600v-700h600zM475 1300l150 -200h-200l-50 67l-50 -67h-200l150 200h200z" />
    <glyph glyph-name="ccircumflex" unicode="&#x109;" horiz-adv-x="750" 
d="M523 249h163c-16 -54 -45.333 -102.667 -88 -146c-68 -68.667 -150.333 -103 -247 -103c-97.333 -0 -180.166 34.333 -248.499 103s-102.5 151.334 -102.5 248.001s34.167 179 102.5 247s151.166 102 248.499 102c96.667 0 179 -34 247 -102
c44 -44 73.667 -93.667 89 -149h-162c-8.66699 15.333 -19.667 29.666 -33 42.999c-39.333 38.667 -86.666 58 -141.999 58s-102.5 -19.333 -141.5 -58s-58.5 -86 -58.5 -142c0 -55.333 19.5 -102.5 58.5 -141.5s86.167 -58.5 141.5 -58.5s102.666 19.667 141.999 59
c12 12 22.333 25.333 31 40zM444 1000l150 -200h-200l-50 67l-50 -67h-200l150 200h200z" />
    <glyph glyph-name="Cdotaccent" unicode="&#x10a;" horiz-adv-x="850" 
d="M750 150v-150h-750v1000h750v-150h-600v-700h600zM275 1100v200h200v-200h-200z" />
    <glyph glyph-name="cdotaccent" unicode="&#x10b;" horiz-adv-x="750" 
d="M523 249h163c-16 -54 -45.333 -102.667 -88 -146c-68 -68.667 -150.333 -103 -247 -103c-97.333 -0 -180.166 34.333 -248.499 103s-102.5 151.334 -102.5 248.001s34.167 179 102.5 247s151.166 102 248.499 102c96.667 0 179 -34 247 -102
c44 -44 73.667 -93.667 89 -149h-162c-8.66699 15.333 -19.667 29.666 -33 42.999c-39.333 38.667 -86.666 58 -141.999 58s-102.5 -19.333 -141.5 -58s-58.5 -86 -58.5 -142c0 -55.333 19.5 -102.5 58.5 -141.5s86.167 -58.5 141.5 -58.5s102.666 19.667 141.999 59
c12 12 22.333 25.333 31 40zM244 800v200h200v-200h-200z" />
    <glyph glyph-name="Ccaron" unicode="&#x10c;" horiz-adv-x="850" 
d="M750 150v-150h-750v1000h750v-150h-600v-700h600zM275 1100l-150 200h200l50 -67l50 67h200l-150 -200h-200z" />
    <glyph glyph-name="ccaron" unicode="&#x10d;" horiz-adv-x="750" 
d="M523 249h163c-16 -54 -45.333 -102.667 -88 -146c-68 -68.667 -150.333 -103 -247 -103c-97.333 -0 -180.166 34.333 -248.499 103s-102.5 151.334 -102.5 248.001s34.167 179 102.5 247s151.166 102 248.499 102c96.667 0 179 -34 247 -102
c44 -44 73.667 -93.667 89 -149h-162c-8.66699 15.333 -19.667 29.666 -33 42.999c-39.333 38.667 -86.666 58 -141.999 58s-102.5 -19.333 -141.5 -58s-58.5 -86 -58.5 -142c0 -55.333 19.5 -102.5 58.5 -141.5s86.167 -58.5 141.5 -58.5s102.666 19.667 141.999 59
c12 12 22.333 25.333 31 40zM244 800l-150 200h200l50 -67l50 67h200l-150 -200h-200z" />
    <glyph glyph-name="Dcaron" unicode="&#x10e;" horiz-adv-x="900" 
d="M718 1000c22.667 0 42 -8.00098 58 -24.001s24 -35.667 24 -59v-833c0 -23.333 -8 -43.166 -24 -59.499s-35.333 -24.5 -58 -24.5h-618v850h-100v150h718zM250 849.999v-700h400v700h-400zM300 1100l-150 200h200l50 -67l50 67h200l-150 -200h-200z" />
    <glyph glyph-name="dcaron" unicode="&#x10f;" horiz-adv-x="1000" 
d="M0 700h550v300h150v-1000h-700v700zM550 150v400h-400v-400h400zM850 850h-100v150h150v-350h-50v200z" />
    <glyph glyph-name="Dcroat" unicode="&#x110;" horiz-adv-x="900" 
d="M718 1000c22.667 0 42 -8.00098 58 -24.001s24 -35.667 24 -59v-833c0 -23.333 -8 -43.166 -24 -59.499s-35.333 -24.5 -58 -24.5h-618v850h-100v150h718zM250 849.999v-700h400v700h-400zM500 449.999h-600v100h600v-100z" />
    <glyph glyph-name="dcroat" unicode="&#x111;" 
d="M0 700h550v300h150v-1000h-700v700zM550 150v400h-400v-400h400zM900 800h-599l-1 100h599z" />
    <glyph glyph-name="Emacron" unicode="&#x112;" horiz-adv-x="700" 
d="M600 1000v-150h-450v-200h450v-150h-450v-350h450v-150h-600v1000h600zM25 1100v150h550v-150h-550z" />
    <glyph glyph-name="emacron" unicode="&#x113;" 
d="M536 425c-9.33301 24.667 -24.001 47 -44.001 67c-39.333 38.667 -86.666 58 -141.999 58s-102.333 -19.333 -141 -58c-20.667 -20 -35.667 -42.333 -45 -67h372zM677.999 225c-17.333 -44.667 -43.999 -85.333 -79.999 -122c-68 -68.667 -150.333 -103 -247 -103
c-97.333 -0 -180.166 34.333 -248.499 103s-102.5 151.334 -102.5 248.001s34.167 179 102.5 247s151.166 102 248.499 102c96.667 0 179 -34 247 -102s102 -150.333 102 -247c0 -26.667 -2.66699 -52 -8 -76h-528c9.33301 -24 24.333 -46 45 -66
c38.667 -39.333 85.667 -59 141 -59s102.666 19.667 141.999 59c5.33301 5.33301 10.333 10.666 15 15.999h171zM75 800.001v150h550v-150h-550z" />
    <glyph glyph-name="Ebreve" unicode="&#x114;" horiz-adv-x="700" 
d="M600 1000v-150h-450v-200h450v-150h-450v-350h450v-150h-600v1000h600zM175 1100l-100 100v150h150v-100h150v100h150v-150l-100 -100h-250z" />
    <glyph glyph-name="ebreve" unicode="&#x115;" 
d="M536 425c-9.33301 24.667 -24.001 47 -44.001 67c-39.333 38.667 -86.666 58 -141.999 58s-102.333 -19.333 -141 -58c-20.667 -20 -35.667 -42.333 -45 -67h372zM677.999 225c-17.333 -44.667 -43.999 -85.333 -79.999 -122c-68 -68.667 -150.333 -103 -247 -103
c-97.333 -0 -180.166 34.333 -248.499 103s-102.5 151.334 -102.5 248.001s34.167 179 102.5 247s151.166 102 248.499 102c96.667 0 179 -34 247 -102s102 -150.333 102 -247c0 -26.667 -2.66699 -52 -8 -76h-528c9.33301 -24 24.333 -46 45 -66
c38.667 -39.333 85.667 -59 141 -59s102.666 19.667 141.999 59c5.33301 5.33301 10.333 10.666 15 15.999h171zM225 800.001l-100 100v150h150v-100h150v100h150v-150l-100 -100h-250z" />
    <glyph glyph-name="Edotaccent" unicode="&#x116;" horiz-adv-x="700" 
d="M600 1000v-150h-450v-200h450v-150h-450v-350h450v-150h-600v1000h600zM200 1100v200h200v-200h-200z" />
    <glyph glyph-name="edotaccent" unicode="&#x117;" 
d="M536 425c-9.33301 24.667 -24.001 47 -44.001 67c-39.333 38.667 -86.666 58 -141.999 58s-102.333 -19.333 -141 -58c-20.667 -20 -35.667 -42.333 -45 -67h372zM677.999 225c-17.333 -44.667 -43.999 -85.333 -79.999 -122c-68 -68.667 -150.333 -103 -247 -103
c-97.333 -0 -180.166 34.333 -248.499 103s-102.5 151.334 -102.5 248.001s34.167 179 102.5 247s151.166 102 248.499 102c96.667 0 179 -34 247 -102s102 -150.333 102 -247c0 -26.667 -2.66699 -52 -8 -76h-528c9.33301 -24 24.333 -46 45 -66
c38.667 -39.333 85.667 -59 141 -59s102.666 19.667 141.999 59c5.33301 5.33301 10.333 10.666 15 15.999h171zM250 800.001v200h200v-200h-200z" />
    <glyph glyph-name="Eogonek" unicode="&#x118;" horiz-adv-x="700" 
d="M600 1000v-150h-450v-200h450v-150h-450v-350h450v-150h-600v1000h600zM370 -250h230v-150h-400v150l230 250h170z" />
    <glyph glyph-name="eogonek" unicode="&#x119;" 
d="M536 425c-9.33301 24.667 -24.001 47 -44.001 67c-39.333 38.667 -86.666 58 -141.999 58s-102.333 -19.333 -141 -58c-20.667 -20 -35.667 -42.333 -45 -67h372zM677.999 225c-17.333 -44.667 -43.999 -85.333 -79.999 -122c-68 -68.667 -150.333 -103 -247 -103
c-97.333 -0 -180.166 34.333 -248.499 103s-102.5 151.334 -102.5 248.001s34.167 179 102.5 247s151.166 102 248.499 102c96.667 0 179 -34 247 -102s102 -150.333 102 -247c0 -26.667 -2.66699 -52 -8 -76h-528c9.33301 -24 24.333 -46 45 -66
c38.667 -39.333 85.667 -59 141 -59s102.666 19.667 141.999 59c5.33301 5.33301 10.333 10.666 15 15.999h171zM220 -199.999h230v-150h-400v150l230 250h170z" />
    <glyph glyph-name="Ecaron" unicode="&#x11a;" horiz-adv-x="700" 
d="M600 1000v-150h-450v-200h450v-150h-450v-350h450v-150h-600v1000h600zM200 1100l-150 200h200l50 -67l50 67h200l-150 -200h-200z" />
    <glyph glyph-name="ecaron" unicode="&#x11b;" 
d="M536 425c-9.33301 24.667 -24.001 47 -44.001 67c-39.333 38.667 -86.666 58 -141.999 58s-102.333 -19.333 -141 -58c-20.667 -20 -35.667 -42.333 -45 -67h372zM677.999 225c-17.333 -44.667 -43.999 -85.333 -79.999 -122c-68 -68.667 -150.333 -103 -247 -103
c-97.333 -0 -180.166 34.333 -248.499 103s-102.5 151.334 -102.5 248.001s34.167 179 102.5 247s151.166 102 248.499 102c96.667 0 179 -34 247 -102s102 -150.333 102 -247c0 -26.667 -2.66699 -52 -8 -76h-528c9.33301 -24 24.333 -46 45 -66
c38.667 -39.333 85.667 -59 141 -59s102.666 19.667 141.999 59c5.33301 5.33301 10.333 10.666 15 15.999h171zM250 800.001l-150 200h200l50 -67l50 67h200l-150 -200h-200z" />
    <glyph glyph-name="Gcircumflex" unicode="&#x11c;" horiz-adv-x="850" 
d="M0 0v1000h750v-150h-600v-700h450v275h-250v150h400v-575h-750zM475 1300l150 -200h-200l-50 67l-50 -67h-200l150 200h200z" />
    <glyph glyph-name="gcircumflex" unicode="&#x11d;" 
d="M550 550h-400v-400h400v400zM550 0h-500c-14 -0 -25.833 4.83301 -35.5 14.5s-14.5 21.5 -14.5 35.5v600c-0 13.333 4.83301 25 14.5 35s21.5 15 35.5 15h650v-950c0 -14 -4.83301 -25.833 -14.5 -35.5s-21.5 -14.5 -35.5 -14.5h-650v150h550v150zM450 1000l150 -200
h-200l-50 67l-50 -67h-200l150 200h200z" />
    <glyph glyph-name="Gbreve" unicode="&#x11e;" horiz-adv-x="850" 
d="M0 0v1000h750v-150h-600v-700h450v275h-250v150h400v-575h-750zM250 1100l-100 100v150h150v-100h150v100h150v-150l-100 -100h-250z" />
    <glyph glyph-name="gbreve" unicode="&#x11f;" 
d="M550 550h-400v-400h400v400zM550 0h-500c-14 -0 -25.833 4.83301 -35.5 14.5s-14.5 21.5 -14.5 35.5v600c-0 13.333 4.83301 25 14.5 35s21.5 15 35.5 15h650v-950c0 -14 -4.83301 -25.833 -14.5 -35.5s-21.5 -14.5 -35.5 -14.5h-650v150h550v150zM225 800l-100 100v150
h150v-100h150v100h150v-150l-100 -100h-250z" />
    <glyph glyph-name="Gdotaccent" unicode="&#x120;" horiz-adv-x="850" 
d="M0 0v1000h750v-150h-600v-700h450v275h-250v150h400v-575h-750zM275 1100v200h200v-200h-200z" />
    <glyph glyph-name="gdotaccent" unicode="&#x121;" 
d="M550 550h-400v-400h400v400zM550 0h-500c-14 -0 -25.833 4.83301 -35.5 14.5s-14.5 21.5 -14.5 35.5v600c-0 13.333 4.83301 25 14.5 35s21.5 15 35.5 15h650v-950c0 -14 -4.83301 -25.833 -14.5 -35.5s-21.5 -14.5 -35.5 -14.5h-650v150h550v150zM250 800v200h200v-200
h-200z" />
    <glyph glyph-name="uni0122" unicode="&#x122;" horiz-adv-x="850" 
d="M0 0v1000h750v-150h-600v-700h450v275h-250v150h400v-575h-750zM392.001 -205h-70.001v105.002h105.002v-245.004h-35.001v140.002z" />
    <glyph glyph-name="uni0123" unicode="&#x123;" 
d="M550 550h-400v-400h400v400zM550 0h-500c-14 -0 -25.833 4.83301 -35.5 14.5s-14.5 21.5 -14.5 35.5v600c-0 13.333 4.83301 25 14.5 35s21.5 15 35.5 15h650v-950c0 -14 -4.83301 -25.833 -14.5 -35.5s-21.5 -14.5 -35.5 -14.5h-650v150h550v150zM333.001 815.009
h70.001v-105.001h-105.002v280.004h35.001v-175.003z" />
    <glyph glyph-name="Hcircumflex" unicode="&#x124;" horiz-adv-x="850" 
d="M600 1000h150v-1000h-150v425h-450v-425h-150v1000h150v-425h450v425zM475 1300l150 -200h-200l-50 67l-50 -67h-200l150 200h200z" />
    <glyph glyph-name="hcircumflex" unicode="&#x125;" horiz-adv-x="751" 
d="M0 1000h150v-300h500v-700h-150v550h-350v-550h-150v1000zM425 1300l150 -200h-200l-50 67l-50 -67h-200l150 200h200z" />
    <glyph glyph-name="Hbar" unicode="&#x126;" horiz-adv-x="850" 
d="M600 1000h150v-1000h-150v425h-450v-425h-150v1000h150v-425h450v425zM874 800h-1000v100h1000v-100z" />
    <glyph glyph-name="hbar" unicode="&#x127;" horiz-adv-x="751" 
d="M0 1000h150v-300h500v-700h-150v550h-350v-550h-150v1000zM400 800h-599l-1 100h599z" />
    <glyph glyph-name="Itilde" unicode="&#x128;" horiz-adv-x="699" 
d="M600 1000v-150h-225v-700h225v-150h-600v150h225v700h-225v150h600zM225 1200l-75 -100h-150l150 200h150l75 -100l75 100h150l-150 -200h-150z" />
    <glyph glyph-name="itilde" unicode="&#x129;" horiz-adv-x="250" 
d="M0 0v700h150v-700h-150zM0 900l-75 -100h-150l150 200h150l75 -100l75 100h150l-150 -200h-150z" />
    <glyph glyph-name="Imacron" unicode="&#x12a;" horiz-adv-x="699" 
d="M600 1000v-150h-225v-700h225v-150h-600v150h225v700h-225v150h600zM25 1100v150h550v-150h-550z" />
    <glyph glyph-name="imacron" unicode="&#x12b;" horiz-adv-x="250" 
d="M0 0v700h150v-700h-150zM-200 800v150h550v-150h-550z" />
    <glyph glyph-name="Ibreve" unicode="&#x12c;" horiz-adv-x="699" 
d="M600 1000v-150h-225v-700h225v-150h-600v150h225v700h-225v150h600zM175 1100l-100 100v150h150v-100h150v100h150v-150l-100 -100h-250z" />
    <glyph glyph-name="ibreve" unicode="&#x12d;" horiz-adv-x="250" 
d="M0 0v700h150v-700h-150zM-50 800l-100 100v150h150v-100h150v100h150v-150l-100 -100h-250z" />
    <glyph glyph-name="Iogonek" unicode="&#x12e;" horiz-adv-x="699" 
d="M600 1000v-150h-225v-700h225v-150h-600v150h225v700h-225v150h600zM370 -250h230v-150h-400v150l230 250h170z" />
    <glyph glyph-name="iogonek" unicode="&#x12f;" horiz-adv-x="250" 
d="M0 0v700h150v-700h-150zM0 850v150h150v-150h-150zM-80 -250h230v-150h-400v150l230 250h170z" />
    <glyph glyph-name="Idotaccent" unicode="&#x130;" horiz-adv-x="699" 
d="M600 1000v-150h-225v-700h225v-150h-600v150h225v700h-225v150h600zM200 1100v200h200v-200h-200z" />
    <glyph glyph-name="dotlessi" unicode="&#x131;" horiz-adv-x="250" 
d="M0 0v700h150v-700h-150z" />
    <glyph glyph-name="IJ" unicode="&#x132;" horiz-adv-x="1451" 
d="M375 850v-700h125v-150h-500v150h225v700h-225v150h1350v-150h-200v-850h-550v350h150v-200h250v700h-625z" />
    <glyph glyph-name="ij" unicode="&#x133;" horiz-adv-x="500" 
d="M0 0v700h150v-700h-150zM0 850v150h150v-150h-150zM250 850v150h150v-150h-150zM250 700h150v-1000h-200v150h50v850z" />
    <glyph glyph-name="Jcircumflex" unicode="&#x134;" horiz-adv-x="850" 
d="M150 150h250v700h-400v150h750v-150h-200v-850h-550v350h150v-200zM475 1300l150 -200h-200l-50 67l-50 -67h-200l150 200h200z" />
    <glyph glyph-name="jcircumflex" unicode="&#x135;" horiz-adv-x="250" 
d="M0 700h150v-1000h-200v150h50v850zM198 1000l150 -200h-200l-50 67l-50 -67h-200l150 200h200z" />
    <glyph glyph-name="uni0136" unicode="&#x136;" 
d="M150 436v-436h-150v1000h150v-429l432 429h217l-499 -500l499 -500h-217zM417.001 -205h-70.001v105.002h105.002v-245.004h-35.001v140.002z" />
    <glyph glyph-name="uni0137" unicode="&#x137;" horiz-adv-x="700" 
d="M150 286v-286h-150v1000h150v-579l272 279h214l-334 -350l334 -350h-214zM335.001 -205h-70.001v105.002h105.002v-245.004h-35.001v140.002z" />
    <glyph glyph-name="kgreenlandic" unicode="&#x138;" horiz-adv-x="700" 
d="M150 286v-286h-150v700h150v-279l272 279h214l-334 -350l334 -350h-214z" />
    <glyph glyph-name="Lacute" unicode="&#x139;" horiz-adv-x="600" 
d="M150 1000v-850h350v-150h-500v1000h150zM517 1300l-200 -200h-200l200 250z" />
    <glyph glyph-name="lacute" unicode="&#x13a;" horiz-adv-x="250" 
d="M0 0v1000h150v-1000h-150zM275 1435l-200 -200h-200l200 250z" />
    <glyph glyph-name="uni013B" unicode="&#x13b;" horiz-adv-x="600" 
d="M150 1000v-850h350v-150h-500v1000h150zM267.001 -205h-70.001v105.002h105.002v-245.004h-35.001v140.002z" />
    <glyph glyph-name="uni013C" unicode="&#x13c;" horiz-adv-x="250" 
d="M0 0v1000h150v-1000h-150zM92.001 -205h-70.001v105.002h105.002v-245.004h-35.001v140.002z" />
    <glyph glyph-name="Lcaron" unicode="&#x13d;" horiz-adv-x="600" 
d="M150 1000v-850h350v-150h-500v1000h150zM450 850h-100v150h150v-350h-50v200z" />
    <glyph glyph-name="lcaron" unicode="&#x13e;" horiz-adv-x="500" 
d="M0 0v1000h150v-1000h-150zM350 850h-100v150h150v-350h-50v200z" />
    <glyph glyph-name="Ldot" unicode="&#x13f;" horiz-adv-x="600" 
d="M150 1000v-850h350v-150h-500v1000h150zM300 400v200h200v-200h-200z" />
    <glyph glyph-name="ldot" unicode="&#x140;" horiz-adv-x="500" 
d="M0 0v1000h150v-1000h-150zM200 400v200h200v-200h-200z" />
    <glyph glyph-name="Lslash" unicode="&#x141;" horiz-adv-x="600" 
d="M150 1000v-850h350v-150h-500v1000h150zM300 500l-400 -100v100l400 100v-100z" />
    <glyph glyph-name="lslash" unicode="&#x142;" horiz-adv-x="250" 
d="M0 0v1000h150v-1000h-150zM300 500l-400 -100v100l400 100v-100z" />
    <glyph glyph-name="Nacute" unicode="&#x143;" horiz-adv-x="900" 
d="M150 723v-723h-150v1000h150l500 -723v723h150v-1000h-150zM667 1300l-200 -200h-200l200 250z" />
    <glyph glyph-name="nacute" unicode="&#x144;" horiz-adv-x="750" 
d="M150 550v-550h-150v700h600c14 0 25.833 -4.83301 35.5 -14.5s14.5 -21.5 14.5 -35.5v-650h-150v550h-350zM592 1000l-200 -200h-200l200 250z" />
    <glyph glyph-name="uni0145" unicode="&#x145;" horiz-adv-x="900" 
d="M150 723v-723h-150v1000h150l500 -723v723h150v-1000h-150zM417.001 -205h-70.001v105.002h105.002v-245.004h-35.001v140.002z" />
    <glyph glyph-name="uni0146" unicode="&#x146;" horiz-adv-x="750" 
d="M150 550v-550h-150v700h600c14 0 25.833 -4.83301 35.5 -14.5s14.5 -21.5 14.5 -35.5v-650h-150v550h-350zM342.001 -205h-70.001v105.002h105.002v-245.004h-35.001v140.002z" />
    <glyph glyph-name="Ncaron" unicode="&#x147;" horiz-adv-x="900" 
d="M150 723v-723h-150v1000h150l500 -723v723h150v-1000h-150zM300 1100l-150 200h200l50 -67l50 67h200l-150 -200h-200z" />
    <glyph glyph-name="ncaron" unicode="&#x148;" horiz-adv-x="750" 
d="M150 550v-550h-150v700h600c14 0 25.833 -4.83301 35.5 -14.5s14.5 -21.5 14.5 -35.5v-650h-150v550h-350zM225 800l-150 200h200l50 -67l50 67h200l-150 -200h-200z" />
    <glyph glyph-name="napostrophe" unicode="&#x149;" horiz-adv-x="1000" 
d="M400 550v-550h-150v700h600c14 0 25.833 -4.83301 35.5 -14.5s14.5 -21.5 14.5 -35.5v-650h-150v550h-350zM150 600h-150v400h150v-400z" />
    <glyph glyph-name="Eng" unicode="&#x14a;" horiz-adv-x="850" 
d="M600 150v700h-450v-850h-150v1000h700c14 0 25.833 -4.83301 35.5 -14.5s14.5 -21.5 14.5 -35.5v-900c0 -14 -4.83301 -25.833 -14.5 -35.5s-21.5 -14.5 -35.5 -14.5h-300v150h200z" />
    <glyph glyph-name="eng" unicode="&#x14b;" horiz-adv-x="750" 
d="M500 -150v700h-350v-550h-150v700h600c14 0 25.833 -4.83301 35.5 -14.5s14.5 -21.5 14.5 -35.5v-900c0 -14 -4.83301 -25.833 -14.5 -35.5s-21.5 -14.5 -35.5 -14.5h-300v150h200z" />
    <glyph glyph-name="Omacron" unicode="&#x14c;" horiz-adv-x="900" 
d="M0 1000h800v-1000h-800v1000zM150 850v-700h500v700h-500zM125 1100v150h550v-150h-550z" />
    <glyph glyph-name="omacron" unicode="&#x14d;" 
d="M351 0c-97.333 0 -180.166 34.333 -248.499 103s-102.5 151.334 -102.5 248.001s34.167 179 102.5 247s151.166 102 248.499 102c96.667 0 179 -34 247 -102s102 -150.333 102 -247s-34 -179.334 -102 -248.001s-150.333 -103 -247 -103zM491.5 208.5
c39 39 58.5 86.167 58.5 141.5c0 56 -19.5 103.333 -58.5 142s-86.167 58 -141.5 58s-102.5 -19.333 -141.5 -58s-58.5 -86 -58.5 -142c0 -55.333 19.5 -102.5 58.5 -141.5s86.167 -58.5 141.5 -58.5s102.5 19.5 141.5 58.5zM75 800v150h550v-150h-550z" />
    <glyph glyph-name="Obreve" unicode="&#x14e;" horiz-adv-x="900" 
d="M0 1000h800v-1000h-800v1000zM150 850v-700h500v700h-500zM275 1100l-100 100v150h150v-100h150v100h150v-150l-100 -100h-250z" />
    <glyph glyph-name="obreve" unicode="&#x14f;" 
d="M351 0c-97.333 0 -180.166 34.333 -248.499 103s-102.5 151.334 -102.5 248.001s34.167 179 102.5 247s151.166 102 248.499 102c96.667 0 179 -34 247 -102s102 -150.333 102 -247s-34 -179.334 -102 -248.001s-150.333 -103 -247 -103zM491.5 208.5
c39 39 58.5 86.167 58.5 141.5c0 56 -19.5 103.333 -58.5 142s-86.167 58 -141.5 58s-102.5 -19.333 -141.5 -58s-58.5 -86 -58.5 -142c0 -55.333 19.5 -102.5 58.5 -141.5s86.167 -58.5 141.5 -58.5s102.5 19.5 141.5 58.5zM225 800l-100 100v150h150v-100h150v100h150
v-150l-100 -100h-250z" />
    <glyph glyph-name="Ohungarumlaut" unicode="&#x150;" horiz-adv-x="900" 
d="M0 1000h800v-1000h-800v1000zM150 850v-700h500v700h-500zM450 1300l-200 -200h-200l200 250zM750 1300l-200 -200h-200l200 250z" />
    <glyph glyph-name="ohungarumlaut" unicode="&#x151;" 
d="M351 0c-97.333 0 -180.166 34.333 -248.499 103s-102.5 151.334 -102.5 248.001s34.167 179 102.5 247s151.166 102 248.499 102c96.667 0 179 -34 247 -102s102 -150.333 102 -247s-34 -179.334 -102 -248.001s-150.333 -103 -247 -103zM491.5 208.5
c39 39 58.5 86.167 58.5 141.5c0 56 -19.5 103.333 -58.5 142s-86.167 58 -141.5 58s-102.5 -19.333 -141.5 -58s-58.5 -86 -58.5 -142c0 -55.333 19.5 -102.5 58.5 -141.5s86.167 -58.5 141.5 -58.5s102.5 19.5 141.5 58.5zM400 1000l-200 -200h-200l200 250zM700 1000
l-200 -200h-200l200 250z" />
    <glyph glyph-name="OE" unicode="&#x152;" horiz-adv-x="1100" 
d="M500 150v700h-350v-700h350zM1000 1000v-150h-350v-200h350v-150h-350v-350h350v-150h-1000v1000h1000z" />
    <glyph glyph-name="oe" unicode="&#x153;" horiz-adv-x="1349" 
d="M550 350c0 56 -19.5 103.333 -58.5 142s-86.167 58 -141.5 58s-102.5 -19.333 -141.5 -58s-58.5 -86 -58.5 -142c0 -55.333 19.5 -102.5 58.5 -141.5s86.167 -58.5 141.5 -58.5s102.5 19.5 141.5 58.5s58.5 86.167 58.5 141.5zM1086 425
c-9.33301 24.667 -24.001 47 -44.001 67c-39.333 38.667 -86.666 58 -141.999 58s-102.333 -19.333 -141 -58c-20.667 -20 -35.667 -42.333 -45 -67h372zM624.999 133c-8 -10 -16.999 -19.999 -26.999 -29.999c-68 -68.667 -150.333 -103 -247 -103
c-97.333 0 -180.166 34.333 -248.499 103s-102.5 151.334 -102.5 248.001s34.167 179 102.5 247s151.166 102 248.499 102c96.667 0 179 -34 247 -102c10 -10 19 -20 27 -30c8.66699 10 18 20 28 30c68 68 150.667 102 248 102c96.667 0 179 -34 247 -102
s102 -150.333 102 -247c0 -26.667 -2.66699 -52 -8 -76h-528c9.33301 -24 24.333 -46 45 -66c38.667 -39.333 85.667 -59 141 -59s102.666 19.667 141.999 59c5.33301 5.33301 10.333 10.666 15 15.999h171c-17.333 -44.667 -44 -85.334 -80 -122.001
c-68 -68.667 -150.333 -103 -247 -103c-97.333 -0 -180 34.333 -248 103c-10 10 -19.333 20 -28 30z" />
    <glyph glyph-name="Racute" unicode="&#x154;" horiz-adv-x="900" 
d="M250 850v-275h400v275h-400zM347 425h-97v-425h-150v850h-100v150h800v-575h-257l304 -425h-196zM690 1300l-200 -200h-200l200 250z" />
    <glyph glyph-name="racute" unicode="&#x155;" horiz-adv-x="700" 
d="M150 550v-550h-150v700h550c14 0 25.833 -4.83301 35.5 -14.5s14.5 -21.5 14.5 -35.5v-300h-150v200h-300zM567 1000l-200 -200h-200l200 250z" />
    <glyph glyph-name="uni0156" unicode="&#x156;" horiz-adv-x="900" 
d="M250 850v-275h400v275h-400zM347 425h-97v-425h-150v850h-100v150h800v-575h-257l304 -425h-196zM441.001 -205h-70.001v105.002h105.002v-245.004h-35.001v140.002z" />
    <glyph glyph-name="uni0157" unicode="&#x157;" horiz-adv-x="700" 
d="M150 550v-550h-150v700h550c14 0 25.833 -4.83301 35.5 -14.5s14.5 -21.5 14.5 -35.5v-300h-150v200h-300zM317.001 -205h-70.001v105.002h105.002v-245.004h-35.001v140.002z" />
    <glyph glyph-name="Rcaron" unicode="&#x158;" horiz-adv-x="900" 
d="M250 850v-275h400v275h-400zM347 425h-97v-425h-150v850h-100v150h800v-575h-257l304 -425h-196zM324 1100l-150 200h200l50 -67l50 67h200l-150 -200h-200z" />
    <glyph glyph-name="rcaron" unicode="&#x159;" horiz-adv-x="700" 
d="M150 550v-550h-150v700h550c14 0 25.833 -4.83301 35.5 -14.5s14.5 -21.5 14.5 -35.5v-300h-150v200h-300zM200 800l-150 200h200l50 -67l50 67h200l-150 -200h-200z" />
    <glyph glyph-name="Sacute" unicode="&#x15a;" horiz-adv-x="850" 
d="M750 150v-150h-750v150h552l-552 700v150h750v-150h-553zM642 1300l-200 -200h-200l200 250z" />
    <glyph glyph-name="sacute" unicode="&#x15b;" horiz-adv-x="650" 
d="M550 150v-150h-550v150h353l-353 400v150h550v-150h-342zM542 1000l-200 -200h-200l200 250z" />
    <glyph glyph-name="Scircumflex" unicode="&#x15c;" horiz-adv-x="850" 
d="M750 150v-150h-750v150h552l-552 700v150h750v-150h-553zM475 1300l150 -200h-200l-50 67l-50 -67h-200l150 200h200z" />
    <glyph glyph-name="scircumflex" unicode="&#x15d;" horiz-adv-x="650" 
d="M550 150v-150h-550v150h353l-353 400v150h550v-150h-342zM375 1000l150 -200h-200l-50 67l-50 -67h-200l150 200h200z" />
    <glyph glyph-name="Scedilla" unicode="&#x15e;" horiz-adv-x="850" 
d="M750 150v-150h-750v150h552l-552 700v150h750v-150h-553zM225 -400v100h200v100h-200v250h100v-150h200v-300h-300z" />
    <glyph glyph-name="scedilla" unicode="&#x15f;" horiz-adv-x="650" 
d="M550 150v-150h-550v150h353l-353 400v150h550v-150h-342zM125 -400v100h200v100h-200v250h100v-150h200v-300h-300z" />
    <glyph glyph-name="Scaron" unicode="&#x160;" horiz-adv-x="850" 
d="M750 150v-150h-750v150h552l-552 700v150h750v-150h-553zM275 1100l-150 200h200l50 -67l50 67h200l-150 -200h-200z" />
    <glyph glyph-name="scaron" unicode="&#x161;" horiz-adv-x="650" 
d="M550 150v-150h-550v150h353l-353 400v150h550v-150h-342zM175 800l-150 200h200l50 -67l50 67h200l-150 -200h-200z" />
    <glyph glyph-name="uni0162" unicode="&#x162;" horiz-adv-x="900" 
d="M475 850v-850h-150v850h-375v150h900v-150h-375zM350 -400v100h200v100h-200v250h100v-150h200v-300h-300z" />
    <glyph glyph-name="uni0163" unicode="&#x163;" horiz-adv-x="550" 
d="M250 550v-400h200v-150h-350v550h-100v150h100v100l150 200v-300h200v-150h-200zM100 -400v100h200v100h-200v250h100v-150h200v-300h-300z" />
    <glyph glyph-name="Tcaron" unicode="&#x164;" horiz-adv-x="900" 
d="M475 850v-850h-150v850h-375v150h900v-150h-375zM300 1100l-150 200h200l50 -67l50 67h200l-150 -200h-200z" />
    <glyph glyph-name="tcaron" unicode="&#x165;" horiz-adv-x="700" 
d="M250 550v-400h200v-150h-350v550h-100v150h100v100l150 200v-300h200v-150h-200zM551 851h-100v150h150v-350h-50v200z" />
    <glyph glyph-name="Tbar" unicode="&#x166;" horiz-adv-x="900" 
d="M475 850v-850h-150v850h-375v150h900v-150h-375zM700 400h-599l-1 100h599z" />
    <glyph glyph-name="tbar" unicode="&#x167;" horiz-adv-x="550" 
d="M250 550v-400h200v-150h-350v550h-100v150h100v100l150 200v-300h200v-150h-200zM525 275h-600v100h600v-100z" />
    <glyph glyph-name="Utilde" unicode="&#x168;" horiz-adv-x="851" 
d="M150 150h450v850h150v-1000h-750v1000h150v-850zM300 1200l-75 -100h-150l150 200h150l75 -100l75 100h150l-150 -200h-150z" />
    <glyph glyph-name="utilde" unicode="&#x169;" horiz-adv-x="750" 
d="M500 150v550h150v-700h-600c-14 -0 -25.833 4.83301 -35.5 14.5s-14.5 21.5 -14.5 35.5v650h150v-550h350zM250 900l-75 -100h-150l150 200h150l75 -100l75 100h150l-150 -200h-150z" />
    <glyph glyph-name="Umacron" unicode="&#x16a;" horiz-adv-x="851" 
d="M150 150h450v850h150v-1000h-750v1000h150v-850zM100 1100v150h550v-150h-550z" />
    <glyph glyph-name="umacron" unicode="&#x16b;" horiz-adv-x="750" 
d="M500 150v550h150v-700h-600c-14 -0 -25.833 4.83301 -35.5 14.5s-14.5 21.5 -14.5 35.5v650h150v-550h350zM50 800v150h550v-150h-550z" />
    <glyph glyph-name="Ubreve" unicode="&#x16c;" horiz-adv-x="851" 
d="M150 150h450v850h150v-1000h-750v1000h150v-850zM250 1100l-100 100v150h150v-100h150v100h150v-150l-100 -100h-250z" />
    <glyph glyph-name="ubreve" unicode="&#x16d;" horiz-adv-x="750" 
d="M500 150v550h150v-700h-600c-14 -0 -25.833 4.83301 -35.5 14.5s-14.5 21.5 -14.5 35.5v650h150v-550h350zM200 800l-100 100v150h150v-100h150v100h150v-150l-100 -100h-250z" />
    <glyph glyph-name="Uring" unicode="&#x16e;" horiz-adv-x="851" 
d="M150 150h450v850h150v-1000h-750v1000h150v-850zM375 1100c-27.333 0 -50.833 9.83301 -70.5 29.5s-29.5 43.167 -29.5 70.5c0 28 9.83301 51.667 29.5 71s43.167 29 70.5 29c28 0 51.667 -9.66699 71 -29s29 -43 29 -71c0 -27.333 -9.66699 -50.833 -29 -70.5
s-43 -29.5 -71 -29.5zM405.5 1169.5c8.33301 8.33301 12.5 18.5 12.5 30.5s-4.16699 22.167 -12.5 30.5s-18.5 12.5 -30.5 12.5s-22.167 -4.16699 -30.5 -12.5s-12.5 -18.5 -12.5 -30.5s4.16699 -22.167 12.5 -30.5s18.5 -12.5 30.5 -12.5s22.167 4.16699 30.5 12.5z" />
    <glyph glyph-name="uring" unicode="&#x16f;" horiz-adv-x="750" 
d="M500 150v550h150v-700h-600c-14 -0 -25.833 4.83301 -35.5 14.5s-14.5 21.5 -14.5 35.5v650h150v-550h350zM325 800c-27.333 0 -50.833 9.83301 -70.5 29.5s-29.5 43.167 -29.5 70.5c0 28 9.83301 51.667 29.5 71s43.167 29 70.5 29c28 0 51.667 -9.66699 71 -29
s29 -43 29 -71c0 -27.333 -9.66699 -50.833 -29 -70.5s-43 -29.5 -71 -29.5zM355.5 869.5c8.33301 8.33301 12.5 18.5 12.5 30.5s-4.16699 22.167 -12.5 30.5s-18.5 12.5 -30.5 12.5s-22.167 -4.16699 -30.5 -12.5s-12.5 -18.5 -12.5 -30.5s4.16699 -22.167 12.5 -30.5
s18.5 -12.5 30.5 -12.5s22.167 4.16699 30.5 12.5z" />
    <glyph glyph-name="Uhungarumlaut" unicode="&#x170;" horiz-adv-x="851" 
d="M150 150h450v850h150v-1000h-750v1000h150v-850zM500 1300l-200 -200h-200l200 250zM800 1300l-200 -200h-200l200 250z" />
    <glyph glyph-name="uhungarumlaut" unicode="&#x171;" horiz-adv-x="750" 
d="M500 150v550h150v-700h-600c-14 -0 -25.833 4.83301 -35.5 14.5s-14.5 21.5 -14.5 35.5v650h150v-550h350zM450 1000l-200 -200h-200l200 250zM750 1000l-200 -200h-200l200 250z" />
    <glyph glyph-name="Uogonek" unicode="&#x172;" horiz-adv-x="851" 
d="M150 150h450v850h150v-1000h-750v1000h150v-850zM520 -250h230v-150h-400v150l230 250h170z" />
    <glyph glyph-name="uogonek" unicode="&#x173;" horiz-adv-x="750" 
d="M500 150v550h150v-700h-600c-14 -0 -25.833 4.83301 -35.5 14.5s-14.5 21.5 -14.5 35.5v650h150v-550h350zM420 -250h230v-150h-400v150l230 250h170z" />
    <glyph glyph-name="Wcircumflex" unicode="&#x174;" horiz-adv-x="1350" 
d="M248 0l-298 1000h160l218 -731l217 731h160l217 -731l218 731h160l-298 -1000h-160l-217 731l-217 -731h-160zM713 1300l150 -200h-200l-50 67l-50 -67h-200l150 200h200z" />
    <glyph glyph-name="wcircumflex" unicode="&#x175;" horiz-adv-x="1050" 
d="M178 0l-228 700h160l143 -459l142 459h160l142 -459l143 459h160l-228 -700h-150l-147 453l-147 -453h-150zM590 1000l150 -200h-200l-50 67l-50 -67h-200l150 200h200z" />
    <glyph glyph-name="Ycircumflex" unicode="&#x176;" horiz-adv-x="899" 
d="M325 325l-375 675h175l275 -493l275 493h175l-375 -675v-325h-150v325zM500 1300l150 -200h-200l-50 67l-50 -67h-200l150 200h200z" />
    <glyph glyph-name="ycircumflex" unicode="&#x177;" 
d="M304 -300h-183l136 307l-306 693h183l214 -485l214 485h183zM448 1000l150 -200h-200l-50 67l-50 -67h-200l150 200h200z" />
    <glyph glyph-name="Ydieresis" unicode="&#x178;" horiz-adv-x="899" 
d="M325 325l-375 675h175l275 -493l275 493h175l-375 -675v-325h-150v325zM300 1150h-150v150h150v-150zM650 1150h-150v150h150v-150z" />
    <glyph glyph-name="Zacute" unicode="&#x179;" horiz-adv-x="851" 
d="M150 850v-150h-150v300h750l-517 -850h367v150h150v-300h-786l518 850h-332zM624 1300l-200 -200h-200l200 250z" />
    <glyph glyph-name="zacute" unicode="&#x17a;" horiz-adv-x="699" 
d="M150 550v-150h-150v300h601l-358 -550h207v150h150v-300h-636l358 550h-172zM549 1000l-200 -200h-200l200 250z" />
    <glyph glyph-name="Zdotaccent" unicode="&#x17b;" horiz-adv-x="851" 
d="M150 850v-150h-150v300h750l-517 -850h367v150h150v-300h-786l518 850h-332zM257 1100v200h200v-200h-200z" />
    <glyph glyph-name="zdotaccent" unicode="&#x17c;" horiz-adv-x="699" 
d="M150 550v-150h-150v300h601l-358 -550h207v150h150v-300h-636l358 550h-172zM183 800v200h200v-200h-200z" />
    <glyph glyph-name="Zcaron" unicode="&#x17d;" horiz-adv-x="851" 
d="M150 850v-150h-150v300h750l-517 -850h367v150h150v-300h-786l518 850h-332zM257 1100l-150 200h200l50 -67l50 67h200l-150 -200h-200z" />
    <glyph glyph-name="zcaron" unicode="&#x17e;" horiz-adv-x="699" 
d="M150 550v-150h-150v300h601l-358 -550h207v150h150v-300h-636l358 550h-172zM183 800l-150 200h200l50 -67l50 67h200l-150 -200h-200z" />
    <glyph glyph-name="longs" unicode="&#x17f;" horiz-adv-x="600" 
d="M0 -150v1150h500v-350h-150v200h-200v-1150h-250v150h100z" />
    <glyph glyph-name="uni0180" unicode="&#x180;" 
d="M0 350l-0.000976562 650.001h150v-650c0 -55.333 19.5 -102.5 58.5 -141.5s86.167 -58.5 141.5 -58.5s102.5 19.5 141.5 58.5s58.5 86.167 58.5 141.5c0 56 -19.5 103.333 -58.5 142s-86.167 58 -141.5 58l1 150c96.667 0 179 -34 247 -102s102 -150.333 102 -247
s-34 -179.334 -102 -248.001s-150.333 -103 -247 -103c-97.333 -0 -180.166 34.333 -248.499 103s-102.5 151 -102.5 247zM399.999 800.001h-600v100h600v-100z" />
    <glyph glyph-name="uni0181" unicode="&#x181;" horiz-adv-x="1150" 
d="M900 150v275h-450v-275h450zM900 850h-450v-275h450v275zM1050 1000v-1000h-750v850h-150v-150h-150v200l100 100h950z" />
    <glyph glyph-name="uni0182" unicode="&#x182;" horiz-adv-x="851" 
d="M150 150h450v275h-450v-275zM700 575c14 0 25.833 -4.83301 35.5 -14.5s14.5 -21.5 14.5 -35.5v-475c0 -14 -4.83301 -25.833 -14.5 -35.5s-21.5 -14.5 -35.5 -14.5h-700v1000h750v-150h-600v-275h550z" />
    <glyph glyph-name="uni0183" unicode="&#x183;" 
d="M150 150h400v400h-400v-400zM0 0v1000h700v-150h-550v-150h550v-700h-700z" />
    <glyph glyph-name="uni0184" unicode="&#x184;" horiz-adv-x="950" 
d="M700 150v300h-450v-300h450zM100 1000h150v-400h600v-600h-750v800l-100 100z" />
    <glyph glyph-name="uni0185" unicode="&#x185;" horiz-adv-x="900" 
d="M100 1000h150v-440l-150 -210v450l-100 100zM451 0c-97.333 0 -180.166 34.333 -248.499 103s-102.5 151.334 -102.5 248.001s34.167 179 102.5 247s151.166 102 248.499 102c96.667 0 179 -34 247 -102s102 -150.333 102 -247s-34 -179.334 -102 -248.001
s-150.333 -103 -247 -103zM591.5 208.5c39 39 58.5 86.167 58.5 141.5c0 56 -19.5 103.333 -58.5 142s-86.167 58 -141.5 58s-102.5 -19.333 -141.5 -58s-58.5 -86 -58.5 -142c0 -55.333 19.5 -102.5 58.5 -141.5s86.167 -58.5 141.5 -58.5s102.5 19.5 141.5 58.5z" />
    <glyph glyph-name="uni0186" unicode="&#x186;" horiz-adv-x="850" 
d="M0 850v150h750v-1000h-750v150h600v700h-600z" />
    <glyph glyph-name="uni0187" unicode="&#x187;" horiz-adv-x="850" 
d="M750 150v-150h-750v1000h600v300h249v-150h-99v-300h-600v-700h600z" />
    <glyph glyph-name="uni0188" unicode="&#x188;" horiz-adv-x="750" 
d="M525 449c-8.66699 15.333 -19.667 29.666 -33 42.999c-39.333 38.667 -86.666 58 -141.999 58s-102.5 -19.333 -141.5 -58s-58.5 -86 -58.5 -142c0 -55.333 19.5 -102.5 58.5 -141.5s86.167 -58.5 141.5 -58.5s102.666 19.667 141.999 59c12 12 22.333 25.333 31 40h163
c-16 -54 -45.333 -102.667 -88 -146c-68 -68.667 -150.333 -103 -247 -103c-97.333 0 -180.166 34.333 -248.499 103s-102.5 151.334 -102.5 248.001s34.167 179 102.5 247s151.166 102 248.499 102c69.333 0 131.333 -17.667 186 -53v353h249v-150h-99v-401h-162z" />
    <glyph glyph-name="uni0189" unicode="&#x189;" horiz-adv-x="900" 
d="M718 1000c22.667 0 42 -8.00098 58 -24.001s24 -35.667 24 -59v-833c0 -23.333 -8 -43.166 -24 -59.499s-35.333 -24.5 -58 -24.5h-618v850h-100v150h718zM250 849.999v-700h400v700h-400zM500 449.999h-600v100h600v-100z" />
    <glyph glyph-name="uni018A" unicode="&#x18a;" horiz-adv-x="1100" 
d="M450 850v-700h400v700h-400zM100 1000l818 -0.000976562c22.667 0 42 -8 58 -24s24 -35.667 24 -59v-833c0 -23.333 -8 -43.166 -24 -59.499s-35.333 -24.5 -58 -24.5h-618v850h-150v-150h-150v200z" />
    <glyph glyph-name="uni018B" unicode="&#x18b;" horiz-adv-x="850" 
d="M600 150h-450v275h450v-275zM50 575c-14 0 -25.833 -4.83301 -35.5 -14.5s-14.5 -21.5 -14.5 -35.5v-475c-0 -14 4.83301 -25.833 14.5 -35.5s21.5 -14.5 35.5 -14.5h700v1000h-750v-150h600v-275h-550z" />
    <glyph glyph-name="uni018C" unicode="&#x18c;" 
d="M550 150h-400v400h400v-400zM700 0v1000h-700v-150h550v-150h-550v-700h700z" />
    <glyph glyph-name="uni018D" unicode="&#x18d;" 
d="M150 550v-400h400v400h-400zM350 -150l-350 150v700h700v-700h-350l350 -150v-150h-700v150h350z" />
    <glyph glyph-name="uni018E" unicode="&#x18e;" horiz-adv-x="700" 
d="M0 1000v-150h450v-200h-450v-150h450v-350h-450v-150h600v1000h-600z" />
    <glyph glyph-name="uni018F" unicode="&#x18f;" horiz-adv-x="850" 
d="M750 1000v-1000h-750v575h600v275h-450v-150h-150v300h750zM600 425h-450v-275h450v275z" />
    <glyph glyph-name="uni0190" unicode="&#x190;" horiz-adv-x="700" 
d="M600 700h-150v150h-300v-275h250v-150h-250v-275h300v150h150v-300h-600v425l74 75l-74 75v425h600v-300z" />
    <glyph glyph-name="uni0191" unicode="&#x191;" horiz-adv-x="750" 
d="M100 -149v649h-100v151h100v199h-100v150h650v-150h-400v-199h400v-151h-400v-700l-100 -100h-150v151h100z" />
    <glyph glyph-name="florin" unicode="&#x192;" horiz-adv-x="502" 
d="M24 -150l123 700h-50l26 150h50l53 300h300l-26 -150h-150l-27 -150h150l-26 -150h-150l-132 -750l-118 -100h-150l27 150h100z" />
    <glyph glyph-name="uni0193" unicode="&#x193;" horiz-adv-x="950" 
d="M750 850h-600v-700h450v275h-250v150h400v-575h-750v1000h600v200l100 100h150v-150h-100v-300z" />
    <glyph glyph-name="uni0194" unicode="&#x194;" horiz-adv-x="900" 
d="M507 -150l-107 221l-107 -221h214zM50 -300l265 547l-365 753h170l280 -578l280 578h170l-365 -753l265 -547h-700z" />
    <glyph glyph-name="uni0195" unicode="&#x195;" horiz-adv-x="1100" 
d="M425 550h-275v-550h-150v1000h150v-300h425v-550h275v550h150v-700h-575v550z" />
    <glyph glyph-name="uni0196" unicode="&#x196;" horiz-adv-x="450" 
d="M250 150h100v-150h-250v850h-100l100 150h150v-850z" />
    <glyph glyph-name="uni0197" unicode="&#x197;" horiz-adv-x="699" 
d="M600 1000v-150h-225v-700h225v-150h-600v150h225v700h-225v150h600zM600 450h-600v100h600v-100z" />
    <glyph glyph-name="uni0198" unicode="&#x198;" 
d="M150 850v-279l432 429h217l-499 -500l499 -500h-217l-432 436v-436h-150v900l100 100h200v-150h-150z" />
    <glyph glyph-name="uni0199" unicode="&#x199;" horiz-adv-x="700" 
d="M150 850v-429l272 279h214l-334 -350l334 -350h-214l-272 286v-286h-150v900l100 100h200v-150h-150z" />
    <glyph glyph-name="uni019A" unicode="&#x19a;" horiz-adv-x="250" 
d="M0 0v1000h150v-1000h-150zM401 450h-599l-1 100h599z" />
    <glyph glyph-name="uni019B" unicode="&#x19b;" 
d="M304 1000l441 -1000h-183l-214 485l-214 -485h-183l306 693l-136 307h183zM600 799h-600v100h600v-100z" />
    <glyph glyph-name="uni019C" unicode="&#x19c;" horiz-adv-x="1100" 
d="M575 150h275v850h150v-1000h-950c-14 -0 -25.833 4.83301 -35.5 14.5s-14.5 21.5 -14.5 35.5v950h150v-850h275v850h150v-850z" />
    <glyph glyph-name="uni019D" unicode="&#x19d;" horiz-adv-x="900" 
d="M0 -150v1150h150l500 -723v723h150v-1000h-150l-500 723v-923l-100 -100h-150v150h100z" />
    <glyph glyph-name="uni019E" unicode="&#x19e;" horiz-adv-x="750" 
d="M150 550v-550h-150v700h600c14 0 25.833 -4.83301 35.5 -14.5s14.5 -21.5 14.5 -35.5v-950h-150v850h-350z" />
    <glyph glyph-name="uni019F" unicode="&#x19f;" horiz-adv-x="900" 
d="M0 1000h800v-1000h-800v1000zM151 850v-700h500v700h-500zM500 450h-200v100h200v-100z" />
    <glyph glyph-name="Ohorn" unicode="&#x1a0;" horiz-adv-x="900" 
d="M0 1000h800v-1000h-800v1000zM150 850v-700h500v700h-500zM1050 650v200h-100v150h150v-400h-300v50h250z" />
    <glyph glyph-name="ohorn" unicode="&#x1a1;" 
d="M351 0c-97.333 0 -180.166 34.333 -248.499 103s-102.5 151.334 -102.5 248.001s34.167 179 102.5 247s151.166 102 248.499 102c96.667 0 179 -34 247 -102s102 -150.333 102 -247s-34 -179.334 -102 -248.001s-150.333 -103 -247 -103zM491.5 208.5
c39 39 58.5 86.167 58.5 141.5c0 56 -19.5 103.333 -58.5 142s-86.167 58 -141.5 58s-102.5 -19.333 -141.5 -58s-58.5 -86 -58.5 -142c0 -55.333 19.5 -102.5 58.5 -141.5s86.167 -58.5 141.5 -58.5s102.5 19.5 141.5 58.5zM700 550v200h-100v150h150v-400h-300v50h250z
" />
    <glyph glyph-name="uni01A2" unicode="&#x1a2;" horiz-adv-x="1200" 
d="M650 850h-500v-700h500v700zM950 850l-150 0.000976562v-850h-718c-22.667 0 -42 8.16699 -58 24.5s-24 36.166 -24 59.499v833c0 23.333 8 43 24 59s35.333 24 58 24h1018v-1300h-150v1150z" />
    <glyph glyph-name="uni01A3" unicode="&#x1a3;" horiz-adv-x="1100" 
d="M550 550h-400v-400h400v400zM850 550l-150 0.000976562v-550h-618c-22.667 0 -42 8.16699 -58 24.5s-24 36.166 -24 59.499v533c0 23.333 8 43 24 59s35.333 24 58 24h918v-1000h-150v850z" />
    <glyph glyph-name="uni01A4" unicode="&#x1a4;" horiz-adv-x="1100" 
d="M450 850v-275h400v275h-400zM100 1000h900v-575h-550v-425h-150v850h-150v-150h-150v200z" />
    <glyph glyph-name="uni01A5" unicode="&#x1a5;" 
d="M150 550v-400h400v400h-400zM150 0v-300h-150v1200l100 100h200v-150h-150v-150h550v-700h-550z" />
    <glyph glyph-name="uni01A6" unicode="&#x1a6;" 
d="M150 550v-275h400v275h-400zM247 125h-97v-125h-150v1000h150v-300h550v-575h-257l304 -425h-196z" />
    <glyph glyph-name="uni01A7" unicode="&#x1a7;" horiz-adv-x="850" 
d="M0 150v-150h750v150h-552l552 700v150h-750v-150h553z" />
    <glyph glyph-name="uni01A8" unicode="&#x1a8;" horiz-adv-x="650" 
d="M0 150v-150h550v150h-353l353 400v150h-550v-150h342z" />
    <glyph glyph-name="uni01A9" unicode="&#x1a9;" horiz-adv-x="851" 
d="M386 500l-486 500h850v-300h-150v150h-352l352 -350l-352 -350h352v150h150v-300h-850z" />
    <glyph glyph-name="uni01AA" unicode="&#x1aa;" horiz-adv-x="400" 
d="M220.5 779.5c19.667 19.667 29.5 43.167 29.5 70.5c0 28 -9.83301 51.667 -29.5 71s-43.167 29 -70.5 29s-50.833 -9.66699 -70.5 -29s-29.5 -43 -29.5 -71c0 -27.333 9.83301 -50.833 29.5 -70.5s43.167 -29.5 70.5 -29.5s50.833 9.83301 70.5 29.5zM300 -150h99.999
v-150h-250v1000c-41.333 0 -76.666 14.667 -105.999 44s-44 65 -44 107c0 41.333 14.667 76.5 44 105.5s65 43.5 107 43.5c41.333 0 76.5 -14.5 105.5 -43.5s43.5 -64.167 43.5 -105.5v-1001z" />
    <glyph glyph-name="uni01AB" unicode="&#x1ab;" horiz-adv-x="550" 
d="M250 550v-400h200v-150h-350v550h-100v150h100v100l150 200v-300h200v-150h-200zM450 -200l-100 -100h-200v150h150v250h150v-300z" />
    <glyph glyph-name="uni01AC" unicode="&#x1ac;" horiz-adv-x="900" 
d="M-50 900l100 100h800v-150h-375v-850h-150v850h-225v-250h-150v300z" />
    <glyph glyph-name="uni01AD" unicode="&#x1ad;" horiz-adv-x="550" 
d="M100 1000h300v-150h-150v-150h200v-150h-200v-400h200v-150h-350v550h-100v150h100v300z" />
    <glyph glyph-name="uni01AE" unicode="&#x1ae;" horiz-adv-x="900" 
d="M325 -200v1050h-375v150h900v-150h-375v-1000h175v-150h-225z" />
    <glyph glyph-name="Uhorn" unicode="&#x1af;" horiz-adv-x="851" 
d="M150 150h450v850h150v-1000h-750v1000h150v-850zM950 650v200h-100v150h150v-400h-300v50h250z" />
    <glyph glyph-name="uhorn" unicode="&#x1b0;" horiz-adv-x="750" 
d="M500 150v550h150v-700h-600c-14 -0 -25.833 4.83301 -35.5 14.5s-14.5 21.5 -14.5 35.5v650h150v-550h350zM850 550v200h-100v150h150v-400h-300v50h250z" />
    <glyph glyph-name="uni01B1" unicode="&#x1b1;" horiz-adv-x="1000" 
d="M350 850l-200 -390v-310h600v310l-200 390v150h350v-150h-180l180 -350v-500h-900v500l180 350h-180v150h350v-150z" />
    <glyph glyph-name="uni01B2" unicode="&#x1b2;" 
d="M0 300v700h150v-630l200 -190l200 190v480h-150v150h200l100 -100v-600l-350 -350z" />
    <glyph glyph-name="uni01B3" unicode="&#x1b3;" horiz-adv-x="1000" 
d="M767 850l-292 -525v-325h-150v325l-375 675h175l275 -493l275 493h225v-150h-133z" />
    <glyph glyph-name="uni01B4" unicode="&#x1b4;" horiz-adv-x="900" 
d="M679 550l-375 -850h-183l136 307l-306 693h183l214 -485l214 485h238v-150h-121z" />
    <glyph glyph-name="uni01B5" unicode="&#x1b5;" horiz-adv-x="851" 
d="M150 850v-150h-150v300h750l-517 -850h367v150h150v-300h-786l518 850h-332zM651 450h-599l-1 100h599z" />
    <glyph glyph-name="uni01B6" unicode="&#x1b6;" horiz-adv-x="699" 
d="M150 550v-150h-150v300h601l-358 -550h207v150h150v-300h-636l358 550h-172zM601 300h-599l-1 100h599z" />
    <glyph glyph-name="uni01B7" unicode="&#x1b7;" horiz-adv-x="900" 
d="M50 400l452 450h-352v-150h-150v300h850l-439 -450h389v-850h-800v300h150v-150h500v550h-600z" />
    <glyph glyph-name="uni01B8" unicode="&#x1b8;" horiz-adv-x="900" 
d="M750 400h-600v-550h500v150h150v-300h-800v850h390l-440 450h850v-300h-150v150h-352z" />
    <glyph glyph-name="uni01B9" unicode="&#x1b9;" 
d="M650 200h-500v-350h400v150h150v-300h-700v650h290l-340 350h750v-300h-150v150h-252z" />
    <glyph glyph-name="uni01BA" unicode="&#x1ba;" 
d="M100 100h450v100h-500l352 350h-252v-150h-150v300h750l-340 -350h290v-400h-550v-100h550v-150h-600l-100 100v200z" />
    <glyph glyph-name="uni01BB" unicode="&#x1bb;" horiz-adv-x="701" 
d="M0 1000h600v-300l-410 -550h410v-150h-600v150l449 591v109h-299v-150h-150v300zM600 375h-600v100h600v-100z" />
    <glyph glyph-name="uni01BC" unicode="&#x1bc;" 
d="M700 1000v-150h-450v-250h450v-602h-600v152h450v300h-450v400h-100v150h700z" />
    <glyph glyph-name="uni01BD" unicode="&#x1bd;" 
d="M700 700v-150h-450v-100h450v-452h-600v152h450v150h-450v250h-100v150h700z" />
    <glyph glyph-name="uni01BE" unicode="&#x1be;" horiz-adv-x="700" 
d="M476 500l124 -247v-253h-598v300h149v-150h299v96l-126 254h-324v100h275l-50 100v300h150v-300l50 -100h175v-100h-124z" />
    <glyph glyph-name="uni01BF" unicode="&#x1bf;" horiz-adv-x="700" 
d="M150 0v-300h-150v1000h600v-400zM150 550v-360l300 190v170h-300z" />
    <glyph glyph-name="uni01C0" unicode="&#x1c0;" horiz-adv-x="300" 
d="M0 -300v1600h100v-1600h-100z" />
    <glyph glyph-name="uni01C1" unicode="&#x1c1;" horiz-adv-x="300" 
d="M-100 -300v1600h100v-1600h-100zM100 -300v1600h100v-1600h-100z" />
    <glyph glyph-name="uni01C2" unicode="&#x1c2;" 
d="M0 600v150h700v-150h-700zM0 250v150h700v-150h-700zM300 -300v1600h100v-1600h-100z" />
    <glyph glyph-name="uni01C3" unicode="&#x1c3;" horiz-adv-x="250" 
d="M0 0v150h150v-150h-150zM150 800l-25 -550h-100l-25 550v200h150v-200z" />
    <glyph glyph-name="uni01C4" unicode="&#x1c4;" horiz-adv-x="1751" 
d="M718 1000c22.667 0 42 -8.00098 58 -24.001s24 -35.667 24 -59v-833c0 -23.333 -8 -43.166 -24 -59.499s-35.333 -24.5 -58 -24.5h-618v850h-100v150h718zM250 849.999v-700h400v700h-400zM1050 849.999v-150h-150v300h750l-517 -850h367v150h150v-300h-786l518 850h-332
zM1157 1100l-150 200h200l50 -67l50 67h200l-150 -200h-200z" />
    <glyph glyph-name="uni01C5" unicode="&#x1c5;" horiz-adv-x="1599" 
d="M718 1000c22.667 0 42 -8.00098 58 -24.001s24 -35.667 24 -59v-833c0 -23.333 -8 -43.166 -24 -59.499s-35.333 -24.5 -58 -24.5h-618v850h-100v150h718zM250 849.999v-700h400v700h-400zM1050 549.999v-150h-150v300h601l-358 -550h207v150h150v-300h-636l358 550h-172
zM1083 799.999l-150 200h200l50 -67l50 67h200l-150 -200h-200z" />
    <glyph glyph-name="uni01C6" unicode="&#x1c6;" horiz-adv-x="1499" 
d="M0 700h550v300h150v-1000h-700v700zM550 150v400h-400v-400h400zM950 550v-150h-150v300h601l-358 -550h207v150h150v-300h-636l358 550h-172zM983 800l-150 200h200l50 -67l50 67h200l-150 -200h-200z" />
    <glyph glyph-name="uni01C7" unicode="&#x1c7;" horiz-adv-x="1450" 
d="M150 1000v-850h350v-150h-500v1000h150zM750 150h250v700h-400v150h750v-150h-200v-850h-550v350h150v-200z" />
    <glyph glyph-name="uni01C8" unicode="&#x1c8;" horiz-adv-x="901" 
d="M150 1000v-850h350v-150h-500v1000h150zM600 850v150h150v-150h-150zM600 700h150v-1000h-200v150h50v850z" />
    <glyph glyph-name="uni01C9" unicode="&#x1c9;" horiz-adv-x="601" 
d="M0 0v1000h150v-1000h-150zM300 850v150h150v-150h-150zM300 700h150v-1000h-200v150h50v850z" />
    <glyph glyph-name="uni01CA" unicode="&#x1ca;" horiz-adv-x="1750" 
d="M150 723v-723h-150v1000h150l500 -723v723h150v-1000h-150zM1050 150h250v700h-400v150h750v-150h-200v-850h-550v350h150v-200z" />
    <glyph glyph-name="uni01CB" unicode="&#x1cb;" horiz-adv-x="1201" 
d="M150 723v-723h-150v1000h150l500 -723v723h150v-1000h-150zM900 850v150h150v-150h-150zM900 700h150v-1000h-200v150h50v850z" />
    <glyph glyph-name="uni01CC" unicode="&#x1cc;" horiz-adv-x="1051" 
d="M150 550v-550h-150v700h600c14 0 25.833 -4.83301 35.5 -14.5s14.5 -21.5 14.5 -35.5v-650h-150v550h-350zM750 850v150h150v-150h-150zM750 700h150v-1000h-200v150h50v850z" />
    <glyph glyph-name="uni01CD" unicode="&#x1cd;" horiz-adv-x="850" 
d="M600 850h-450v-275h450v275zM600 425h-450v-425h-150v1000h750v-1000h-150v425zM276 1100l-150 200h200l50 -67l50 67h200l-150 -200h-200z" />
    <glyph glyph-name="uni01CE" unicode="&#x1ce;" horiz-adv-x="799" 
d="M350 150c55.333 0 102.5 19.5 141.5 58.5s58.5 86.167 58.5 141.5s-19.5 102.5 -58.5 141.5s-86.167 58.5 -141.5 58.5s-102.5 -19.5 -141.5 -58.5s-58.5 -86.167 -58.5 -141.5s19.5 -102.5 58.5 -141.5s86.167 -58.5 141.5 -58.5zM550 603v97h150v-700h-150v97
c-62.667 -64.667 -137.667 -97 -225 -97c-90 0 -166.667 34.167 -230 102.5s-95 150.833 -95 247.5s31.667 179.167 95 247.5s140 102.5 230 102.5c87.333 0 162.333 -32.333 225 -97zM250 800l-150 200h200l50 -67l50 67h200l-150 -200h-200z" />
    <glyph glyph-name="uni01CF" unicode="&#x1cf;" horiz-adv-x="699" 
d="M600 1000v-150h-225v-700h225v-150h-600v150h225v700h-225v150h600zM200 1100l-150 200h200l50 -67l50 67h200l-150 -200h-200z" />
    <glyph glyph-name="uni01D0" unicode="&#x1d0;" horiz-adv-x="250" 
d="M0 0v700h150v-700h-150zM0 800l-150 200h200l50 -67l50 67h200l-150 -200h-200z" />
    <glyph glyph-name="uni01D1" unicode="&#x1d1;" horiz-adv-x="900" 
d="M0 1000h800v-1000h-800v1000zM150 850v-700h500v700h-500zM300 1100l-150 200h200l50 -67l50 67h200l-150 -200h-200z" />
    <glyph glyph-name="uni01D2" unicode="&#x1d2;" 
d="M351 0c-97.333 0 -180.166 34.333 -248.499 103s-102.5 151.334 -102.5 248.001s34.167 179 102.5 247s151.166 102 248.499 102c96.667 0 179 -34 247 -102s102 -150.333 102 -247s-34 -179.334 -102 -248.001s-150.333 -103 -247 -103zM491.5 208.5
c39 39 58.5 86.167 58.5 141.5c0 56 -19.5 103.333 -58.5 142s-86.167 58 -141.5 58s-102.5 -19.333 -141.5 -58s-58.5 -86 -58.5 -142c0 -55.333 19.5 -102.5 58.5 -141.5s86.167 -58.5 141.5 -58.5s102.5 19.5 141.5 58.5zM250 800l-150 200h200l50 -67l50 67h200
l-150 -200h-200z" />
    <glyph glyph-name="uni01D3" unicode="&#x1d3;" horiz-adv-x="851" 
d="M150 150h450v850h150v-1000h-750v1000h150v-850zM275 1100l-150 200h200l50 -67l50 67h200l-150 -200h-200z" />
    <glyph glyph-name="uni01D4" unicode="&#x1d4;" horiz-adv-x="750" 
d="M500 150v550h150v-700h-600c-14 -0 -25.833 4.83301 -35.5 14.5s-14.5 21.5 -14.5 35.5v650h150v-550h350zM225 800l-150 200h200l50 -67l50 67h200l-150 -200h-200z" />
    <glyph glyph-name="uni01D5" unicode="&#x1d5;" horiz-adv-x="850" 
d="M150 150h450v850h150v-1000h-750v1000h150v-850zM275 1060h-150v75h150v-75zM625 1060h-150v75h150v-75zM100 1225v75h550v-75h-550z" />
    <glyph glyph-name="uni01D6" unicode="&#x1d6;" horiz-adv-x="750" 
d="M500 150v550h150v-700h-600c-14 -0 -25.833 4.83301 -35.5 14.5s-14.5 21.5 -14.5 35.5v650h150v-550h350zM225 850h-150v150h150v-150zM575 850h-150v150h150v-150zM50 1150v150h550v-150h-550z" />
    <glyph glyph-name="uni01D7" unicode="&#x1d7;" horiz-adv-x="850" 
d="M150 150h450v850h150v-1000h-750v1000h150v-850zM275 1060h-150v75h150v-75zM625 1060h-150v75h150v-75zM650 1300l-200 -100h-200l200 125z" />
    <glyph glyph-name="uni01D8" unicode="&#x1d8;" horiz-adv-x="750" 
d="M500 150v550h150v-700h-600c-14 -0 -25.833 4.83301 -35.5 14.5s-14.5 21.5 -14.5 35.5v650h150v-550h350zM225 850h-150v150h150v-150zM575 850h-150v150h150v-150zM593 1263l-200 -200h-200l200 250z" />
    <glyph glyph-name="uni01D9" unicode="&#x1d9;" horiz-adv-x="850" 
d="M150 150h450v850h150v-1000h-750v1000h150v-850zM275 1060h-150v75h150v-75zM625 1060h-150v75h150v-75zM275 1200l-150 100h200l50 -33.5l50 33.5h200l-150 -100h-200z" />
    <glyph glyph-name="uni01DA" unicode="&#x1da;" horiz-adv-x="750" 
d="M500 150v550h150v-700h-600c-14 -0 -25.833 4.83301 -35.5 14.5s-14.5 21.5 -14.5 35.5v650h150v-550h350zM225 850h-150v150h150v-150zM575 850h-150v150h150v-150zM225 1050l-150 200h200l50 -67l50 67h200l-150 -200h-200z" />
    <glyph glyph-name="uni01DB" unicode="&#x1db;" horiz-adv-x="0" 
d="M150 150h450v850h150v-1000h-750v1000h150v-850zM275 1060h-150v75h150v-75zM625 1060h-150v75h150v-75zM300 1325l200 -125h-200l-200 100z" />
    <glyph glyph-name="uni01DC" unicode="&#x1dc;" horiz-adv-x="750" 
d="M500 150v550h150v-700h-600c-14 -0 -25.833 4.83301 -35.5 14.5s-14.5 21.5 -14.5 35.5v650h150v-550h350zM225 850h-150v150h150v-150zM575 850h-150v150h150v-150zM257 1313l200 -250h-200l-200 200z" />
    <glyph glyph-name="uni01DD" unicode="&#x1dd;" 
d="M164 275c9.33301 -24.667 24.001 -47 44.001 -67c39.333 -38.667 86.666 -58 141.999 -58s102.333 19.333 141 58c20.667 20 35.667 42.333 45 67h-372zM22.001 475c17.333 44.667 43.999 85.333 79.999 122c68 68.667 150.333 103 247 103
c97.333 0 180.166 -34.333 248.499 -103s102.5 -151.334 102.5 -248.001s-34.167 -179 -102.5 -247s-151.166 -102 -248.499 -102c-96.667 0 -179 34 -247 102s-102 150.333 -102 247c0 26.667 2.66699 52 8 76h528c-9.33301 24 -24.333 46 -45 66
c-38.667 39.333 -85.667 59 -141 59s-102.666 -19.667 -141.999 -59c-5.33301 -5.33301 -10.333 -10.666 -15 -15.999h-171z" />
    <glyph glyph-name="uni01DE" unicode="&#x1de;" horiz-adv-x="850" 
d="M600 850h-450v-275h450v275zM600 425h-450v-425h-150v1000h750v-1000h-150v425zM100 1225v75h550v-75h-550zM275 1060h-150v75h150v-75zM625 1060h-150v75h150v-75z" />
    <glyph glyph-name="uni01DF" unicode="&#x1df;" horiz-adv-x="799" 
d="M350 150c55.333 0 102.5 19.5 141.5 58.5s58.5 86.167 58.5 141.5s-19.5 102.5 -58.5 141.5s-86.167 58.5 -141.5 58.5s-102.5 -19.5 -141.5 -58.5s-58.5 -86.167 -58.5 -141.5s19.5 -102.5 58.5 -141.5s86.167 -58.5 141.5 -58.5zM550 603v97h150v-700h-150v97
c-62.667 -64.667 -137.667 -97 -225 -97c-90 0 -166.667 34.167 -230 102.5s-95 150.833 -95 247.5s31.667 179.167 95 247.5s140 102.5 230 102.5c87.333 0 162.333 -32.333 225 -97zM250 850h-150v150h150v-150zM600 850h-150v150h150v-150zM75 1150v150h550v-150h-550z
" />
    <glyph glyph-name="uni01E0" unicode="&#x1e0;" horiz-adv-x="850" 
d="M600 850h-450v-275h450v275zM600 425h-450v-425h-150v1000h750v-1000h-150v425zM100 1225v75h550v-75h-550zM275 1050v100h200v-100h-200z" />
    <glyph glyph-name="uni01E1" unicode="&#x1e1;" horiz-adv-x="799" 
d="M350 150c55.333 0 102.5 19.5 141.5 58.5s58.5 86.167 58.5 141.5s-19.5 102.5 -58.5 141.5s-86.167 58.5 -141.5 58.5s-102.5 -19.5 -141.5 -58.5s-58.5 -86.167 -58.5 -141.5s19.5 -102.5 58.5 -141.5s86.167 -58.5 141.5 -58.5zM550 603v97h150v-700h-150v97
c-62.667 -64.667 -137.667 -97 -225 -97c-90 0 -166.667 34.167 -230 102.5s-95 150.833 -95 247.5s31.667 179.167 95 247.5s140 102.5 230 102.5c87.333 0 162.333 -32.333 225 -97zM250 800v200h200v-200h-200zM75 1150v150h550v-150h-550z" />
    <glyph glyph-name="uni01E2" unicode="&#x1e2;" horiz-adv-x="1200" 
d="M315 350l-140 -350h-175l400 1000h700v-150h-350v-200h350v-150h-350v-350h350v-150h-500v350h-285zM600 500v350h-85l-140 -350h225zM275 1100v150h550v-150h-550z" />
    <glyph glyph-name="uni01E3" unicode="&#x1e3;" horiz-adv-x="1300" 
d="M450 275h-300v-125h300v125zM1036 425c-9.33301 24.667 -24.001 47 -44.001 67c-39.333 38.667 -86.666 58 -141.999 58s-102.333 -19.333 -141 -58c-20.667 -20 -35.667 -42.333 -45 -67h372zM599.999 106l0.000976562 -105.998h-550c-14 0 -25.833 4.83301 -35.5 14.5
s-14.5 21.5 -14.5 35.5v325c-0 14 4.83301 25.833 14.5 35.5s21.5 14.5 35.5 14.5h400v125h-450v150h550c14 0 25.833 -4.83301 35.5 -14.5s14.5 -21.5 14.5 -35.5v-55c0.666992 1.33301 1.66699 2.33301 3 3c68 68 150.667 102 248 102c96.667 0 179 -34 247 -102
s102 -150.333 102 -247c0 -26.667 -2.66699 -52 -8 -76h-528c9.33301 -24 24.333 -46 45 -66c38.667 -39.333 85.667 -59 141 -59s102.666 19.667 141.999 59c5.33301 5.33301 10.333 10.666 15 15.999h171c-17.333 -44.667 -44 -85.334 -80 -122.001
c-68 -68.667 -150.333 -103 -247 -103c-97.333 -0 -180 34.333 -248 103c-1.33301 0.666992 -2.33301 1.66699 -3 3zM325 800.002v150h550v-150h-550z" />
    <glyph glyph-name="uni01E4" unicode="&#x1e4;" horiz-adv-x="850" 
d="M0 0v1000h750v-150h-600v-700h450v275h-250v150h400v-575h-750zM901 200h-599l-1 100h599z" />
    <glyph glyph-name="uni01E5" unicode="&#x1e5;" 
d="M550 550h-400v-400h400v400zM550 0h-500c-14 -0 -25.833 4.83301 -35.5 14.5s-14.5 21.5 -14.5 35.5v600c-0 13.333 4.83301 25 14.5 35s21.5 15 35.5 15h650v-950c0 -14 -4.83301 -25.833 -14.5 -35.5s-21.5 -14.5 -35.5 -14.5h-650v150h550v150zM900 -129h-1000v100
h1000v-100z" />
    <glyph glyph-name="Gcaron" unicode="&#x1e6;" horiz-adv-x="850" 
d="M0 0v1000h750v-150h-600v-700h450v275h-250v150h400v-575h-750zM275 1100l-150 200h200l50 -67l50 67h200l-150 -200h-200z" />
    <glyph glyph-name="gcaron" unicode="&#x1e7;" 
d="M550 550h-400v-400h400v400zM550 0h-500c-14 -0 -25.833 4.83301 -35.5 14.5s-14.5 21.5 -14.5 35.5v600c-0 13.333 4.83301 25 14.5 35s21.5 15 35.5 15h650v-950c0 -14 -4.83301 -25.833 -14.5 -35.5s-21.5 -14.5 -35.5 -14.5h-650v150h550v150zM250 800l-150 200h200
l50 -67l50 67h200l-150 -200h-200z" />
    <glyph glyph-name="uni01E8" unicode="&#x1e8;" 
d="M150 436v-436h-150v1000h150v-429l432 429h217l-499 -500l499 -500h-217zM300 1100l-150 200h200l50 -67l50 67h200l-150 -200h-200z" />
    <glyph glyph-name="uni01E9" unicode="&#x1e9;" horiz-adv-x="700" 
d="M150 286v-286h-150v1000h150v-579l272 279h214l-334 -350l334 -350h-214zM150 1100l-150 200h200l50 -67l50 67h200l-150 -200h-200z" />
    <glyph glyph-name="uni01EA" unicode="&#x1ea;" horiz-adv-x="900" 
d="M0 1000h800v-1000h-800v1000zM150 850v-700h500v700h-500zM570 -250h230v-150h-400v150l230 250h170z" />
    <glyph glyph-name="uni01EB" unicode="&#x1eb;" 
d="M351 0c-97.333 0 -180.166 34.333 -248.499 103s-102.5 151.334 -102.5 248.001s34.167 179 102.5 247s151.166 102 248.499 102c96.667 0 179 -34 247 -102s102 -150.333 102 -247s-34 -179.334 -102 -248.001s-150.333 -103 -247 -103zM491.5 208.5
c39 39 58.5 86.167 58.5 141.5c0 56 -19.5 103.333 -58.5 142s-86.167 58 -141.5 58s-102.5 -19.333 -141.5 -58s-58.5 -86 -58.5 -142c0 -55.333 19.5 -102.5 58.5 -141.5s86.167 -58.5 141.5 -58.5s102.5 19.5 141.5 58.5zM220 -150h230v-150h-400v150l230 250h170z" />
    <glyph glyph-name="uni01EC" unicode="&#x1ec;" horiz-adv-x="900" 
d="M0 1000h800v-1000h-800v1000zM150 850v-700h500v700h-500zM570 -250h230v-150h-400v150l230 250h170zM125 1100v150h550v-150h-550z" />
    <glyph glyph-name="uni01ED" unicode="&#x1ed;" 
d="M351 0c-97.333 0 -180.166 34.333 -248.499 103s-102.5 151.334 -102.5 248.001s34.167 179 102.5 247s151.166 102 248.499 102c96.667 0 179 -34 247 -102s102 -150.333 102 -247s-34 -179.334 -102 -248.001s-150.333 -103 -247 -103zM491.5 208.5
c39 39 58.5 86.167 58.5 141.5c0 56 -19.5 103.333 -58.5 142s-86.167 58 -141.5 58s-102.5 -19.333 -141.5 -58s-58.5 -86 -58.5 -142c0 -55.333 19.5 -102.5 58.5 -141.5s86.167 -58.5 141.5 -58.5s102.5 19.5 141.5 58.5zM220 -150h230v-150h-400v150l230 250h170z
M75 800v150h550v-150h-550z" />
    <glyph glyph-name="uni01EE" unicode="&#x1ee;" horiz-adv-x="900" 
d="M50 400l452 450h-352v-150h-150v300h850l-439 -450h389v-850h-800v300h150v-150h500v550h-600zM325 1100l-150 200h200l50 -67l50 67h200l-150 -200h-200z" />
    <glyph glyph-name="uni01EF" unicode="&#x1ef;" 
d="M50 200l352 350h-252v-150h-150v300h750l-340 -350h290v-650h-700v300h150v-150h400v350h-500zM275 800l-150 200h200l50 -67l50 67h200l-150 -200h-200z" />
    <glyph glyph-name="uni01F0" unicode="&#x1f0;" horiz-adv-x="250" 
d="M0 700h150v-1000h-200v150h50v850zM0 800l-150 200h200l50 -67l50 67h200l-150 -200h-200z" />
    <glyph glyph-name="uni01F1" unicode="&#x1f1;" horiz-adv-x="1751" 
d="M718 1000c22.667 0 42 -8.00098 58 -24.001s24 -35.667 24 -59v-833c0 -23.333 -8 -43.166 -24 -59.499s-35.333 -24.5 -58 -24.5h-618v850h-100v150h718zM250 849.999v-700h400v700h-400zM1050 849.999v-150h-150v300h750l-517 -850h367v150h150v-300h-786l518 850h-332
z" />
    <glyph glyph-name="uni01F2" unicode="&#x1f2;" horiz-adv-x="1599" 
d="M718 1000c22.667 0 42 -8.00098 58 -24.001s24 -35.667 24 -59v-833c0 -23.333 -8 -43.166 -24 -59.499s-35.333 -24.5 -58 -24.5h-618v850h-100v150h718zM250 849.999v-700h400v700h-400zM1050 549.999v-150h-150v300h601l-358 -550h207v150h150v-300h-636l358 550h-172
z" />
    <glyph glyph-name="uni01F3" unicode="&#x1f3;" horiz-adv-x="1499" 
d="M0 700h550v300h150v-1000h-700v700zM550 150v400h-400v-400h400zM950 550v-150h-150v300h601l-358 -550h207v150h150v-300h-636l358 550h-172z" />
    <glyph glyph-name="uni01F4" unicode="&#x1f4;" horiz-adv-x="850" 
d="M0 0v1000h750v-150h-600v-700h450v275h-250v150h400v-575h-750zM642 1300l-200 -200h-200l200 250z" />
    <glyph glyph-name="uni01F5" unicode="&#x1f5;" 
d="M550 550h-400v-400h400v400zM550 0h-500c-14 -0 -25.833 4.83301 -35.5 14.5s-14.5 21.5 -14.5 35.5v600c-0 13.333 4.83301 25 14.5 35s21.5 15 35.5 15h650v-950c0 -14 -4.83301 -25.833 -14.5 -35.5s-21.5 -14.5 -35.5 -14.5h-650v150h550v150zM617 1000l-200 -200
h-200l200 250z" />
    <glyph glyph-name="uni01F6" unicode="&#x1f6;" horiz-adv-x="1200" 
d="M950 700h150v-700h-550v425h-390v-425h-160v1000h160v-425h390v425h150v-850h250v550z" />
    <glyph glyph-name="uni01F7" unicode="&#x1f7;" 
d="M150 0v-300h-150v1300h700v-600zM150 850v-650l400 290v360h-400z" />
    <glyph glyph-name="uni01F8" unicode="&#x1f8;" horiz-adv-x="900" 
d="M150 723v-723h-150v1000h150l500 -723v723h150v-1000h-150zM333 1350l200 -250h-200l-200 200z" />
    <glyph glyph-name="uni01F9" unicode="&#x1f9;" horiz-adv-x="750" 
d="M150 550v-550h-150v700h600c14 0 25.833 -4.83301 35.5 -14.5s14.5 -21.5 14.5 -35.5v-650h-150v550h-350zM258 1050l200 -250h-200l-200 200z" />
    <glyph glyph-name="Aringacute" unicode="&#x1fa;" horiz-adv-x="851" 
d="M600 850h-450v-275h450v275zM600 425h-450v-425h-150v1000h750v-1000h-150v425zM400 950c-27.333 0 -50.833 9.83301 -70.5 29.5s-29.5 43.167 -29.5 70.5c0 28 9.83301 51.667 29.5 71s43.167 29 70.5 29c28 0 51.667 -9.66699 71 -29s29 -43 29 -71
c0 -27.333 -9.66699 -50.833 -29 -70.5s-43 -29.5 -71 -29.5zM430.5 1019.5c8.33301 8.33301 12.5 18.5 12.5 30.5s-4.16699 22.167 -12.5 30.5s-18.5 12.5 -30.5 12.5s-22.167 -4.16699 -30.5 -12.5s-12.5 -18.5 -12.5 -30.5s4.16699 -22.167 12.5 -30.5
s18.5 -12.5 30.5 -12.5s22.167 4.16699 30.5 12.5zM700 1350l-200 -200h-200l200 250z" />
    <glyph glyph-name="aringacute" unicode="&#x1fb;" horiz-adv-x="799" 
d="M350 150c55.333 0 102.5 19.5 141.5 58.5s58.5 86.167 58.5 141.5s-19.5 102.5 -58.5 141.5s-86.167 58.5 -141.5 58.5s-102.5 -19.5 -141.5 -58.5s-58.5 -86.167 -58.5 -141.5s19.5 -102.5 58.5 -141.5s86.167 -58.5 141.5 -58.5zM550 603v97h150v-700h-150v97
c-62.667 -64.667 -137.667 -97 -225 -97c-90 0 -166.667 34.167 -230 102.5s-95 150.833 -95 247.5s31.667 179.167 95 247.5s140 102.5 230 102.5c87.333 0 162.333 -32.333 225 -97zM350 800c-27.333 0 -50.833 9.83301 -70.5 29.5s-29.5 43.167 -29.5 70.5
c0 28 9.83301 51.667 29.5 71s43.167 29 70.5 29c28 0 51.667 -9.66699 71 -29s29 -43 29 -71c0 -27.333 -9.66699 -50.833 -29 -70.5s-43 -29.5 -71 -29.5zM380.5 869.5c8.33301 8.33301 12.5 18.5 12.5 30.5s-4.16699 22.167 -12.5 30.5s-18.5 12.5 -30.5 12.5
s-22.167 -4.16699 -30.5 -12.5s-12.5 -18.5 -12.5 -30.5s4.16699 -22.167 12.5 -30.5s18.5 -12.5 30.5 -12.5s22.167 4.16699 30.5 12.5zM690 1300l-200 -200h-200l200 250z" />
    <glyph glyph-name="AEacute" unicode="&#x1fc;" horiz-adv-x="1200" 
d="M315 350l-140 -350h-175l400 1000h700v-150h-350v-200h350v-150h-350v-350h350v-150h-500v350h-285zM600 500v350h-85l-140 -350h225zM817 1300l-200 -200h-200l200 250z" />
    <glyph glyph-name="aeacute" unicode="&#x1fd;" horiz-adv-x="1300" 
d="M450 275h-300v-125h300v125zM1036 425c-9.33301 24.667 -24.001 47 -44.001 67c-39.333 38.667 -86.666 58 -141.999 58s-102.333 -19.333 -141 -58c-20.667 -20 -35.667 -42.333 -45 -67h372zM599.999 106l0.000976562 -105.998h-550c-14 0 -25.833 4.83301 -35.5 14.5
s-14.5 21.5 -14.5 35.5v325c-0 14 4.83301 25.833 14.5 35.5s21.5 14.5 35.5 14.5h400v125h-450v150h550c14 0 25.833 -4.83301 35.5 -14.5s14.5 -21.5 14.5 -35.5v-55c0.666992 1.33301 1.66699 2.33301 3 3c68 68 150.667 102 248 102c96.667 0 179 -34 247 -102
s102 -150.333 102 -247c0 -26.667 -2.66699 -52 -8 -76h-528c9.33301 -24 24.333 -46 45 -66c38.667 -39.333 85.667 -59 141 -59s102.666 19.667 141.999 59c5.33301 5.33301 10.333 10.666 15 15.999h171c-17.333 -44.667 -44 -85.334 -80 -122.001
c-68 -68.667 -150.333 -103 -247 -103c-97.333 -0 -180 34.333 -248 103c-1.33301 0.666992 -2.33301 1.66699 -3 3zM866 1000l-200 -200h-200l200 250z" />
    <glyph glyph-name="Oslashacute" unicode="&#x1fe;" horiz-adv-x="900" 
d="M550 850h-400v-700zM250 150h400v700zM0 1000h800v-1000h-800v1000zM667 1300l-200 -200h-200l200 250z" />
    <glyph glyph-name="oslashacute" unicode="&#x1ff;" 
d="M269 166c24.667 -10.667 51.667 -15.999 81 -15.999c55.333 0 102.5 19.5 141.5 58.5s58.5 86.167 58.5 141.5c0 53.333 -17.667 98.666 -53 135.999zM203 214.001l228 320c-24.667 10.667 -51.667 16 -81 16c-55.333 0 -102.5 -19.333 -141.5 -58s-58.5 -86 -58.5 -142
c0 -52.667 17.667 -98 53 -136zM181 43.001l-30.998 -43h-100l65 91l-12 12c-68.667 68.667 -103 151.334 -103 248.001s34.167 179 102.5 247s151.166 102 248.499 102c62 0 118.333 -14 169 -42l30 42h100l-64 -90l12 -12c68 -68 102 -150.333 102 -247
s-34 -179.334 -102 -248.001s-150.333 -103 -247 -103c-62.667 0 -119.334 14.333 -170.001 43zM616.002 1000l-200 -200h-200l200 250z" />
    <glyph glyph-name="uni0200" unicode="&#x200;" horiz-adv-x="850" 
d="M600 850h-450v-275h450v275zM600 425h-450v-425h-150v1000h750v-1000h-150v425zM234 1350l200 -250h-200l-200 200zM516 1350l200 -250h-200l-200 200z" />
    <glyph glyph-name="uni0201" unicode="&#x201;" horiz-adv-x="799" 
d="M350 150c55.333 0 102.5 19.5 141.5 58.5s58.5 86.167 58.5 141.5s-19.5 102.5 -58.5 141.5s-86.167 58.5 -141.5 58.5s-102.5 -19.5 -141.5 -58.5s-58.5 -86.167 -58.5 -141.5s19.5 -102.5 58.5 -141.5s86.167 -58.5 141.5 -58.5zM550 603v97h150v-700h-150v97
c-62.667 -64.667 -137.667 -97 -225 -97c-90 0 -166.667 34.167 -230 102.5s-95 150.833 -95 247.5s31.667 179.167 95 247.5s140 102.5 230 102.5c87.333 0 162.333 -32.333 225 -97zM209 1050l200 -250h-200l-200 200zM491 1050l200 -250h-200l-200 200z" />
    <glyph glyph-name="uni0202" unicode="&#x202;" horiz-adv-x="850" 
d="M600 850h-450v-275h450v275zM600 425h-450v-425h-150v1000h750v-1000h-150v425zM500 1300l100 -100v-150h-150v100h-150v-100h-150v150l100 100h250z" />
    <glyph glyph-name="uni0203" unicode="&#x203;" horiz-adv-x="799" 
d="M350 150c55.333 0 102.5 19.5 141.5 58.5s58.5 86.167 58.5 141.5s-19.5 102.5 -58.5 141.5s-86.167 58.5 -141.5 58.5s-102.5 -19.5 -141.5 -58.5s-58.5 -86.167 -58.5 -141.5s19.5 -102.5 58.5 -141.5s86.167 -58.5 141.5 -58.5zM550 603v97h150v-700h-150v97
c-62.667 -64.667 -137.667 -97 -225 -97c-90 0 -166.667 34.167 -230 102.5s-95 150.833 -95 247.5s31.667 179.167 95 247.5s140 102.5 230 102.5c87.333 0 162.333 -32.333 225 -97zM475 1000l100 -100v-150h-150v100h-150v-100h-150v150l100 100h250z" />
    <glyph glyph-name="uni0204" unicode="&#x204;" horiz-adv-x="700" 
d="M600 1000v-150h-450v-200h450v-150h-450v-350h450v-150h-600v1000h600zM159 1350l200 -250h-200l-200 200zM441 1350l200 -250h-200l-200 200z" />
    <glyph glyph-name="uni0205" unicode="&#x205;" 
d="M536 425c-9.33301 24.667 -24.001 47 -44.001 67c-39.333 38.667 -86.666 58 -141.999 58s-102.333 -19.333 -141 -58c-20.667 -20 -35.667 -42.333 -45 -67h372zM677.999 225c-17.333 -44.667 -43.999 -85.333 -79.999 -122c-68 -68.667 -150.333 -103 -247 -103
c-97.333 -0 -180.166 34.333 -248.499 103s-102.5 151.334 -102.5 248.001s34.167 179 102.5 247s151.166 102 248.499 102c96.667 0 179 -34 247 -102s102 -150.333 102 -247c0 -26.667 -2.66699 -52 -8 -76h-528c9.33301 -24 24.333 -46 45 -66
c38.667 -39.333 85.667 -59 141 -59s102.666 19.667 141.999 59c5.33301 5.33301 10.333 10.666 15 15.999h171zM209 1050l200 -250h-200l-200 200zM491 1050l200 -250h-200l-200 200z" />
    <glyph glyph-name="uni0206" unicode="&#x206;" horiz-adv-x="700" 
d="M600 1000v-150h-450v-200h450v-150h-450v-350h450v-150h-600v1000h600zM425 1300l100 -100v-150h-150v100h-150v-100h-150v150l100 100h250z" />
    <glyph glyph-name="uni0207" unicode="&#x207;" 
d="M536 425c-9.33301 24.667 -24.001 47 -44.001 67c-39.333 38.667 -86.666 58 -141.999 58s-102.333 -19.333 -141 -58c-20.667 -20 -35.667 -42.333 -45 -67h372zM677.999 225c-17.333 -44.667 -43.999 -85.333 -79.999 -122c-68 -68.667 -150.333 -103 -247 -103
c-97.333 -0 -180.166 34.333 -248.499 103s-102.5 151.334 -102.5 248.001s34.167 179 102.5 247s151.166 102 248.499 102c96.667 0 179 -34 247 -102s102 -150.333 102 -247c0 -26.667 -2.66699 -52 -8 -76h-528c9.33301 -24 24.333 -46 45 -66
c38.667 -39.333 85.667 -59 141 -59s102.666 19.667 141.999 59c5.33301 5.33301 10.333 10.666 15 15.999h171zM475 1000l100 -100v-150h-150v100h-150v-100h-150v150l100 100h250z" />
    <glyph glyph-name="uni0208" unicode="&#x208;" horiz-adv-x="699" 
d="M600 1000v-150h-225v-700h225v-150h-600v150h225v700h-225v150h600zM159 1350l200 -250h-200l-200 200zM441 1350l200 -250h-200l-200 200z" />
    <glyph glyph-name="uni0209" unicode="&#x209;" horiz-adv-x="250" 
d="M0 0v700h150v-700h-150zM-66 1050l200 -250h-200l-200 200zM216 1050l200 -250h-200l-200 200z" />
    <glyph glyph-name="uni020A" unicode="&#x20a;" horiz-adv-x="699" 
d="M600 1000v-150h-225v-700h225v-150h-600v150h225v700h-225v150h600zM425 1300l100 -100v-150h-150v100h-150v-100h-150v150l100 100h250z" />
    <glyph glyph-name="uni020B" unicode="&#x20b;" horiz-adv-x="250" 
d="M0 0v700h150v-700h-150zM200 1000l100 -100v-150h-150v100h-150v-100h-150v150l100 100h250z" />
    <glyph glyph-name="uni020C" unicode="&#x20c;" horiz-adv-x="900" 
d="M0 1000h800v-1000h-800v1000zM150 850v-700h500v700h-500zM259 1350l200 -250h-200l-200 200zM541 1350l200 -250h-200l-200 200z" />
    <glyph glyph-name="uni020D" unicode="&#x20d;" 
d="M351 0c-97.333 0 -180.166 34.333 -248.499 103s-102.5 151.334 -102.5 248.001s34.167 179 102.5 247s151.166 102 248.499 102c96.667 0 179 -34 247 -102s102 -150.333 102 -247s-34 -179.334 -102 -248.001s-150.333 -103 -247 -103zM491.5 208.5
c39 39 58.5 86.167 58.5 141.5c0 56 -19.5 103.333 -58.5 142s-86.167 58 -141.5 58s-102.5 -19.333 -141.5 -58s-58.5 -86 -58.5 -142c0 -55.333 19.5 -102.5 58.5 -141.5s86.167 -58.5 141.5 -58.5s102.5 19.5 141.5 58.5zM209 1050l200 -250h-200l-200 200zM491 1050
l200 -250h-200l-200 200z" />
    <glyph glyph-name="uni020E" unicode="&#x20e;" horiz-adv-x="900" 
d="M0 1000h800v-1000h-800v1000zM150 850v-700h500v700h-500zM525 1300l100 -100v-150h-150v100h-150v-100h-150v150l100 100h250z" />
    <glyph glyph-name="uni020F" unicode="&#x20f;" 
d="M351 0c-97.333 0 -180.166 34.333 -248.499 103s-102.5 151.334 -102.5 248.001s34.167 179 102.5 247s151.166 102 248.499 102c96.667 0 179 -34 247 -102s102 -150.333 102 -247s-34 -179.334 -102 -248.001s-150.333 -103 -247 -103zM491.5 208.5
c39 39 58.5 86.167 58.5 141.5c0 56 -19.5 103.333 -58.5 142s-86.167 58 -141.5 58s-102.5 -19.333 -141.5 -58s-58.5 -86 -58.5 -142c0 -55.333 19.5 -102.5 58.5 -141.5s86.167 -58.5 141.5 -58.5s102.5 19.5 141.5 58.5zM475 1000l100 -100v-150h-150v100h-150v-100
h-150v150l100 100h250z" />
    <glyph glyph-name="uni0210" unicode="&#x210;" horiz-adv-x="900" 
d="M250 850v-275h400v275h-400zM347 425h-97v-425h-150v850h-100v150h800v-575h-257l304 -425h-196zM283 1350l200 -250h-200l-200 200zM565 1350l200 -250h-200l-200 200z" />
    <glyph glyph-name="uni0211" unicode="&#x211;" horiz-adv-x="700" 
d="M150 550v-550h-150v700h550c14 0 25.833 -4.83301 35.5 -14.5s14.5 -21.5 14.5 -35.5v-300h-150v200h-300zM159 1050l200 -250h-200l-200 200zM441 1050l200 -250h-200l-200 200z" />
    <glyph glyph-name="uni0212" unicode="&#x212;" horiz-adv-x="900" 
d="M250 850v-275h400v275h-400zM347 425h-97v-425h-150v850h-100v150h800v-575h-257l304 -425h-196zM549 1300l100 -100v-150h-150v100h-150v-100h-150v150l100 100h250z" />
    <glyph glyph-name="uni0213" unicode="&#x213;" horiz-adv-x="700" 
d="M150 550v-550h-150v700h550c14 0 25.833 -4.83301 35.5 -14.5s14.5 -21.5 14.5 -35.5v-300h-150v200h-300zM425 1000l100 -100v-150h-150v100h-150v-100h-150v150l100 100h250z" />
    <glyph glyph-name="uni0214" unicode="&#x214;" horiz-adv-x="851" 
d="M150 150h450v850h150v-1000h-750v1000h150v-850zM234 1350l200 -250h-200l-200 200zM516 1350l200 -250h-200l-200 200z" />
    <glyph glyph-name="uni0215" unicode="&#x215;" horiz-adv-x="750" 
d="M500 150v550h150v-700h-600c-14 -0 -25.833 4.83301 -35.5 14.5s-14.5 21.5 -14.5 35.5v650h150v-550h350zM184 1050l200 -250h-200l-200 200zM466 1050l200 -250h-200l-200 200z" />
    <glyph glyph-name="uni0216" unicode="&#x216;" horiz-adv-x="851" 
d="M150 150h450v850h150v-1000h-750v1000h150v-850zM500 1300l100 -100v-150h-150v100h-150v-100h-150v150l100 100h250z" />
    <glyph glyph-name="uni0217" unicode="&#x217;" horiz-adv-x="750" 
d="M500 150v550h150v-700h-600c-14 -0 -25.833 4.83301 -35.5 14.5s-14.5 21.5 -14.5 35.5v650h150v-550h350zM450 1000l100 -100v-150h-150v100h-150v-100h-150v150l100 100h250z" />
    <glyph glyph-name="uni0218" unicode="&#x218;" horiz-adv-x="850" 
d="M750 150v-150h-750v150h552l-552 700v150h750v-150h-553zM392.001 -205h-70.001v105.002h105.002v-245.004h-35.001v140.002z" />
    <glyph glyph-name="uni0219" unicode="&#x219;" horiz-adv-x="650" 
d="M550 150v-150h-550v150h353l-353 400v150h550v-150h-342zM292.001 -205h-70.001v105.002h105.002v-245.004h-35.001v140.002z" />
    <glyph glyph-name="uni021A" unicode="&#x21a;" horiz-adv-x="900" 
d="M475 850v-850h-150v850h-375v150h900v-150h-375zM417.001 -205h-70.001v105.002h105.002v-245.004h-35.001v140.002z" />
    <glyph glyph-name="uni021B" unicode="&#x21b;" horiz-adv-x="550" 
d="M250 550v-400h200v-150h-350v550h-100v150h100v100l150 200v-300h200v-150h-200zM242.001 -205h-70.001v105.002h105.002v-245.004h-35.001v140.002z" />
    <glyph glyph-name="uni021C" unicode="&#x21c;" 
d="M150 850v-150h-149v300h699v-600l-56 -24l56 -76v-300l-700 -300v180l551 236v220l-551 -236v180l551 236v334h-401z" />
    <glyph glyph-name="uni021D" unicode="&#x21d;" 
d="M700 0l-700 -300v180l551 236v120l-551 -236v180l551 236v134h-401v-150h-149v300h699v-400l-56 -24l56 -76v-200z" />
    <glyph glyph-name="uni021E" unicode="&#x21e;" horiz-adv-x="850" 
d="M600 1000h150v-1000h-150v425h-450v-425h-150v1000h150v-425h450v425zM275 1100l-150 200h200l50 -67l50 67h200l-150 -200h-200z" />
    <glyph glyph-name="uni021F" unicode="&#x21f;" horiz-adv-x="751" 
d="M0 1000h150v-300h500v-700h-150v550h-350v-550h-150v1000zM150 1100l-150 200h200l50 -67l50 67h200l-150 -200h-200z" />
    <glyph glyph-name="uni0220" unicode="&#x220;" horiz-adv-x="850" 
d="M150 850v-850h-150v1000h699c14 0 25.833 -5 35.5 -15s14.5 -21.667 14.5 -35v-1250h-149v1150h-450z" />
    <glyph glyph-name="uni0221" unicode="&#x221;" horiz-adv-x="1100" 
d="M550 150v400h-400v-400h400zM900 0h-200v-200h200v200zM550 0h-550v700h550v300h150v-900h200l100 -100v-200l-100 -100h-250l-100 100v200z" />
    <glyph glyph-name="uni0222" unicode="&#x222;" horiz-adv-x="851" 
d="M500 1000h150l100 -100v-325l-75 -75l75 -75v-325l-100 -100h-550l-100 100v325l75 75l-75 75v225l100 100h150l-100 -200v-125h450v225zM150 425v-275h450v275h-450z" />
    <glyph glyph-name="uni0223" unicode="&#x223;" 
d="M450 1000h150l100 -100v-325l-100 -75l100 -75v-325l-100 -100h-500l-100 100v325l100 75l-100 75v325l100 100h150l-100 -200v-225h400v225zM150 425v-275h400v275h-400z" />
    <glyph glyph-name="uni0224" unicode="&#x224;" horiz-adv-x="851" 
d="M600 0h-636l518 850h-332v-150h-150v300h750l-517 -850h417l100 -100v-250h-150v200z" />
    <glyph glyph-name="uni0225" unicode="&#x225;" horiz-adv-x="699" 
d="M450 0h-486l358 550h-172v-150h-150v300h601l-358 -550h257l100 -100v-250h-150v200z" />
    <glyph glyph-name="uni0226" unicode="&#x226;" horiz-adv-x="850" 
d="M600 850h-450v-275h450v275zM600 425h-450v-425h-150v1000h750v-1000h-150v425zM276 1100v200h200v-200h-200z" />
    <glyph glyph-name="uni0227" unicode="&#x227;" horiz-adv-x="799" 
d="M350 150c55.333 0 102.5 19.5 141.5 58.5s58.5 86.167 58.5 141.5s-19.5 102.5 -58.5 141.5s-86.167 58.5 -141.5 58.5s-102.5 -19.5 -141.5 -58.5s-58.5 -86.167 -58.5 -141.5s19.5 -102.5 58.5 -141.5s86.167 -58.5 141.5 -58.5zM550 603v97h150v-700h-150v97
c-62.667 -64.667 -137.667 -97 -225 -97c-90 0 -166.667 34.167 -230 102.5s-95 150.833 -95 247.5s31.667 179.167 95 247.5s140 102.5 230 102.5c87.333 0 162.333 -32.333 225 -97zM250 800v200h200v-200h-200z" />
    <glyph glyph-name="uni0228" unicode="&#x228;" horiz-adv-x="700" 
d="M600 1000v-150h-450v-200h450v-150h-450v-350h450v-150h-600v1000h600zM150 -400v100h200v100h-200v250h100v-150h200v-300h-300z" />
    <glyph glyph-name="uni0229" unicode="&#x229;" 
d="M536 425c-9.33301 24.667 -24.001 47 -44.001 67c-39.333 38.667 -86.666 58 -141.999 58s-102.333 -19.333 -141 -58c-20.667 -20 -35.667 -42.333 -45 -67h372zM677.999 225c-17.333 -44.667 -43.999 -85.333 -79.999 -122c-68 -68.667 -150.333 -103 -247 -103
c-97.333 -0 -180.166 34.333 -248.499 103s-102.5 151.334 -102.5 248.001s34.167 179 102.5 247s151.166 102 248.499 102c96.667 0 179 -34 247 -102s102 -150.333 102 -247c0 -26.667 -2.66699 -52 -8 -76h-528c9.33301 -24 24.333 -46 45 -66
c38.667 -39.333 85.667 -59 141 -59s102.666 19.667 141.999 59c5.33301 5.33301 10.333 10.666 15 15.999h171zM200 -399.999v100h200v100h-200v250h100v-150h200v-300h-300z" />
    <glyph glyph-name="uni022A" unicode="&#x22a;" horiz-adv-x="900" 
d="M0 1000h800v-1000h-800v1000zM150 850v-700h500v700h-500zM300 1060h-150v75h150v-75zM650 1060h-150v75h150v-75zM125 1225v75h550v-75h-550z" />
    <glyph glyph-name="uni022B" unicode="&#x22b;" 
d="M351 0c-97.333 0 -180.166 34.333 -248.499 103s-102.5 151.334 -102.5 248.001s34.167 179 102.5 247s151.166 102 248.499 102c96.667 0 179 -34 247 -102s102 -150.333 102 -247s-34 -179.334 -102 -248.001s-150.333 -103 -247 -103zM491.5 208.5
c39 39 58.5 86.167 58.5 141.5c0 56 -19.5 103.333 -58.5 142s-86.167 58 -141.5 58s-102.5 -19.333 -141.5 -58s-58.5 -86 -58.5 -142c0 -55.333 19.5 -102.5 58.5 -141.5s86.167 -58.5 141.5 -58.5s102.5 19.5 141.5 58.5zM250 850h-150v150h150v-150zM600 850h-150v150
h150v-150zM75 1150v150h550v-150h-550z" />
    <glyph glyph-name="uni022C" unicode="&#x22c;" horiz-adv-x="900" 
d="M0 1000h800v-1000h-800v1000zM150 850v-700h500v700h-500zM325 1100l-75 -50h-150l150 100h150l75 -50l75 50h150l-150 -100h-150zM125 1225v75h550v-75h-550z" />
    <glyph glyph-name="uni022D" unicode="&#x22d;" 
d="M351 0c-97.333 0 -180.166 34.333 -248.499 103s-102.5 151.334 -102.5 248.001s34.167 179 102.5 247s151.166 102 248.499 102c96.667 0 179 -34 247 -102s102 -150.333 102 -247s-34 -179.334 -102 -248.001s-150.333 -103 -247 -103zM491.5 208.5
c39 39 58.5 86.167 58.5 141.5c0 56 -19.5 103.333 -58.5 142s-86.167 58 -141.5 58s-102.5 -19.333 -141.5 -58s-58.5 -86 -58.5 -142c0 -55.333 19.5 -102.5 58.5 -141.5s86.167 -58.5 141.5 -58.5s102.5 19.5 141.5 58.5zM275 900l-75 -100h-150l150 200h150l75 -100
l75 100h150l-150 -200h-150zM75 1150v150h550v-150h-550z" />
    <glyph glyph-name="uni022E" unicode="&#x22e;" horiz-adv-x="900" 
d="M0 1000h800v-1000h-800v1000zM150 850v-700h500v700h-500zM300 1100v200h200v-200h-200z" />
    <glyph glyph-name="uni022F" unicode="&#x22f;" 
d="M351 0c-97.333 0 -180.166 34.333 -248.499 103s-102.5 151.334 -102.5 248.001s34.167 179 102.5 247s151.166 102 248.499 102c96.667 0 179 -34 247 -102s102 -150.333 102 -247s-34 -179.334 -102 -248.001s-150.333 -103 -247 -103zM491.5 208.5
c39 39 58.5 86.167 58.5 141.5c0 56 -19.5 103.333 -58.5 142s-86.167 58 -141.5 58s-102.5 -19.333 -141.5 -58s-58.5 -86 -58.5 -142c0 -55.333 19.5 -102.5 58.5 -141.5s86.167 -58.5 141.5 -58.5s102.5 19.5 141.5 58.5zM250 800v200h200v-200h-200z" />
    <glyph glyph-name="uni0230" unicode="&#x230;" horiz-adv-x="900" 
d="M0 1000h800v-1000h-800v1000zM150 850v-700h500v700h-500zM125 1225v75h550v-75h-550zM300 1050v100h200v-100h-200z" />
    <glyph glyph-name="uni0231" unicode="&#x231;" 
d="M351 0c-97.333 0 -180.166 34.333 -248.499 103s-102.5 151.334 -102.5 248.001s34.167 179 102.5 247s151.166 102 248.499 102c96.667 0 179 -34 247 -102s102 -150.333 102 -247s-34 -179.334 -102 -248.001s-150.333 -103 -247 -103zM491.5 208.5
c39 39 58.5 86.167 58.5 141.5c0 56 -19.5 103.333 -58.5 142s-86.167 58 -141.5 58s-102.5 -19.333 -141.5 -58s-58.5 -86 -58.5 -142c0 -55.333 19.5 -102.5 58.5 -141.5s86.167 -58.5 141.5 -58.5s102.5 19.5 141.5 58.5zM250 800v200h200v-200h-200zM75 1150v150h550
v-150h-550z" />
    <glyph glyph-name="uni0232" unicode="&#x232;" horiz-adv-x="899" 
d="M325 325l-375 675h175l275 -493l275 493h175l-375 -675v-325h-150v325zM125 1100v150h550v-150h-550z" />
    <glyph glyph-name="uni0233" unicode="&#x233;" 
d="M304 -300h-183l136 307l-306 693h183l214 -485l214 485h183zM73 800v150h550v-150h-550z" />
    <glyph glyph-name="uni0234" unicode="&#x234;" horiz-adv-x="502" 
d="M0 -300v300h-100v100h100v900h150v-900h150l100 -100v-200l-100 -100h-300zM150 0v-200h150v200h-150z" />
    <glyph glyph-name="uni0235" unicode="&#x235;" horiz-adv-x="1000" 
d="M600 -300l-100 100v200h-100v100h100v450h-350v-550h-150v700h600c14 0 25.833 -4.83301 35.5 -14.5s14.5 -21.5 14.5 -35.5v-550h150l100 -100v-200l-100 -100h-200zM650 0v-200h150v200h-150z" />
    <glyph glyph-name="uni0236" unicode="&#x236;" horiz-adv-x="600" 
d="M100 0v300h-100v100h100v150h-100v150h100v100l150 200v-300h200v-150h-200v-150h150l100 -100v-200l-100 -100h-300zM250 300v-150h150v150h-150z" />
    <glyph glyph-name="uni0237" unicode="&#x237;" horiz-adv-x="250" 
d="M0 700h150v-1000h-200v150h50v850z" />
    <glyph glyph-name="uni0238" unicode="&#x238;" horiz-adv-x="1350" 
d="M0 700h550v300h150v-1000h-700v700zM550 150v400h-400v-400h400zM550 350l-0.000976562 650.001h150v-650c0 -55.333 19.5 -102.5 58.5 -141.5s86.167 -58.5 141.5 -58.5s102.5 19.5 141.5 58.5s58.5 86.167 58.5 141.5c0 56 -19.5 103.333 -58.5 142
s-86.167 58 -141.5 58l1 150c96.667 0 179 -34 247 -102s102 -150.333 102 -247s-34 -179.334 -102 -248.001s-150.333 -103 -247 -103c-97.333 -0 -180.166 34.333 -248.499 103s-102.5 151 -102.5 247z" />
    <glyph glyph-name="uni0239" unicode="&#x239;" horiz-adv-x="1350" 
d="M550 0h-500c-14 -0 -25.833 4.83301 -35.5 14.5s-14.5 21.5 -14.5 35.5v600c-0 13.333 4.83301 25 14.5 35s21.5 15 35.5 15h650v-1000h-150v300zM550 550h-400v-400h400v400zM1250 0h-550v-300h-150v1000h700v-700zM700 550v-400h400v400h-400z" />
    <glyph glyph-name="uni023A" unicode="&#x23a;" horiz-adv-x="850" 
d="M600 850h-450v-275h450v275zM600 425h-450v-425h-150v1000h750v-1000h-150v425zM800 1001l-780 -1000h-120l780 1000h120z" />
    <glyph glyph-name="uni023B" unicode="&#x23b;" horiz-adv-x="850" 
d="M750 150v-150h-750v1000h750v-150h-600v-700h600zM799 1000l-780 -1000h-120l780 1000h120z" />
    <glyph glyph-name="uni023C" unicode="&#x23c;" horiz-adv-x="750" 
d="M523 249h163c-16 -54 -45.333 -102.667 -88 -146c-68 -68.667 -150.333 -103 -247 -103c-97.333 -0 -180.166 34.333 -248.499 103s-102.5 151.334 -102.5 248.001s34.167 179 102.5 247s151.166 102 248.499 102c96.667 0 179 -34 247 -102
c44 -44 73.667 -93.667 89 -149h-162c-8.66699 15.333 -19.667 29.666 -33 42.999c-39.333 38.667 -86.666 58 -141.999 58s-102.5 -19.333 -141.5 -58s-58.5 -86 -58.5 -142c0 -55.333 19.5 -102.5 58.5 -141.5s86.167 -58.5 141.5 -58.5s102.666 19.667 141.999 59
c12 12 22.333 25.333 31 40zM800 901l-780 -1000h-120l780 1000h120z" />
    <glyph glyph-name="uni023D" unicode="&#x23d;" horiz-adv-x="600" 
d="M150 1000v-850h350v-150h-500v1000h150zM400 501h-599l-1 100h599z" />
    <glyph glyph-name="uni023E" unicode="&#x23e;" horiz-adv-x="900" 
d="M475 850v-850h-150v850h-375v150h900v-150h-375zM849 1000l-780 -1000h-120l780 1000h120z" />
    <glyph glyph-name="uni023F" unicode="&#x23f;" horiz-adv-x="700" 
d="M0 0v150h353l-353 400v150h550v-150h-342l342 -400v-150h-300l200 -150h50v-150h-100z" />
    <glyph glyph-name="uni0240" unicode="&#x240;" horiz-adv-x="700" 
d="M250 0h-286l358 550h-172v-150h-150v300h601l-358 -550h57l250 -200h50v-150h-100z" />
    <glyph glyph-name="uni0241" unicode="&#x241;" horiz-adv-x="900" 
d="M475 0h-150v450h325v400h-650v150h800v-700h-325v-300z" />
    <glyph glyph-name="uni0242" unicode="&#x242;" horiz-adv-x="699" 
d="M350 0h-150v350h250v200h-450v150h600v-500h-250v-200z" />
    <glyph glyph-name="uni0243" unicode="&#x243;" horiz-adv-x="850" 
d="M600 150v275h-450v-275h450zM600 850h-450v-275h450v275zM750 1000v-1000h-750v1000h750zM400 250h-599l-1 100h599z" />
    <glyph glyph-name="uni0244" unicode="&#x244;" horiz-adv-x="851" 
d="M150 150h450v850h150v-1000h-750v1000h150v-850zM874 501h-1000v100h1000v-100z" />
    <glyph glyph-name="uni0245" unicode="&#x245;" horiz-adv-x="950" 
d="M365 1000h170l415 -1000h-170l-330 795l-330 -795h-170z" />
    <glyph glyph-name="uni0246" unicode="&#x246;" horiz-adv-x="700" 
d="M600 1000v-150h-450v-200h450v-150h-450v-350h450v-150h-600v1000h600zM799 1001l-780 -1000h-120l780 1000h120z" />
    <glyph glyph-name="uni0247" unicode="&#x247;" 
d="M536 425c-9.33301 24.667 -24.001 47 -44.001 67c-39.333 38.667 -86.666 58 -141.999 58s-102.333 -19.333 -141 -58c-20.667 -20 -35.667 -42.333 -45 -67h372zM677.999 225c-17.333 -44.667 -43.999 -85.333 -79.999 -122c-68 -68.667 -150.333 -103 -247 -103
c-97.333 -0 -180.166 34.333 -248.499 103s-102.5 151.334 -102.5 248.001s34.167 179 102.5 247s151.166 102 248.499 102c96.667 0 179 -34 247 -102s102 -150.333 102 -247c0 -26.667 -2.66699 -52 -8 -76h-528c9.33301 -24 24.333 -46 45 -66
c38.667 -39.333 85.667 -59 141 -59s102.666 19.667 141.999 59c5.33301 5.33301 10.333 10.666 15 15.999h171zM800 901.001l-780 -1000h-120l780 1000h120z" />
    <glyph glyph-name="uni0248" unicode="&#x248;" horiz-adv-x="850" 
d="M150 150h250v700h-400v150h750v-150h-200v-850h-550v350h150v-200zM700 450h-599l-1 100h599z" />
    <glyph glyph-name="uni0249" unicode="&#x249;" horiz-adv-x="250" 
d="M0 850v150h150v-150h-150zM0 700h150v-1000h-200v150h50v850zM351 200h-599l-1 100h599z" />
    <glyph glyph-name="uni024A" unicode="&#x24a;" horiz-adv-x="900" 
d="M650 850h-500v-700h500v700zM650 -200v200h-600c-14 -0 -25.833 4.83301 -35.5 14.5s-14.5 21.5 -14.5 35.5v900c-0 13.333 4.83301 25 14.5 35s21.5 15 35.5 15h750v-1150h100v-150h-150z" />
    <glyph glyph-name="uni024B" unicode="&#x24b;" 
d="M550 550h-400v-400h400v400zM550 -200v200h-500c-14 -0 -25.833 4.83301 -35.5 14.5s-14.5 21.5 -14.5 35.5v600c-0 13.333 4.83301 25 14.5 35s21.5 15 35.5 15h650v-850h100v-150h-150z" />
    <glyph glyph-name="uni024C" unicode="&#x24c;" horiz-adv-x="900" 
d="M250 850v-275h400v275h-400zM347 425h-97v-425h-150v850h-100v150h800v-575h-257l304 -425h-196zM500 450h-599l-1 100h599z" />
    <glyph glyph-name="uni024D" unicode="&#x24d;" horiz-adv-x="700" 
d="M150 550v-550h-150v700h550c14 0 25.833 -4.83301 35.5 -14.5s14.5 -21.5 14.5 -35.5v-300h-150v200h-300zM401 200h-599l-1 100h599z" />
    <glyph glyph-name="uni024E" unicode="&#x24e;" horiz-adv-x="899" 
d="M325 325l-375 675h175l275 -493l275 493h175l-375 -675v-325h-150v325zM600 701h-599l-1 100h599zM800 700h-599l-1 100h599z" />
    <glyph glyph-name="uni024F" unicode="&#x24f;" 
d="M304 -300h-183l136 307l-306 693h183l214 -485l214 485h183zM600 400h-599l-1 100h599zM701 401h-599l-1 100h599z" />
    <glyph glyph-name="uni0250" unicode="&#x250;" horiz-adv-x="799" 
d="M350 550c-55.333 0 -102.5 -19.5 -141.5 -58.5s-58.5 -86.167 -58.5 -141.5s19.5 -102.5 58.5 -141.5s86.167 -58.5 141.5 -58.5s102.5 19.5 141.5 58.5s58.5 86.167 58.5 141.5s-19.5 102.5 -58.5 141.5s-86.167 58.5 -141.5 58.5zM150 97v-97h-150v700h150v-97
c62.667 64.667 137.667 97 225 97c90 0 166.667 -34.167 230 -102.5s95 -150.833 95 -247.5s-31.667 -179.167 -95 -247.5s-140 -102.5 -230 -102.5c-87.333 -0 -162.333 32.333 -225 97z" />
    <glyph glyph-name="uni0251" unicode="&#x251;" 
d="M550 550h-400v-400h400v400zM700 0h-650c-14 -0 -25.833 4.83301 -35.5 14.5s-14.5 21.5 -14.5 35.5v600c-0 13.333 4.83301 25 14.5 35s21.5 15 35.5 15h650v-700z" />
    <glyph glyph-name="uni0252" unicode="&#x252;" 
d="M150 150h400v400h-400v-400zM0 700h650c14 0 25.833 -4.83301 35.5 -14.5s14.5 -21.5 14.5 -35.5v-600c0 -13.333 -4.83301 -25 -14.5 -35s-21.5 -15 -35.5 -15h-650v700z" />
    <glyph glyph-name="uni0253" unicode="&#x253;" 
d="M150 850l-0.000976562 -499.999c0 -55.333 19.5 -102.5 58.5 -141.5s86.167 -58.5 141.5 -58.5s102.5 19.5 141.5 58.5s58.5 86.167 58.5 141.5c0 56 -19.5 103.333 -58.5 142s-86.167 58 -141.5 58l1 150c96.667 0 179 -34 247 -102s102 -150.333 102 -247
s-34 -179.334 -102 -248.001s-150.333 -103 -247 -103c-97.333 -0 -180.166 34.333 -248.499 103s-102.5 151 -102.5 247v550l100 100h200v-150h-150z" />
    <glyph glyph-name="uni0254" unicode="&#x254;" horiz-adv-x="750" 
d="M164 451h-163c16 54 45.333 102.667 88 146c68 68.667 150.333 103 247 103c97.333 0 180.166 -34.333 248.499 -103s102.5 -151.334 102.5 -248.001s-34.167 -179 -102.5 -247s-151.166 -102 -248.499 -102c-96.667 0 -179 34 -247 102c-44 44 -73.667 93.667 -89 149
h162c8.66699 -15.333 19.667 -29.666 33 -42.999c39.333 -38.667 86.666 -58 141.999 -58s102.5 19.333 141.5 58s58.5 86 58.5 142c0 55.333 -19.5 102.5 -58.5 141.5s-86.167 58.5 -141.5 58.5s-102.666 -19.667 -141.999 -59c-12 -12 -22.333 -25.333 -31 -40z" />
    <glyph glyph-name="uni0255" unicode="&#x255;" 
d="M350 0c-96.667 0 -179.001 34.335 -247.001 103.002c-56 56 -89.333 121.667 -100 197h-103v100h103c10 76 43.333 142 100 198c68 68 150.667 102 248 102c96.667 0 179 -34 247 -102c44 -44 73.667 -93.667 89 -149h-162c-8.66699 15.333 -19.667 29.666 -33 42.999
c-39.333 38.667 -86.666 58 -141.999 58s-102.333 -19.333 -141 -58c-27.333 -26.667 -45 -57.334 -53 -92.001h444l100 -100v-200l-100 -100h-250zM155.999 300.002c8 -34 25.667 -64.333 53 -91c38.667 -39.333 85.667 -59 141 -59h250v150h-444z" />
    <glyph glyph-name="uni0256" unicode="&#x256;" 
d="M550 150v400h-400v-400h400zM550 0h-550v700h550v300h150v-1150h100v-150h-150l-100 100v200z" />
    <glyph glyph-name="uni0257" unicode="&#x257;" 
d="M550 150v400h-400v-400h400zM700 850v-850h-700v700h550v200l100 100h150v-150h-100z" />
    <glyph glyph-name="uni0258" unicode="&#x258;" 
d="M164 425c9.33301 24.667 24.001 47 44.001 67c39.333 38.667 86.666 58 141.999 58s102.333 -19.333 141 -58c20.667 -20 35.667 -42.333 45 -67h-372zM22.001 225c17.333 -44.667 43.999 -85.333 79.999 -122c68 -68.667 150.333 -103 247 -103
c97.333 -0 180.166 34.333 248.499 103s102.5 151.334 102.5 248.001s-34.167 179 -102.5 247s-151.166 102 -248.499 102c-96.667 0 -179 -34 -247 -102s-102 -150.333 -102 -247c0 -26.667 2.66699 -52 8 -76h528c-9.33301 -24 -24.333 -46 -45 -66
c-38.667 -39.333 -85.667 -59 -141 -59s-102.666 19.667 -141.999 59c-5.33301 5.33301 -10.333 10.666 -15 15.999h-171z" />
    <glyph glyph-name="uni0259" unicode="&#x259;" 
d="M164 275c9.33301 -24.667 24.001 -47 44.001 -67c39.333 -38.667 86.666 -58 141.999 -58s102.333 19.333 141 58c20.667 20 35.667 42.333 45 67h-372zM22.001 475c17.333 44.667 43.999 85.333 79.999 122c68 68.667 150.333 103 247 103
c97.333 0 180.166 -34.333 248.499 -103s102.5 -151.334 102.5 -248.001s-34.167 -179 -102.5 -247s-151.166 -102 -248.499 -102c-96.667 0 -179 34 -247 102s-102 150.333 -102 247c0 26.667 2.66699 52 8 76h528c-9.33301 24 -24.333 46 -45 66
c-38.667 39.333 -85.667 59 -141 59s-102.666 -19.667 -141.999 -59c-5.33301 -5.33301 -10.333 -10.666 -15 -15.999h-171z" />
    <glyph glyph-name="uni025A" unicode="&#x25a;" horiz-adv-x="1100" 
d="M164 275c9.33301 -24.667 24.001 -47 44.001 -67c39.333 -38.667 86.666 -58 141.999 -58s102.333 19.333 141 58c20.667 20 35.667 42.333 45 67h-372zM22.001 475c17.333 44.667 43.999 85.333 79.999 122c68 68.667 150.333 103 247 103
c97.333 0 180.166 -34.333 248.499 -103s102.5 -151.334 102.5 -248.001s-34.167 -179 -102.5 -247s-151.166 -102 -248.499 -102c-96.667 0 -179 34 -247 102s-102 150.333 -102 247c0 26.667 2.66699 52 8 76h528c-9.33301 24 -24.333 46 -45 66
c-38.667 39.333 -85.667 59 -141 59s-102.666 -19.667 -141.999 -59c-5.33301 -5.33301 -10.333 -10.666 -15 -15.999h-171zM700 274.999h-100v150h250v-250h150v-150h-200l-100 100v150z" />
    <glyph glyph-name="uni025B" unicode="&#x25b;" horiz-adv-x="700" 
d="M600 450h-150v100h-300v-125h250v-150h-250v-125h300v100h150v-250h-600v275l75 75l-75 75v275h600v-250z" />
    <glyph glyph-name="uni025C" unicode="&#x25c;" horiz-adv-x="700" 
d="M0 250h150v-100h300v125h-250v150h250v125h-300v-100h-150v250h600v-275l-75 -75l75 -75v-275h-600v250z" />
    <glyph glyph-name="uni025D" unicode="&#x25d;" horiz-adv-x="1000" 
d="M0 250h150v-100h300v125h-250v150h250v125h-300v-100h-150v250h600v-275l-75 -75l75 -75v-275h-600v250zM600 275h-100v150h250v-250h150v-150h-200l-100 100v150z" />
    <glyph glyph-name="uni025E" unicode="&#x25e;" horiz-adv-x="700" 
d="M150 150v400h300v-125h-250v-150h250v-125h-300zM0 700v-700h600v275l-75 75l75 75v275h-600z" />
    <glyph glyph-name="uni025F" unicode="&#x25f;" horiz-adv-x="250" 
d="M0 700h150v-1000h-200v150h50v850zM400 200h-600v100h600v-100z" />
    <glyph glyph-name="uni0260" unicode="&#x260;" 
d="M700 -250c0 -14 -4.83301 -25.833 -14.5 -35.5s-21.5 -14.5 -35.5 -14.5h-650v150h550v150h-500c-14 -0 -25.833 4.83301 -35.5 14.5s-14.5 21.5 -14.5 35.5v600c-0 13.333 4.83301 25 14.5 35s21.5 15 35.5 15h500v174l100 126h150v-150h-100v-1100zM550 550h-400v-400
h400v400z" />
    <glyph glyph-name="uni0261" unicode="&#x261;" 
d="M350 150c55.333 0 102.5 19.5 141.5 58.5s58.5 86.167 58.5 141.5s-19.5 102.5 -58.5 141.5s-86.167 58.5 -141.5 58.5s-102.5 -19.5 -141.5 -58.5s-58.5 -86.167 -58.5 -141.5s19.5 -102.5 58.5 -141.5s86.167 -58.5 141.5 -58.5zM700 0
c0 -82 -34 -152.332 -102 -210.999c-68 -59.333 -150.333 -89 -247 -89c-97.333 0 -180 29.667 -248 89c-54 46 -86.667 99.333 -98 160h156c10 -20 26 -38.333 48 -55c38.667 -29.333 85.667 -44 141 -44s102.5 14.667 141.5 44s58.5 64.666 58.5 105.999v97
c-62.667 -64.667 -137.667 -97 -225 -97c-90 0 -166.667 34.167 -230 102.5s-95 150.833 -95 247.5s31.667 179.167 95 247.5s140 102.5 230 102.5c87.333 0 162.333 -32.333 225 -97v97h150v-700z" />
    <glyph glyph-name="uni0262" unicode="&#x262;" horiz-adv-x="750" 
d="M0 0v700h650v-150h-500v-400h350v125h-200v150h350v-425h-650z" />
    <glyph glyph-name="uni0263" unicode="&#x263;" 
d="M461 -298v-2h-440l221 408l-321 592h183l229 -423l229 423h183l-320 -592l220 -408h-183zM285 -150h96l-48 88z" />
    <glyph glyph-name="uni0264" unicode="&#x264;" horiz-adv-x="900" 
d="M451 150l-49 68l-50 -68h99zM50 0l255 350l-146 200h-159v150h244l158 -217l157 217h241v-150h-156l-146 -200l255 -350h-703z" />
    <glyph glyph-name="uni0265" unicode="&#x265;" horiz-adv-x="750" 
d="M650 -300h-150v300h-500v700h150v-550h350v550h150v-1000z" />
    <glyph glyph-name="uni0266" unicode="&#x266;" horiz-adv-x="750" 
d="M150 850v-150h500v-700h-150v550h-350v-550h-150v900l100 100h200v-150h-150z" />
    <glyph glyph-name="uni0267" unicode="&#x267;" horiz-adv-x="750" 
d="M500 -150v700h-350v-550h-150v900l100 100h200v-150h-150v-150h500v-900l-100 -100h-200v150h150z" />
    <glyph glyph-name="uni0268" unicode="&#x268;" horiz-adv-x="250" 
d="M0 0v700h150v-700h-150zM0 850v150h150v-150h-150zM400 250h-600v100h600v-100z" />
    <glyph glyph-name="uni0269" unicode="&#x269;" horiz-adv-x="450" 
d="M250 150h100v-150h-250v550h-100l100 150h150v-550z" />
    <glyph glyph-name="uni026A" unicode="&#x26a;" horiz-adv-x="500" 
d="M400 700v-150h-125v-400h125v-150h-400v150h125v400h-125v150h400z" />
    <glyph glyph-name="uni026B" unicode="&#x26b;" horiz-adv-x="250" 
d="M0 0v1000h150v-1000h-150zM-5 467l-50 -67h-200l150 200h200l50 -67l50 67h200l-150 -200h-200z" />
    <glyph glyph-name="uni026C" unicode="&#x26c;" horiz-adv-x="250" 
d="M-100 600v-100h100v100h-100zM-200 500v100l100 100h100v300h150v-500h250v-100h-250v-400h-150v400h-100z" />
    <glyph glyph-name="uni026D" unicode="&#x26d;" horiz-adv-x="250" 
d="M150 -150h150v-150h-200l-100 100v1200h150v-1150z" />
    <glyph glyph-name="uni026E" unicode="&#x26e;" horiz-adv-x="900" 
d="M0 0v1000h150v-1000h-150zM150 200l352 350h-252v-150h-150v300h750l-340 -350h290v-650h-700v300h150v-150h400v350h-500z" />
    <glyph glyph-name="uni026F" unicode="&#x26f;" horiz-adv-x="1100" 
d="M575 150h275v550h150v-700h-950c-14 -0 -25.833 4.83301 -35.5 14.5s-14.5 21.5 -14.5 35.5v650h150v-550h275v550h150v-550z" />
    <glyph glyph-name="uni0270" unicode="&#x270;" horiz-adv-x="1100" 
d="M850 0h-800c-14 -0 -25.833 4.83301 -35.5 14.5s-14.5 21.5 -14.5 35.5v650h150v-550h275v550h150v-550h275v550h150v-1000h-150v300z" />
    <glyph glyph-name="uni0271" unicode="&#x271;" horiz-adv-x="1100" 
d="M850 550h-275v-550h-150v550h-275v-550h-150v700h950c14 0 25.833 -4.83301 35.5 -14.5s14.5 -21.5 14.5 -35.5v-850l-100 -100h-200v150h150v700z" />
    <glyph glyph-name="uni0272" unicode="&#x272;" horiz-adv-x="750" 
d="M0 700h600c14 0 25.833 -4.83301 35.5 -14.5s14.5 -21.5 14.5 -35.5v-650h-150v550h-350v-750l-100 -100h-200v150h150v850z" />
    <glyph glyph-name="uni0273" unicode="&#x273;" horiz-adv-x="750" 
d="M150 550v-550h-150v700h600c14 0 25.833 -4.83301 35.5 -14.5s14.5 -21.5 14.5 -35.5v-650h-150v550h-350zM500 -200v300h150v-250h150v-150h-200z" />
    <glyph glyph-name="uni0274" unicode="&#x274;" 
d="M150 450v-450h-150v700h150l400 -450v450h150v-700h-150z" />
    <glyph glyph-name="uni0275" unicode="&#x275;" 
d="M351 0c-97.333 0 -180.166 34.333 -248.499 103s-102.5 151.334 -102.5 248.001s34.167 179 102.5 247s151.166 102 248.499 102c96.667 0 179 -34 247 -102s102 -150.333 102 -247s-34 -179.334 -102 -248.001s-150.333 -103 -247 -103zM491.5 208.5
c39 39 58.5 86.167 58.5 141.5c0 56 -19.5 103.333 -58.5 142s-86.167 58 -141.5 58s-102.5 -19.333 -141.5 -58s-58.5 -86 -58.5 -142c0 -55.333 19.5 -102.5 58.5 -141.5s86.167 -58.5 141.5 -58.5s102.5 19.5 141.5 58.5zM650 300h-600v100h600v-100z" />
    <glyph glyph-name="uni0276" unicode="&#x276;" horiz-adv-x="900" 
d="M400 150v400h-250v-400h250zM800 700v-150h-250v-100h250v-150h-250v-150h250v-150h-800v700h800z" />
    <glyph glyph-name="uni0277" unicode="&#x277;" horiz-adv-x="1000" 
d="M900 600v-500l-100 -100h-275l-75 76l-75 -76h-275l-100 100v500l100 100h700zM525 550v-400h225v400h-225zM375 550h-225v-400h225v400z" />
    <glyph glyph-name="uni0278" unicode="&#x278;" horiz-adv-x="900" 
d="M800 700v-700h-325v-301h-150v301h-325v700h250v-150h-100v-400h175v550h475zM475 550v-400h175v400h-175z" />
    <glyph glyph-name="uni0279" unicode="&#x279;" horiz-adv-x="700" 
d="M450 150v550h150v-700h-550c-14 -0 -25.833 4.83301 -35.5 14.5s-14.5 21.5 -14.5 35.5v300h150v-200h300z" />
    <glyph glyph-name="uni027A" unicode="&#x27a;" horiz-adv-x="700" 
d="M450 150v850h150v-1000h-550c-14 -0 -25.833 4.83301 -35.5 14.5s-14.5 21.5 -14.5 35.5v300h150v-200h300z" />
    <glyph glyph-name="uni027B" unicode="&#x27b;" horiz-adv-x="700" 
d="M450 0h-400c-14 -0 -25.833 4.83301 -35.5 14.5s-14.5 21.5 -14.5 35.5v300h150v-200h300v550h150v-850h100v-150h-150l-100 100v200z" />
    <glyph glyph-name="uni027C" unicode="&#x27c;" horiz-adv-x="700" 
d="M150 550v-850h-150v1000h550c14 0 25.833 -4.83301 35.5 -14.5s14.5 -21.5 14.5 -35.5v-300h-150v200h-300z" />
    <glyph glyph-name="uni027D" unicode="&#x27d;" horiz-adv-x="700" 
d="M150 -150h100v-150h-150l-100 100v900h550c14 0 25.833 -4.83301 35.5 -14.5s14.5 -21.5 14.5 -35.5v-300h-150v200h-300v-700z" />
    <glyph glyph-name="uni027E" unicode="&#x27e;" horiz-adv-x="700" 
d="M450 550h-300v-550h-150v650c-0 14 4.83301 25.833 14.5 35.5s21.5 14.5 35.5 14.5h550v-350h-150v200z" />
    <glyph glyph-name="uni027F" unicode="&#x27f;" horiz-adv-x="700" 
d="M150 550v-200h-150v350h550c14 0 25.833 -4.83301 35.5 -14.5s14.5 -21.5 14.5 -35.5v-950h-150v850h-300z" />
    <glyph glyph-name="uni0280" unicode="&#x280;" 
d="M553 549h-300v-124h300v124zM103 550h-100v150h700v-425h-157l254 -275h-216l-254 275h-77v-275h-150v550z" />
    <glyph glyph-name="uni0281" unicode="&#x281;" 
d="M553 151v124h-300v-124h300zM103 150v550h150v-275h77l254 275h216l-254 -275h157v-425h-700v150h100z" />
    <glyph glyph-name="uni0282" unicode="&#x282;" horiz-adv-x="650" 
d="M0 150h353l-353 400v150h550v-150h-342l342 -400v-150h-400v-150h150v-150h-200l-100 100v350z" />
    <glyph glyph-name="uni0283" unicode="&#x283;" horiz-adv-x="400" 
d="M0 -150v1150h300v-150h-150v-1150h-250v150h100z" />
    <glyph glyph-name="uni0284" unicode="&#x284;" horiz-adv-x="502" 
d="M0 -150v1150h300v-150h-150v-1150h-250v150h100zM401 0h-599l-1 100h599z" />
    <glyph glyph-name="uni0285" unicode="&#x285;" horiz-adv-x="400" 
d="M300 -150h100v-150h-250v850h-150v150h300v-850z" />
    <glyph glyph-name="uni0286" unicode="&#x286;" horiz-adv-x="600" 
d="M200 0h-100v-200h100v200zM350 850v-750h150v-100h-150v-300h-250l-100 100v200l100 100h100v900h300v-150h-150z" />
    <glyph glyph-name="uni0287" unicode="&#x287;" horiz-adv-x="550" 
d="M200 450v400h-200v150h350v-550h100v-150h-100v-100l-150 -200v300h-200v150h200z" />
    <glyph glyph-name="uni0288" unicode="&#x288;" horiz-adv-x="550" 
d="M250 550v-700h200v-150h-250l-100 100v750h-100v150h100v100l150 200v-300h200v-150h-200z" />
    <glyph glyph-name="uni0289" unicode="&#x289;" horiz-adv-x="750" 
d="M500 150v550h150v-700h-600c-14 -0 -25.833 4.83301 -35.5 14.5s-14.5 21.5 -14.5 35.5v650h150v-550h350zM825 300h-1000v100h1000v-100z" />
    <glyph glyph-name="uni028A" unicode="&#x28a;" 
d="M300 550l-150 -290v-110h400v110l-150 290v150h300v-150h-130l130 -250v-300h-700v300l130 250h-130v150h300v-150z" />
    <glyph glyph-name="uni028B" unicode="&#x28b;" horiz-adv-x="700" 
d="M0 250v450h150v-380l150 -140l150 140v230h-150v150h200l100 -100v-350l-300 -300z" />
    <glyph glyph-name="uni028C" unicode="&#x28c;" 
d="M435 700l315 -700h-170l-230 511l-230 -511h-170l315 700h170z" />
    <glyph glyph-name="uni028D" unicode="&#x28d;" horiz-adv-x="1050" 
d="M772 700l228 -700h-160l-143 459l-142 -459h-160l-142 459l-143 -459h-160l228 700h150l147 -453l147 453h150z" />
    <glyph glyph-name="uni028E" unicode="&#x28e;" horiz-adv-x="790" 
d="M391 1000h183l-136 -307l306 -693h-183l-214 485l-214 -485h-183z" />
    <glyph glyph-name="uni028F" unicode="&#x28f;" horiz-adv-x="700" 
d="M225 225l-275 475h175l175 -293l175 293h175l-275 -475v-225h-150v225z" />
    <glyph glyph-name="uni0290" unicode="&#x290;" horiz-adv-x="699" 
d="M150 550v-150h-150v300h601l-358 -550h207v150h150v-300h-636l358 550h-172zM450 -200v300h150v-250h150v-150h-200z" />
    <glyph glyph-name="uni0291" unicode="&#x291;" horiz-adv-x="700" 
d="M-36 0l195 300h-59v100h-100v300h601l-195 -300h94l100 -100v-200l-100 -100h-536zM224 400l98 150h-172v-150h74zM341 300l-98 -150h257v150h-159z" />
    <glyph glyph-name="uni0292" unicode="&#x292;" 
d="M50 200l352 350h-252v-150h-150v300h750l-340 -350h290v-650h-700v300h150v-150h400v350h-500z" />
    <glyph glyph-name="uni0293" unicode="&#x293;" 
d="M550 -50h-400v-100h400v100zM550 100v100h-500l352 350h-252v-150h-150v300h750l-340 -350h290v-250h100v-150h-100v-250h-700v400h550z" />
    <glyph glyph-name="uni0294" unicode="&#x294;" horiz-adv-x="700" 
d="M350 0h-150v450h250v400h-450v150h600v-700h-250v-300z" />
    <glyph glyph-name="uni0295" unicode="&#x295;" horiz-adv-x="700" 
d="M250 0h150v450h-250v400h450v150h-600v-700h250v-300z" />
    <glyph glyph-name="uni0296" unicode="&#x296;" horiz-adv-x="700" 
d="M350 1000h-150v-450h250v-400h-450v-150h600v700h-250v300z" />
    <glyph glyph-name="uni0297" unicode="&#x297;" horiz-adv-x="751" 
d="M0 350c0 97.333 34.167 180.002 102.5 248.002s151.166 102 248.499 102c96.667 0 179 -34 247 -102c44 -44 73.667 -93.667 89 -149h-162c-8.66699 15.333 -19.667 29.666 -33 42.999c-39.333 38.667 -86.666 58 -141.999 58s-102.5 -19.333 -141.5 -58
s-58.5 -86 -58.5 -142v-300c0 -56 19.5 -103.333 58.5 -142s86.167 -58 141.5 -58s102.666 19.333 141.999 58c13.333 13.333 24.333 27.666 33 42.999h162c-15.333 -55.333 -45 -105 -89 -149c-68 -68 -150.333 -102 -247 -102c-97.333 0 -180.166 34 -248.499 102
s-102.5 150.667 -102.5 248v300z" />
    <glyph glyph-name="uni0298" unicode="&#x298;" horiz-adv-x="900" 
d="M0 1000h800v-1000h-800v1000zM150 850v-700h500v700h-500zM475 425h-150v150h150v-150z" />
    <glyph glyph-name="uni0299" unicode="&#x299;" horiz-adv-x="750" 
d="M0 700h651v-700h-651v700zM501 550h-351v-125h351v125zM150 150h351v125h-351v-125z" />
    <glyph glyph-name="uni029A" unicode="&#x29a;" horiz-adv-x="700" 
d="M450 150v400h-300v-125h250v-150h-250v-125h300zM600 700v-700h-600v275l75 75l-75 75v275h600z" />
    <glyph glyph-name="uni029B" unicode="&#x29b;" horiz-adv-x="750" 
d="M650 550h-500v-400h350v125h-200v150h350v-425h-650v700h500v200l100 100h150v-150h-100v-300z" />
    <glyph glyph-name="uni029C" unicode="&#x29c;" horiz-adv-x="750" 
d="M500 700h150v-700h-150v275h-350v-275h-150v700h150v-275h350v275z" />
    <glyph glyph-name="uni029D" unicode="&#x29d;" horiz-adv-x="550" 
d="M300 800v200h150v-200h-150zM100 -200h200v200h-200v-200zM450 0v-200l-100 -100h-250l-100 100v200l100 100h200v600h150v-600h50v-100h-50z" />
    <glyph glyph-name="uni029E" unicode="&#x29e;" horiz-adv-x="700" 
d="M450 414v286h150v-1000h-150v579l-272 -279h-214l334 350l-334 350h214z" />
    <glyph glyph-name="uni029F" unicode="&#x29f;" horiz-adv-x="600" 
d="M500 0h-500v700h150v-550h350v-150z" />
    <glyph glyph-name="uni02A0" unicode="&#x2a0;" 
d="M550 550h-400v-400h400v400zM700 -300h-150v300h-500c-14 -0 -25.833 4.83301 -35.5 14.5s-14.5 21.5 -14.5 35.5v600c-0 13.333 4.83301 25 14.5 35s21.5 15 35.5 15h500v200l100 100h150v-150h-100v-1150z" />
    <glyph glyph-name="uni02A1" unicode="&#x2a1;" horiz-adv-x="700" 
d="M350 0h-150v450h250v400h-450v150h600v-700h-250v-300zM601 100h-599l-1 100h599z" />
    <glyph glyph-name="uni02A2" unicode="&#x2a2;" horiz-adv-x="700" 
d="M250 0h150v450h-250v400h450v150h-600v-700h250v-300zM-1 100h599l1 100h-599z" />
    <glyph glyph-name="uni02A3" unicode="&#x2a3;" horiz-adv-x="1300" 
d="M0 700h550v300h150v-1000h-700v700zM550 150v400h-400v-400h400zM749 550v-150h-150v300h601l-358 -550h207v150h150v-300h-636l358 550h-172z" />
    <glyph glyph-name="uni02A4" unicode="&#x2a4;" horiz-adv-x="1400" 
d="M0 700h550v300h150v-1000h-700v700zM550 150v400h-400v-400h400zM650 200l352 350h-252v-150h-150v300h750l-340 -350h290v-650h-700v300h150v-150h400v350h-500z" />
    <glyph glyph-name="uni02A5" unicode="&#x2a5;" horiz-adv-x="1300" 
d="M0 700h550v300h150v-1000h-700v700zM550 150v400h-400v-400h400zM564 0l195 300h-59v100h-100v300h601l-195 -300h94l100 -100v-200l-100 -100h-536zM824 400l98 150h-172v-150h74zM941 300l-98 -150h257v150h-159z" />
    <glyph glyph-name="uni02A6" unicode="&#x2a6;" horiz-adv-x="1000" 
d="M250 550v-400h200v-150h-350v550h-100v150h100v100l150 200v-300h200v-150h-200zM900 150v-150h-550v150h353l-353 400v150h550v-150h-342z" />
    <glyph glyph-name="uni02A7" unicode="&#x2a7;" 
d="M250 550v-400h200v-150h-350v550h-100v150h100v100l150 200v-300h200v-150h-200zM400 -150v1150h300v-150h-150v-1150h-250v150h100z" />
    <glyph glyph-name="uni02A8" unicode="&#x2a8;" horiz-adv-x="1100" 
d="M250 550v-400h200v-150h-350v550h-100v150h100v100l150 200v-300h200v-150h-200zM650 0c-96.667 0 -179.001 34.335 -247.001 103.002c-56 56 -89.333 121.667 -100 197h-103v100h103c10 76 43.333 142 100 198c68 68 150.667 102 248 102c96.667 0 179 -34 247 -102
c44 -44 73.667 -93.667 89 -149h-162c-8.66699 15.333 -19.667 29.666 -33 42.999c-39.333 38.667 -86.666 58 -141.999 58s-102.333 -19.333 -141 -58c-27.333 -26.667 -45 -57.334 -53 -92.001h444l100 -100v-200l-100 -100h-250zM455.999 300.002
c8 -34 25.667 -64.333 53 -91c38.667 -39.333 85.667 -59 141 -59h250v150h-444z" />
    <glyph glyph-name="uni02A9" unicode="&#x2a9;" horiz-adv-x="1200" 
d="M250 400v-400h-150v400h-100v150h100v450h450v-350h-150v200h-150v-300h200v-150h-200zM950 -150v700h-350v-550h-150v700h600c14 0 25.833 -4.83301 35.5 -14.5s14.5 -21.5 14.5 -35.5v-900c0 -14 -4.83301 -25.833 -14.5 -35.5s-21.5 -14.5 -35.5 -14.5h-300v150h200z
" />
    <glyph glyph-name="uni02AA" unicode="&#x2aa;" 
d="M0 0v1000h150v-1000h-150zM700 150v-150h-550v150h353l-353 400v150h550v-150h-342z" />
    <glyph glyph-name="uni02AB" unicode="&#x2ab;" 
d="M0 0v1000h150v-1000h-150zM249 550v-150h-150v300h601l-358 -550h207v150h150v-300h-636l358 550h-172z" />
    <glyph glyph-name="uni02AC" unicode="&#x2ac;" horiz-adv-x="600" 
d="M69 600l-119 400h126l55 -229l66 229h123l66 -229l55 229h126l-120 -400h-122l-66 228l-67 -228h-123zM69 0l-119 400h126l55 -229l66 229h123l66 -229l55 229h126l-120 -400h-122l-66 228l-67 -228h-123z" />
    <glyph glyph-name="uni02AD" unicode="&#x2ad;" horiz-adv-x="700" 
d="M0 1000h600v-300h-150v150h-300v-150h-150v300zM0 300h600v-300h-150v150h-300v-150h-150v300z" />
    <glyph glyph-name="uni02AE" unicode="&#x2ae;" horiz-adv-x="850" 
d="M250 600v-450h350v550h150v-1000h-150v300h-500v550h-100v150h150z" />
    <glyph glyph-name="uni02AF" unicode="&#x2af;" horiz-adv-x="850" 
d="M600 -200v200h-500v550h-100v150h150l100 -100v-450h350v550h150v-850h100v-150h-150z" />
    <glyph glyph-name="uni02B0" unicode="&#x2b0;" horiz-adv-x="376" 
d="M0 750h75v-150h250v-350h-75v275h-175v-275h-75v500z" />
    <glyph glyph-name="uni02B1" unicode="&#x2b1;" horiz-adv-x="375" 
d="M75 675v-75h250v-350h-75v275h-175v-275h-75v450l50 50h100v-75h-75z" />
    <glyph glyph-name="uni02B2" unicode="&#x2b2;" horiz-adv-x="125" 
d="M0 675v75h75v-75h-75zM0 600h75v-500h-100v75h25v425z" />
    <glyph glyph-name="uni02B3" unicode="&#x2b3;" horiz-adv-x="350" 
d="M75 525v-275h-75v350h275c7.33301 0 13.333 -2.33301 18 -7s7 -10.667 7 -18v-150h-75v100h-150z" />
    <glyph glyph-name="uni02B4" unicode="&#x2b4;" horiz-adv-x="350" 
d="M225 325v275h75v-350h-275c-6.66699 0 -12.5 2.5 -17.5 7.5s-7.5 10.833 -7.5 17.5v150h75v-100h150z" />
    <glyph glyph-name="uni02B5" unicode="&#x2b5;" horiz-adv-x="350" 
d="M225 250h-200c-6.66699 0 -12.5 2.5 -17.5 7.5s-7.5 10.833 -7.5 17.5v150h75v-100h150v275h75v-425h50v-75h-75l-50 50v100z" />
    <glyph glyph-name="uni02B6" unicode="&#x2b6;" horiz-adv-x="400" 
d="M277 326v62h-150v-62h150zM52 325v275h75v-137h38l127 137h108l-127 -137h79v-213h-350v75h50z" />
    <glyph glyph-name="uni02B7" unicode="&#x2b7;" horiz-adv-x="525" 
d="M88 250l-113 350h85l68 -220l67 220h85l68 -220l67 220h85l-112 -350h-80l-70 218l-70 -218h-80z" />
    <glyph glyph-name="uni02B8" unicode="&#x2b8;" horiz-adv-x="400" 
d="M152 100h-91l68 154l-153 346h91l107 -242l107 242h92z" />
    <glyph glyph-name="uni02B9" unicode="&#x2b9;" horiz-adv-x="250" 
d="M0 800v200h150v-200l-50 -200h-50z" />
    <glyph glyph-name="uni02BA" unicode="&#x2ba;" horiz-adv-x="600" 
d="M0 800v200h150v-200l-50 -200h-50zM350 800v200h150v-200l-50 -200h-50z" />
    <glyph glyph-name="uni02BB" unicode="&#x2bb;" horiz-adv-x="205" 
d="M30.001 715.009h70.001v-105.001h-105.002v280.004h35.001v-175.003z" />
    <glyph glyph-name="uni02BC" unicode="&#x2bc;" horiz-adv-x="205" 
d="M70.001 785.011h-70.001v105.001h105.002v-280.004h-35.001v175.003z" />
    <glyph glyph-name="uni02BD" unicode="&#x2bd;" horiz-adv-x="205" 
d="M29.999 785.011h70.001v105.001h-105.002v-280.004h35.001v175.003z" />
    <glyph glyph-name="uni02BE" unicode="&#x2be;" horiz-adv-x="100" 
d="M0 942v58.001c27.333 0 50.833 -9.83301 70.5 -29.5s29.5 -43.167 29.5 -70.5c0 -28 -9.83301 -51.667 -29.5 -71s-43.167 -29 -70.5 -29v57c12 0 22.167 4.16699 30.5 12.5s12.5 18.166 12.5 29.499c0 12 -4.16699 22.167 -12.5 30.5s-18.5 12.5 -30.5 12.5z" />
    <glyph glyph-name="uni02BF" unicode="&#x2bf;" horiz-adv-x="100" 
d="M100 942c-12 0 -22.167 -4.16797 -30.5 -12.501s-12.5 -18.5 -12.5 -30.5c0 -11.333 4.16699 -21.166 12.5 -29.499s18.5 -12.5 30.5 -12.5v-57c-27.333 0 -50.833 9.66699 -70.5 29s-29.5 43 -29.5 71c-0 27.333 9.83301 50.833 29.5 70.5s43.167 29.5 70.5 29.5v-58z
" />
    <glyph glyph-name="uni02C0" unicode="&#x2c0;" horiz-adv-x="500" 
 />
    <glyph glyph-name="uni02C1" unicode="&#x2c1;" horiz-adv-x="500" 
 />
    <glyph glyph-name="uni02C2" unicode="&#x2c2;" horiz-adv-x="700" 
d="M0 575l600 225v-150l-400 -150l400 -150v-150l-600 225v150z" />
    <glyph glyph-name="uni02C3" unicode="&#x2c3;" horiz-adv-x="700" 
d="M600 575v-150l-600 -225v150l400 150l-400 150v150z" />
    <glyph glyph-name="uni02C4" unicode="&#x2c4;" horiz-adv-x="700" 
d="M375 800l225 -600h-150l-150 400l-150 -400h-150l225 600h150z" />
    <glyph glyph-name="uni02C5" unicode="&#x2c5;" horiz-adv-x="700" 
d="M375 200h-150l-225 600h150l150 -400l150 400h150z" />
    <glyph glyph-name="circumflex" unicode="&#x2c6;" horiz-adv-x="600" 
d="M350 1000l150 -200h-200l-50 67l-50 -67h-200l150 200h200z" />
    <glyph glyph-name="caron" unicode="&#x2c7;" horiz-adv-x="600" 
d="M150 800l-150 200h200l50 -67l50 67h200l-150 -200h-200z" />
    <glyph glyph-name="uni02C8" unicode="&#x2c8;" horiz-adv-x="250" 
d="M0 728.005v271.973h50v-271.973h-50z" />
    <glyph glyph-name="uni02C9" unicode="&#x2c9;" horiz-adv-x="650" 
d="M0 800v150h550v-150h-550z" />
    <glyph glyph-name="uni02CA" unicode="&#x2ca;" horiz-adv-x="500" 
d="M400 1000l-200 -200h-200l200 250z" />
    <glyph glyph-name="uni02CB" unicode="&#x2cb;" horiz-adv-x="500" 
d="M200 1050l200 -250h-200l-200 200z" />
    <glyph glyph-name="uni02CC" unicode="&#x2cc;" horiz-adv-x="250" 
d="M0 332.005v271.973h50v-271.973h-50z" />
    <glyph glyph-name="uni02CD" unicode="&#x2cd;" 
d="M0 -276v150h700v-150h-700z" />
    <glyph glyph-name="uni02CE" unicode="&#x2ce;" horiz-adv-x="500" 
d="M200 -50l200 -250h-200l-200 200z" />
    <glyph glyph-name="uni02CF" unicode="&#x2cf;" horiz-adv-x="500" 
d="M400 -100l-200 -200h-200l200 250z" />
    <glyph glyph-name="uni02D0" unicode="&#x2d0;" horiz-adv-x="300" 
d="M100 500l-100 200h200zM200 0h-200l100 200z" />
    <glyph glyph-name="uni02D1" unicode="&#x2d1;" horiz-adv-x="300" 
d="M100 500l-100 200h200z" />
    <glyph glyph-name="uni02D2" unicode="&#x2d2;" horiz-adv-x="100" 
d="M0 542v58.001c27.333 0 50.833 -9.83301 70.5 -29.5s29.5 -43.167 29.5 -70.5c0 -28 -9.83301 -51.667 -29.5 -71s-43.167 -29 -70.5 -29v57c12 0 22.167 4.16699 30.5 12.5s12.5 18.166 12.5 29.499c0 12 -4.16699 22.167 -12.5 30.5s-18.5 12.5 -30.5 12.5z" />
    <glyph glyph-name="uni02D3" unicode="&#x2d3;" horiz-adv-x="100" 
d="M100 542c-12 0 -22.167 -4.16797 -30.5 -12.501s-12.5 -18.5 -12.5 -30.5c0 -11.333 4.16699 -21.166 12.5 -29.499s18.5 -12.5 30.5 -12.5v-57c-27.333 0 -50.833 9.66699 -70.5 29s-29.5 43 -29.5 71c-0 27.333 9.83301 50.833 29.5 70.5s43.167 29.5 70.5 29.5v-58z
" />
    <glyph glyph-name="uni02D4" unicode="&#x2d4;" horiz-adv-x="500" 
 />
    <glyph glyph-name="uni02D5" unicode="&#x2d5;" horiz-adv-x="500" 
 />
    <glyph glyph-name="uni02D6" unicode="&#x2d6;" horiz-adv-x="500" 
d="M162.5 -237.5h-162.5v75h162.5v162h75v-162h162.5v-75h-162.5v-162.5h-75v162.5z" />
    <glyph glyph-name="uni02D7" unicode="&#x2d7;" horiz-adv-x="400" 
d="M300 -236h-300v75h300v-75z" />
    <glyph glyph-name="breve" unicode="&#x2d8;" horiz-adv-x="550" 
d="M100 800l-100 100v150h150v-100h150v100h150v-150l-100 -100h-250z" />
    <glyph glyph-name="dotaccent" unicode="&#x2d9;" horiz-adv-x="1068" 
d="M0 800v200h200v-200h-200z" />
    <glyph glyph-name="ring" unicode="&#x2da;" horiz-adv-x="300" 
d="M100 800c-27.333 0 -50.833 9.83301 -70.5 29.5s-29.5 43.167 -29.5 70.5c-0 28 9.83301 51.667 29.5 71s43.167 29 70.5 29c28 0 51.667 -9.66699 71 -29s29 -43 29 -71c0 -27.333 -9.66699 -50.833 -29 -70.5s-43 -29.5 -71 -29.5zM130.5 869.5
c8.33301 8.33301 12.5 18.5 12.5 30.5s-4.16699 22.167 -12.5 30.5s-18.5 12.5 -30.5 12.5s-22.167 -4.16699 -30.5 -12.5s-12.5 -18.5 -12.5 -30.5s4.16699 -22.167 12.5 -30.5s18.5 -12.5 30.5 -12.5s22.167 4.16699 30.5 12.5z" />
    <glyph glyph-name="ogonek" unicode="&#x2db;" horiz-adv-x="500" 
d="M170 -250h230v-150h-400v150l230 250h170z" />
    <glyph glyph-name="tilde" unicode="&#x2dc;" horiz-adv-x="700" 
d="M225 900l-75 -100h-150l150 200h150l75 -100l75 100h150l-150 -200h-150z" />
    <glyph glyph-name="hungarumlaut" unicode="&#x2dd;" 
d="M400 1000l-200 -200h-200l200 250zM700 1000l-200 -200h-200l200 250z" />
    <glyph glyph-name="uni02DE" unicode="&#x2de;" horiz-adv-x="500" 
d="M100 550h-100v150h250v-250h150v-150h-200l-100 100v150z" />
    <glyph glyph-name="uni02DF" unicode="&#x2df;" horiz-adv-x="500" 
d="M192 -264l-125 -136h-117l183.5 200l-183.5 200h116.5l125.5 -136.5l125 136.5h116.5l-183.5 -200l183.5 -200h-117z" />
    <glyph glyph-name="uni02E0" unicode="&#x2e0;" horiz-adv-x="400" 
d="M230 101v-1h-220l110 204l-160 296h91l115 -211l114 211h92l-160 -296l110 -204h-92v1zM142 175h47l-23 44z" />
    <glyph glyph-name="uni02E1" unicode="&#x2e1;" horiz-adv-x="125" 
d="M0 250v500h75v-500h-75z" />
    <glyph glyph-name="uni02E2" unicode="&#x2e2;" horiz-adv-x="325" 
d="M275 325v-75h-275v75h177l-177 200v75h275v-75h-171z" />
    <glyph glyph-name="uni02E3" unicode="&#x2e3;" horiz-adv-x="350" 
d="M199 425l128 -175h-97l-79 109l-79 -109h-97l127 175l-127 175h97l79 -108l79 108h97z" />
    <glyph glyph-name="uni02E4" unicode="&#x2e4;" horiz-adv-x="500" 
 />
    <glyph glyph-name="uni02E5" unicode="&#x2e5;" horiz-adv-x="500" 
d="M400 0h-150v1000h150v-1000zM300 900h-300v100h300v-100z" />
    <glyph glyph-name="uni02E6" unicode="&#x2e6;" horiz-adv-x="500" 
d="M400 0h-150v1000h150v-1000zM300 600h-300v100h300v-100z" />
    <glyph glyph-name="uni02E7" unicode="&#x2e7;" horiz-adv-x="500" 
d="M400 0h-150v1000h150v-1000zM300 450h-300v100h300v-100z" />
    <glyph glyph-name="uni02E8" unicode="&#x2e8;" horiz-adv-x="500" 
d="M400 0h-150v1000h150v-1000zM300 300h-300v100h300v-100z" />
    <glyph glyph-name="uni02E9" unicode="&#x2e9;" horiz-adv-x="500" 
d="M400 0h-150v1000h150v-1000zM300 0h-300v100h300v-100z" />
    <glyph glyph-name="uni02EA" unicode="&#x2ea;" horiz-adv-x="500" 
 />
    <glyph glyph-name="uni02EB" unicode="&#x2eb;" horiz-adv-x="500" 
 />
    <glyph glyph-name="uni02EC" unicode="&#x2ec;" horiz-adv-x="600" 
d="M150 -200l-150 200h200l50 -67l50 67h200l-150 -200h-200z" />
    <glyph glyph-name="uni02ED" unicode="&#x2ed;" horiz-adv-x="519" 
d="M420.008 1000h-420.008v100h420.008v-100zM420.008 800h-420.008v100h420.008v-100z" />
    <glyph glyph-name="uni02EE" unicode="&#x2ee;" horiz-adv-x="600" 
d="M450 550h-100v150h150v-400h-50v250zM100 550h-100v150h150v-400h-50v250z" />
    <glyph glyph-name="uni02EF" unicode="&#x2ef;" horiz-adv-x="500" 
 />
    <glyph glyph-name="uni02F0" unicode="&#x2f0;" horiz-adv-x="500" 
 />
    <glyph glyph-name="uni02F1" unicode="&#x2f1;" horiz-adv-x="500" 
 />
    <glyph glyph-name="uni02F2" unicode="&#x2f2;" horiz-adv-x="500" 
 />
    <glyph glyph-name="uni02F3" unicode="&#x2f3;" horiz-adv-x="300" 
d="M100 -400c-27.333 0 -50.833 9.83301 -70.5 29.5s-29.5 43.167 -29.5 70.5c-0 28 9.83301 51.667 29.5 71s43.167 29 70.5 29c28 0 51.667 -9.66699 71 -29s29 -43 29 -71c0 -27.333 -9.66699 -50.833 -29 -70.5s-43 -29.5 -71 -29.5zM130.5 -330.5
c8.33301 8.33301 12.5 18.5 12.5 30.5s-4.16699 22.167 -12.5 30.5s-18.5 12.5 -30.5 12.5s-22.167 -4.16699 -30.5 -12.5s-12.5 -18.5 -12.5 -30.5s4.16699 -22.167 12.5 -30.5s18.5 -12.5 30.5 -12.5s22.167 4.16699 30.5 12.5z" />
    <glyph glyph-name="uni02F4" unicode="&#x2f4;" horiz-adv-x="500" 
d="M200 625l200 -250h-200l-200 200z" />
    <glyph glyph-name="uni02F5" unicode="&#x2f5;" horiz-adv-x="782" 
d="M200 625l200 -250h-200l-200 200zM482 625l200 -250h-200l-200 200z" />
    <glyph glyph-name="uni02F6" unicode="&#x2f6;" 
d="M400 575l-200 -200h-200l200 250zM700 575l-200 -200h-200l200 250z" />
    <glyph glyph-name="uni02F7" unicode="&#x2f7;" horiz-adv-x="700" 
d="M225 -201l-75 -100h-150l150 200h150l75 -100l75 100h150l-150 -200h-150z" />
    <glyph glyph-name="uni02F8" unicode="&#x2f8;" horiz-adv-x="250" 
d="M150 700h-150v150h150v-150zM150 1250h-150v150h150v-150z" />
    <glyph glyph-name="uni02F9" unicode="&#x2f9;" horiz-adv-x="500" 
 />
    <glyph glyph-name="uni02FA" unicode="&#x2fa;" horiz-adv-x="500" 
 />
    <glyph glyph-name="uni02FB" unicode="&#x2fb;" horiz-adv-x="500" 
 />
    <glyph glyph-name="uni02FC" unicode="&#x2fc;" horiz-adv-x="500" 
 />
    <glyph glyph-name="uni02FD" unicode="&#x2fd;" horiz-adv-x="700" 
d="M0 -300v300h150v-150h300v150h150v-300h-600z" />
    <glyph glyph-name="uni02FE" unicode="&#x2fe;" horiz-adv-x="700" 
d="M0 -300v300h150v-150h450v-150h-600z" />
    <glyph glyph-name="uni02FF" unicode="&#x2ff;" horiz-adv-x="500" 
 />
    <glyph glyph-name="gravecomb" unicode="&#x300;" horiz-adv-x="0" 
d="M-227 1050l200 -250h-200l-200 200z" />
    <glyph glyph-name="acutecomb" unicode="&#x301;" horiz-adv-x="0" 
d="M-9 1000l-200 -200h-200l200 250z" />
    <glyph glyph-name="uni0302" unicode="&#x302;" horiz-adv-x="0" 
d="M-132 1000l150 -200h-200l-50 67l-50 -67h-200l150 200h200z" />
    <glyph glyph-name="tildecomb" unicode="&#x303;" horiz-adv-x="0" 
d="M-239 900l-75 -100h-150l150 200h150l75 -100l75 100h150l-150 -200h-150z" />
    <glyph glyph-name="uni0304" unicode="&#x304;" horiz-adv-x="0" 
d="M-550 800v150h550v-150h-550z" />
    <glyph glyph-name="uni0305" unicode="&#x305;" horiz-adv-x="0" 
d="M0 1000h-600v100h600v-100z" />
    <glyph glyph-name="uni0306" unicode="&#x306;" horiz-adv-x="0" 
d="M-364 800l-100 100v150h150v-100h150v100h150v-150l-100 -100h-250z" />
    <glyph glyph-name="uni0307" unicode="&#x307;" horiz-adv-x="0" 
d="M-372 800v200h200v-200h-200z" />
    <glyph glyph-name="uni0308" unicode="&#x308;" horiz-adv-x="0" 
d="M-320 850h-150v150h150v-150zM30 850h-150v150h150v-150z" />
    <glyph glyph-name="hookabovecomb" unicode="&#x309;" horiz-adv-x="0" 
d="M-300 1050h300v-250h-200v-100h-100v200h200v50h-200v100z" />
    <glyph glyph-name="uni030A" unicode="&#x30a;" horiz-adv-x="0" 
d="M-100 800c-27.333 0 -50.833 9.83301 -70.5 29.5s-29.5 43.167 -29.5 70.5c0 28 9.83301 51.667 29.5 71s43.167 29 70.5 29c28 0 51.667 -9.66699 71 -29s29 -43 29 -71c-0 -27.333 -9.66699 -50.833 -29 -70.5s-43 -29.5 -71 -29.5zM-69.5 869.5
c8.33301 8.33301 12.5 18.5 12.5 30.5s-4.16699 22.167 -12.5 30.5s-18.5 12.5 -30.5 12.5s-22.167 -4.16699 -30.5 -12.5s-12.5 -18.5 -12.5 -30.5s4.16699 -22.167 12.5 -30.5s18.5 -12.5 30.5 -12.5s22.167 4.16699 30.5 12.5z" />
    <glyph glyph-name="uni030B" unicode="&#x30b;" horiz-adv-x="0" 
d="M-300 1000l-200 -200h-200l200 250zM0 1000l-200 -200h-200l200 250z" />
    <glyph glyph-name="uni030C" unicode="&#x30c;" horiz-adv-x="0" 
d="M-332 800l-150 200h200l50 -67l50 67h200l-150 -200h-200z" />
    <glyph glyph-name="uni030D" unicode="&#x30d;" horiz-adv-x="0" 
d="M-336 728.005v271.973h50v-271.973h-50z" />
    <glyph glyph-name="uni030E" unicode="&#x30e;" horiz-adv-x="0" 
d="M-381 728.005v271.973h50v-271.973h-50zM-254 728.005v271.973h50v-271.973h-50z" />
    <glyph glyph-name="uni030F" unicode="&#x30f;" horiz-adv-x="0" 
d="M-482 1050l200 -250h-200l-200 200zM-200 1050l200 -250h-200l-200 200z" />
    <glyph glyph-name="uni0310" unicode="&#x310;" horiz-adv-x="0" 
d="M-350 750l-100 100v150h150v-100h150v100h150v-150l-100 -100h-250zM-325 1100v200h200v-200h-200z" />
    <glyph glyph-name="uni0311" unicode="&#x311;" horiz-adv-x="0" 
d="M-100 1000l100 -100v-150h-150v100h-150v-100h-150v150l100 100h250z" />
    <glyph glyph-name="uni0312" unicode="&#x312;" horiz-adv-x="0" 
d="M-100 800h100v-150h-150v350h50v-200z" />
    <glyph glyph-name="uni0313" unicode="&#x313;" horiz-adv-x="0" 
d="M-50 850h-100v150h150v-350h-50v200z" />
    <glyph glyph-name="uni0314" unicode="&#x314;" horiz-adv-x="0" 
d="M-100 850v-200h-50v350h150v-150h-100z" />
    <glyph glyph-name="uni0315" unicode="&#x315;" horiz-adv-x="0" 
d="M-50 850h-100v150h150v-350h-50v200z" />
    <glyph glyph-name="uni0316" unicode="&#x316;" horiz-adv-x="0" 
d="M-227 -50l200 -250h-200l-200 200z" />
    <glyph glyph-name="uni0317" unicode="&#x317;" horiz-adv-x="0" 
d="M-9 -100l-200 -200h-200l200 250z" />
    <glyph glyph-name="uni0318" unicode="&#x318;" horiz-adv-x="0" 
d="M102 -258h-65v73h-156v65h156v72h65v-210z" />
    <glyph glyph-name="uni0319" unicode="&#x319;" horiz-adv-x="0" 
d="M119 -185h-156v-73h-65v210h65v-72h156v-65z" />
    <glyph glyph-name="uni031A" unicode="&#x31a;" horiz-adv-x="700" 
d="M0 1100h600v-300h-150v150h-450v150z" />
    <glyph glyph-name="uni031B" unicode="&#x31b;" horiz-adv-x="0" 
d="M250 650v200h-100v150h150v-400h-300v50h250z" />
    <glyph glyph-name="uni031C" unicode="&#x31c;" horiz-adv-x="0" 
d="M61 -274c-34.667 0 -64 12.167 -88 36.5s-36 53.833 -36 88.5s12 64 36 88s53.333 36 88 36v-68c-16 0 -29.5 -5.5 -40.5 -16.5s-16.5 -24.167 -16.5 -39.5c0 -16 5.5 -29.5 16.5 -40.5s24.5 -16.5 40.5 -16.5v-68z" />
    <glyph glyph-name="uni031D" unicode="&#x31d;" horiz-adv-x="0" 
d="M110 -258h-221v65h78v145h65v-145h78v-65z" />
    <glyph glyph-name="uni031E" unicode="&#x31e;" horiz-adv-x="0" 
d="M110 -113h-78v-145h-65v145h-78v65h221v-65z" />
    <glyph glyph-name="uni031F" unicode="&#x31f;" horiz-adv-x="0" 
d="M-250.992 -269.989h-130.008v60.0029h130.008v129.608h60.0039v-129.608h130.008v-60.0029h-130.008v-130.009h-60.0039v130.009z" />
    <glyph glyph-name="uni0320" unicode="&#x320;" horiz-adv-x="0" 
d="M-140.985 -290.39h-240.015v60.0039h240.015v-60.0039z" />
    <glyph glyph-name="uni0321" unicode="&#x321;" horiz-adv-x="0" 
d="M0 -200l-100 -100h-200v150h150v250h150v-300z" />
    <glyph glyph-name="uni0322" unicode="&#x322;" horiz-adv-x="0" 
d="M-300 -200v300h150v-250h150v-150h-200z" />
    <glyph glyph-name="dotbelowcomb" unicode="&#x323;" horiz-adv-x="0" 
d="M-342 -301v200h200v-200h-200z" />
    <glyph glyph-name="uni0324" unicode="&#x324;" horiz-adv-x="0" 
d="M-277 -276h-150v150h150v-150zM73 -276h-150v150h150v-150z" />
    <glyph glyph-name="uni0325" unicode="&#x325;" horiz-adv-x="0" 
d="M-100 -400c-27.333 0 -50.833 9.83301 -70.5 29.5s-29.5 43.167 -29.5 70.5c0 28 9.83301 51.667 29.5 71s43.167 29 70.5 29c28 0 51.667 -9.66699 71 -29s29 -43 29 -71c-0 -27.333 -9.66699 -50.833 -29 -70.5s-43 -29.5 -71 -29.5zM-69.5 -330.5
c8.33301 8.33301 12.5 18.5 12.5 30.5s-4.16699 22.167 -12.5 30.5s-18.5 12.5 -30.5 12.5s-22.167 -4.16699 -30.5 -12.5s-12.5 -18.5 -12.5 -30.5s4.16699 -22.167 12.5 -30.5s18.5 -12.5 30.5 -12.5s22.167 4.16699 30.5 12.5z" />
    <glyph glyph-name="uni0326" unicode="&#x326;" horiz-adv-x="0" 
d="M-129.999 -205h-70.001v105.002h105.002v-245.004h-35.001v140.002z" />
    <glyph glyph-name="uni0327" unicode="&#x327;" horiz-adv-x="0" 
d="M-366 -400v100h200v100h-200v250h100v-150h200v-300h-300z" />
    <glyph glyph-name="uni0328" unicode="&#x328;" horiz-adv-x="0" 
d="M-25 -250h230v-150h-400v150l230 250h170z" />
    <glyph glyph-name="uni0329" unicode="&#x329;" horiz-adv-x="0" 
d="M-336 -395.995v271.973h50v-271.973h-50z" />
    <glyph glyph-name="uni032A" unicode="&#x32a;" horiz-adv-x="700" 
d="M0 0h600v-300h-150v150h-300v-150h-150v300z" />
    <glyph glyph-name="uni032B" unicode="&#x32b;" horiz-adv-x="0" 
d="M207 -79c0 -38 -9.66504 -68.667 -28.998 -92c-20.667 -25.333 -49.667 -38 -87 -38c-38 0 -68 14.333 -90 43c-22.667 -28.667 -53.334 -43 -92.001 -43c-36.667 0 -65.334 12.667 -86.001 38c-19.333 23.333 -29 54 -29 92h49c0 -49.333 22.333 -74 67 -74
c44 0 66 24.667 66 74h49c0 -49.333 22.333 -74 67 -74c44 0 66 24.667 66 74h49z" />
    <glyph glyph-name="uni032C" unicode="&#x32c;" horiz-adv-x="0" 
d="M-314 -300l-150 200h200l50 -67l50 67h200l-150 -200h-200z" />
    <glyph glyph-name="uni032D" unicode="&#x32d;" horiz-adv-x="0" 
d="M-114 -100l150 -200h-200l-50 67l-50 -67h-200l150 200h200z" />
    <glyph glyph-name="uni032E" unicode="&#x32e;" horiz-adv-x="0" 
d="M-364 -326l-100 100v150h150v-100h150v100h150v-150l-100 -100h-250z" />
    <glyph glyph-name="uni032F" unicode="&#x32f;" horiz-adv-x="0" 
d="M-114 -76l100 -100v-150h-150v100h-150v-100h-150v150l100 100h250z" />
    <glyph glyph-name="uni0330" unicode="&#x330;" horiz-adv-x="0" 
d="M-239 -201l-75 -100h-150l150 200h150l75 -100l75 100h150l-150 -200h-150z" />
    <glyph glyph-name="uni0331" unicode="&#x331;" horiz-adv-x="0" 
d="M-452 -276v150h550v-150h-550z" />
    <glyph glyph-name="uni0332" unicode="&#x332;" horiz-adv-x="0" 
d="M-25 -201h-600v100h600v-100z" />
    <glyph glyph-name="uni0333" unicode="&#x333;" horiz-adv-x="0" 
d="M0 -400h-600v100h600v-100zM0 -200h-600v100h600v-100z" />
    <glyph glyph-name="uni0334" unicode="&#x334;" horiz-adv-x="0" 
d="M-375 500l-75 -100h-150l150 200h150l75 -100l75 100h150l-150 -200h-150z" />
    <glyph glyph-name="uni0335" unicode="&#x335;" horiz-adv-x="0" 
d="M0 450h-599l-1 100h599z" />
    <glyph glyph-name="uni0336" unicode="&#x336;" horiz-adv-x="0" 
d="M1000 450h-1000v100h1000v-100z" />
    <glyph glyph-name="uni0337" unicode="&#x337;" horiz-adv-x="0" 
d="M899 900l-770 -800h-130l770 800h130z" />
    <glyph glyph-name="uni0338" unicode="&#x338;" horiz-adv-x="0" 
d="M899 1000l-780 -1000h-120l780 1000h120z" />
    <glyph glyph-name="uni0339" unicode="&#x339;" horiz-adv-x="0" 
d="M-63 -274v68c15.333 0 28.5 5.5 39.5 16.5s16.5 24.5 16.5 40.5c0 15.333 -5.5 28.5 -16.5 39.5s-24.167 16.5 -39.5 16.5v68c34.667 0 64 -12 88 -36s36 -53.333 36 -88s-12 -64.167 -36 -88.5s-53.333 -36.5 -88 -36.5z" />
    <glyph glyph-name="uni033A" unicode="&#x33a;" horiz-adv-x="700" 
d="M0 -300v300h150v-150h300v150h150v-300h-600z" />
    <glyph glyph-name="uni033B" unicode="&#x33b;" horiz-adv-x="0" 
d="M0 -300h-200v200h200v-200zM-50 -250v100h-100v-100h100z" />
    <glyph glyph-name="uni033C" unicode="&#x33c;" horiz-adv-x="0" 
d="M208 -178l-49 0.000976562c-7.33301 28 -27.666 42 -60.999 42c-22 0 -40 -9 -54 -27c-12.667 -16.667 -19 -36.334 -19 -59.001h-50c0 22 -6.33301 41.333 -19 58c-14 18.667 -31.667 28 -53 28c-34 0 -54.333 -14 -61 -42h-49c11.333 66 47.666 99 108.999 99
c50 0 82.667 -18.667 98 -56c15.333 37.333 48 56 98 56c61.333 0 98 -33 110 -99z" />
    <glyph glyph-name="uni033D" unicode="&#x33d;" horiz-adv-x="0" 
d="M140 778l-58 -58l-82 82l-82 -82l-58 58l82 82l-82 82l58 58l82 -81l82 81l58 -58l-82 -82z" />
    <glyph glyph-name="uni033E" unicode="&#x33e;" horiz-adv-x="0" 
d="M62 988c-44 -2.66699 -66 -15.333 -66 -38c0 -5.33301 10.833 -23 32.5 -53s32.5 -55.667 32.5 -77c0 -61.333 -42 -94.666 -126 -99.999v57c44 1.33301 66 13.666 66 36.999c0 8 -10.667 27.167 -32 57.5s-32 54.833 -32 73.5c0 62.667 41.667 96 125 100v-57z" />
    <glyph glyph-name="uni033F" unicode="&#x33f;" horiz-adv-x="0" 
d="M371 1104h-741v82h741v-82zM371 985h-741v82h741v-82z" />
    <glyph glyph-name="uni0340" unicode="&#x340;" horiz-adv-x="0" 
d="M-349 1050l200 -250h-200l-200 200z" />
    <glyph glyph-name="uni0341" unicode="&#x341;" horiz-adv-x="0" 
d="M113 1000l-200 -200h-200l200 250z" />
    <glyph glyph-name="uni0342" unicode="&#x342;" horiz-adv-x="0" 
d="M-202 900l-75 -100h-150l150 200h150l75 -100l75 100h150l-150 -200h-150z" />
    <glyph glyph-name="uni0343" unicode="&#x343;" horiz-adv-x="0" 
d="M-200 650h-100v150h150v-400h-50v250z" />
    <glyph glyph-name="uni0344" unicode="&#x344;" horiz-adv-x="0" 
d="M-227 800h-200v200h200v-200zM373 800h-200v200h200v-200zM173 1000l-200 -200h-200l200 250z" />
    <glyph glyph-name="uni0345" unicode="&#x345;" horiz-adv-x="200" 
d="M0 -300v200h100v-100h100v-100h-200z" />
    <glyph glyph-name="uni0346" unicode="&#x346;" horiz-adv-x="700" 
d="M0 1100h600v-300h-150v150h-300v-150h-150v300z" />
    <glyph glyph-name="uni0347" unicode="&#x347;" horiz-adv-x="0" 
d="M-650 50v150h700v-150h-700zM-650 -300v150h700v-150h-700z" />
    <glyph glyph-name="uni0348" unicode="&#x348;" horiz-adv-x="0" 
d="M101 -258h-65v210h65v-210zM-32 -258h-66v210h66v-210z" />
    <glyph glyph-name="uni0349" unicode="&#x349;" horiz-adv-x="0" 
d="M102 -258h-65v145h-156v65h221v-210z" />
    <glyph glyph-name="uni034A" unicode="&#x34a;" horiz-adv-x="0" 
d="M-362 883l-13 17l-75 -100h-150l150 200h150l10 -14l10 14h100l-58 -83l13 -17l75 100h150l-150 -200l-150 1l-10 13l-10 -14h-100z" />
    <glyph glyph-name="uni034B" unicode="&#x34b;" horiz-adv-x="0" 
d="M-375 1000l-75 -100h-150l150 200h150l75 -100l75 100h150l-150 -200h-150zM-400 800v200h200v-200h-200zM-400 1000v200h200v-200h-200z" />
    <glyph glyph-name="uni034C" unicode="&#x34c;" horiz-adv-x="0" 
d="M-374 1100l-75 -100h-150l150 200h150l75 -100l75 100h150l-150 -200h-150zM-375 900l-75 -100h-150l150 200h150l75 -100l75 100h150l-150 -200h-150z" />
    <glyph glyph-name="uni034D" unicode="&#x34d;" horiz-adv-x="0" 
d="M161 -147l-83 -111v78h-156v-78l-83 111l83 111v-78h156v78z" />
    <glyph glyph-name="uni034E" unicode="&#x34e;" horiz-adv-x="0" 
d="M111 -110h-78v-157h-65v157h-78l110 82z" />
    <glyph glyph-name="uni034F" unicode="&#x34f;" horiz-adv-x="0" 
d="M467 730h-63v142h-142v63h205v-205zM102 872h-205v63h205v-63zM467 365h-63v205h63v-205zM236 665c0 -20.667 -10 -31 -30 -31c-22 0 -33 10.333 -33 31c0 22 11 33 33 33c20 0 30 -11 30 -33zM142 727c0 -20.667 -10 -31 -30 -31c-22 0 -33 10.333 -33 31
c0 22 11 33 33 33c20 0 30 -11 30 -33zM299 571c0 -21.333 -10.667 -32 -32 -32s-32 10.667 -32 32c0 20.667 11 31 33 31c20.667 0 31 -10.333 31 -31zM322 461c0 -21.333 -10.333 -32 -31 -32c-22 0 -33 10.667 -33 32s11 32 33 32c20.667 0 31 -10.667 31 -32zM32 751
c0 -21.333 -10.667 -32 -32 -32s-32 10.667 -32 32c0 20.667 10.667 31 32 31s32 -10.333 32 -31zM-78 727c0 -20.667 -10.667 -31 -32 -31s-32 10.333 -32 31c0 22 10.667 33 32 33s32 -11 32 -33zM299 350c0 -20.667 -10.667 -31 -32 -31s-32 10.333 -32 31
c0 22 10.667 33 32 33s32 -11 32 -33zM-263 872h-141v-142h-64v205h205v-63zM467 0h-205v63h142v142h63v-205zM-172 665c0 -20.667 -10.667 -31 -32 -31c-20.667 0 -31 9.66699 -31 29c0 23.333 10.333 35 31 35c21.333 0 32 -11 32 -33zM237 255
c0 -20.667 -10.333 -31 -31 -31c-21.333 0 -32 10.333 -32 31c0 22 10.667 33 32 33c20.667 0 31 -11 31 -33zM143 193c0 -20 -10.333 -30 -31 -30c-22 0 -33 10 -33 30c0 22 11 33 33 33c20.667 0 31 -11 31 -33zM-235 571c0 -21.333 -10 -32 -30 -32
c-22 0 -33 10.667 -33 32c0 20.667 10.333 31 31 31c21.333 0 32 -10.333 32 -31zM-256 461c0 -21.333 -10.667 -32 -32 -32s-32 10.667 -32 32s10.667 32 32 32s32 -10.667 32 -32zM32 172c0 -21.333 -10.667 -32 -32 -32s-32 10.667 -32 32c0 20.667 10.667 31 32 31
s32 -10.333 32 -31zM-235 350c0 -20.667 -10.667 -31 -32 -31c-20.667 0 -31 10.333 -31 31c0 22 10.333 33 31 33c21.333 0 32 -11 32 -33zM-78 196c0 -22 -10.667 -33 -32 -33s-32 10 -32 30c0 22 10.667 33 32 33s32 -10 32 -30zM-172 255c0 -20.667 -10.667 -31 -32 -31
c-20.667 0 -31 10.333 -31 31c0 22 10.333 33 31 33c21.333 0 32 -11 32 -33zM-404 365h-64v205h64v-205zM102 0h-205v63h205v-63zM-263 0h-205v205h64v-142h141v-63z" />
    <glyph glyph-name="uni0350" unicode="&#x350;" horiz-adv-x="0" 
d="M89 846l-179 -115v72l108 59l-108 59v72l179 -114v-33z" />
    <glyph glyph-name="uni0351" unicode="&#x351;" horiz-adv-x="0" 
d="M0 942c-12 0 -22.167 -4.16797 -30.5 -12.501s-12.5 -18.5 -12.5 -30.5c0 -11.333 4.16699 -21.166 12.5 -29.499s18.5 -12.5 30.5 -12.5v-57c-27.333 0 -50.833 9.66699 -70.5 29s-29.5 43 -29.5 71c0 27.333 9.83301 50.833 29.5 70.5s43.167 29.5 70.5 29.5v-58z" />
    <glyph glyph-name="uni0352" unicode="&#x352;" horiz-adv-x="0" 
d="M-339 800v200h200v-200h-200zM-114 1300l100 -100v-150h-150v100h-150v-100h-150v150l100 100h250z" />
    <glyph glyph-name="uni0353" unicode="&#x353;" horiz-adv-x="0" 
d="M140 -222l-58 -59l-82 82l-82 -82l-58 59l82 82l-82 82l58 58l82 -82l82 82l58 -58l-82 -82z" />
    <glyph glyph-name="uni0354" unicode="&#x354;" horiz-adv-x="0" 
d="M88 -267l-178 115v33l178 115v-72l-108 -59l108 -59v-73z" />
    <glyph glyph-name="uni0355" unicode="&#x355;" horiz-adv-x="0" 
d="M88 -152l-178 -115v73l108 59l-108 59v72l178 -115v-33z" />
    <glyph glyph-name="uni0356" unicode="&#x356;" horiz-adv-x="0" 
d="M263 -224h-73l-59 108l-59 -108h-72l115 178h33zM0 -152l-178 -115v73l108 59l-108 59v72l178 -115v-33z" />
    <glyph glyph-name="uni0357" unicode="&#x357;" horiz-adv-x="0" 
d="M-100 942v58.001c27.333 0 50.833 -9.83301 70.5 -29.5s29.5 -43.167 29.5 -70.5c0 -28 -9.83301 -51.667 -29.5 -71s-43.167 -29 -70.5 -29v57c12 0 22.167 4.16699 30.5 12.5s12.5 18.166 12.5 29.499c0 12 -4.16699 22.167 -12.5 30.5s-18.5 12.5 -30.5 12.5z" />
    <glyph glyph-name="uni0358" unicode="&#x358;" horiz-adv-x="0" 
d="M270 804c0 -15.333 -5.16699 -28.166 -15.5 -38.499s-23.166 -15.5 -38.499 -15.5c-14.667 0 -27.167 5.16699 -37.5 15.5s-15.5 23.166 -15.5 38.499c0 14.667 5.16699 27.167 15.5 37.5s22.833 15.5 37.5 15.5c15.333 0 28.166 -5.16699 38.499 -15.5
s15.5 -22.833 15.5 -37.5z" />
    <glyph glyph-name="uni0359" unicode="&#x359;" horiz-adv-x="0" 
d="M-250 -100.5v50h50l50 -50v50h50v-50l50 50h50v-50l-50 -50h50v-50h-50l50 -50v-50h-50l-50 50v-50h-50v50l-50 -50h-50v50l50 50h-50v50h50z" />
    <glyph glyph-name="uni035A" unicode="&#x35a;" horiz-adv-x="0" 
d="M-207 -300c0 12 -4.16699 22 -12.5 30s-18.5 12 -30.5 12c-11.333 0 -21.166 -4 -29.499 -12s-12.5 -18 -12.5 -30s4.16699 -22.167 12.5 -30.5s18.166 -12.5 29.499 -12.5c12 0 22.167 4.16699 30.5 12.5s12.5 18.5 12.5 30.5zM-57 -300c0 12 -4.16699 22 -12.5 30
s-18.5 12 -30.5 12c-11.333 0 -21.166 -4 -29.499 -12s-12.5 -18 -12.5 -30s4.16699 -22.167 12.5 -30.5s18.166 -12.5 29.499 -12.5c12 0 22.167 4.16699 30.5 12.5s12.5 18.5 12.5 30.5zM-175 -367l-4 -4c-19.333 -19.333 -43 -29 -71 -29
c-27.333 0 -50.833 9.66699 -70.5 29s-29.5 43 -29.5 71c0 27.333 9.83301 50.833 29.5 70.5s43.167 29.5 70.5 29.5c28 0 51.667 -9.66699 71 -29l4 -5l5 5c19.333 19.333 42.666 29 69.999 29c28 0 51.667 -9.83301 71 -29.5s29 -43.167 29 -70.5
c0 -28 -9.66699 -51.667 -29 -71s-43 -29 -71 -29c-27.333 0 -50.666 9.66699 -69.999 29z" />
    <glyph glyph-name="uni035B" unicode="&#x35b;" horiz-adv-x="0" 
d="M-300 900l100 200h110l-50 -100h140l-100 -200h-110l50 100h-140z" />
    <glyph glyph-name="uni035C" unicode="&#x35c;" horiz-adv-x="0" 
d="M-800 -300l-100 100v150h150v-100h600v100h150v-150l-100 -100h-700z" />
    <glyph glyph-name="uni035D" unicode="&#x35d;" horiz-adv-x="0" 
d="M-800 800l-100 100v150h150v-100h600v100h150v-150l-100 -100h-700z" />
    <glyph glyph-name="uni035E" unicode="&#x35e;" horiz-adv-x="0" 
d="M-1099.46 800v150h1099.46v-150h-1099.46z" />
    <glyph glyph-name="uni035F" unicode="&#x35f;" horiz-adv-x="0" 
d="M-903.559 -276v150h1099.46v-150h-1099.46z" />
    <glyph glyph-name="uni0360" unicode="&#x360;" horiz-adv-x="0" 
d="M-675 900l-75 -100h-150l150 200h150l375 -100l75 100h150l-150 -200h-150z" />
    <glyph glyph-name="uni0361" unicode="&#x361;" horiz-adv-x="0" 
d="M-800 1050l-100 -100v-150h150v100h600v-100h150v150l-100 100h-700z" />
    <glyph glyph-name="uni0362" unicode="&#x362;" horiz-adv-x="0" 
d="M620 -147l-82 -111v78h-648v66h648v78z" />
    <glyph glyph-name="uni0363" unicode="&#x363;" horiz-adv-x="400" 
d="M275 675c0 28 -9.66699 51.667 -29 71s-43 29 -71 29c-27.333 0 -50.833 -9.66699 -70.5 -29s-29.5 -43 -29.5 -71c0 -27.333 9.83301 -50.833 29.5 -70.5s43.167 -29.5 70.5 -29.5c28 0 51.667 9.83301 71 29.5s29 43.167 29 70.5zM275 804v45.999h75v-350h-75v46
c-22 -30.667 -55 -46 -99 -46c-55.333 0 -98.5 15.5 -129.5 46.5s-46.5 74.167 -46.5 129.5c0 54.667 15.5 97.334 46.5 128.001s74.167 46 129.5 46c44 0 77 -15.333 99 -46z" />
    <glyph glyph-name="uni0364" unicode="&#x364;" horiz-adv-x="400" 
d="M268 713c-4.66699 12 -12 23 -22 33c-19.333 19.333 -43 29 -71 29c-27.333 0 -50.666 -9.66699 -69.999 -29c-10.667 -10 -18.334 -21 -23.001 -33h186zM339 613c-8.66699 -22.667 -22 -43 -40 -61c-34 -34.667 -75 -52 -123 -52c-48.667 0 -90.167 17.167 -124.5 51.5
s-51.5 75.833 -51.5 124.5c0 48 17.167 89 51.5 123s75.833 51 124.5 51c48 0 89 -17 123 -51s51 -75 51 -123c0 -13.333 -1.33301 -26 -4 -38h-264c4.66699 -12 12.334 -23 23.001 -33c19.333 -20 42.666 -30 69.999 -30c28 0 51.667 10 71 30c2.66699 2 5 4.33301 7 7z
" />
    <glyph glyph-name="uni0365" unicode="&#x365;" horiz-adv-x="125" 
d="M0 500v350h75v-350h-75zM0 925v75h75v-75h-75z" />
    <glyph glyph-name="uni0366" unicode="&#x366;" horiz-adv-x="400" 
d="M175 500c-48 0 -89.167 17.167 -123.5 51.5s-51.5 75.833 -51.5 124.5c0 48 17.167 89 51.5 123s75.5 51 123.5 51c48.667 0 90 -17 124 -51s51 -75 51 -123c0 -48.667 -17 -90.167 -51 -124.5s-75.333 -51.5 -124 -51.5zM245.5 604.5
c19.667 19.667 29.5 43.167 29.5 70.5c0 28 -9.83301 51.667 -29.5 71s-43.167 29 -70.5 29s-50.833 -9.66699 -70.5 -29s-29.5 -43 -29.5 -71c0 -27.333 9.83301 -50.833 29.5 -70.5s43.167 -29.5 70.5 -29.5s50.833 9.83301 70.5 29.5z" />
    <glyph glyph-name="uni0367" unicode="&#x367;" horiz-adv-x="375" 
d="M250 575v275h75v-350h-300c-6.66699 0 -12.5 2.5 -17.5 7.5s-7.5 10.833 -7.5 17.5v325h75v-275h175z" />
    <glyph glyph-name="uni0368" unicode="&#x368;" horiz-adv-x="376" 
d="M262 625l81 -0.000976562c-8 -27.333 -22.667 -51.666 -44 -72.999c-34 -34.667 -75 -52 -123 -52c-48.667 0 -90.167 17.167 -124.5 51.5s-51.5 75.833 -51.5 124.5c0 48 17.167 89 51.5 123s75.833 51 124.5 51c48 0 89 -17 123 -51c22 -22 37 -47 45 -75h-82
c-4 8 -9.33301 15.333 -16 22c-19.333 19.333 -43 29 -71 29c-27.333 0 -50.833 -9.66699 -70.5 -29s-29.5 -43 -29.5 -71c0 -27.333 9.83301 -50.833 29.5 -70.5s43.167 -29.5 70.5 -29.5c28 0 51.667 9.66699 71 29c6 6.66699 11.333 13.667 16 21z" />
    <glyph glyph-name="uni0369" unicode="&#x369;" horiz-adv-x="400" 
d="M0 850h275v150h75v-500h-350v350zM275 575v200h-200v-200h200z" />
    <glyph glyph-name="uni036A" unicode="&#x36a;" horiz-adv-x="376" 
d="M0 1000h75v-150h250v-350h-75v275h-175v-275h-75v500z" />
    <glyph glyph-name="uni036B" unicode="&#x36b;" horiz-adv-x="550" 
d="M213 775h-138v-275h-75v350h475c7.33301 0 13.333 -2.33301 18 -7s7 -10.667 7 -18v-325h-75v275h-137v-275h-75v275z" />
    <glyph glyph-name="uni036C" unicode="&#x36c;" horiz-adv-x="350" 
d="M75 775v-275h-75v350h275c7.33301 0 13.333 -2.33301 18 -7s7 -10.667 7 -18v-150h-75v100h-150z" />
    <glyph glyph-name="uni036D" unicode="&#x36d;" horiz-adv-x="275" 
d="M125 775v-200h100v-75h-175v275h-50v75h50v50l75 100v-150h100v-75h-100z" />
    <glyph glyph-name="uni036E" unicode="&#x36e;" horiz-adv-x="400" 
d="M133 500l-158 350h85l115 -256l115 256h85l-157 -350h-85z" />
    <glyph glyph-name="uni036F" unicode="&#x36f;" horiz-adv-x="350" 
d="M199 675l128 -175h-97l-79 109l-79 -109h-97l127 175l-127 175h97l79 -108l79 108h97z" />
    <glyph glyph-name="uni0370" unicode="&#x370;" horiz-adv-x="700" 
d="M600 425h-450v-425h-150v1000h150v-425h450v-150z" />
    <glyph glyph-name="uni0371" unicode="&#x371;" horiz-adv-x="700" 
d="M250 700v-275h350v-150h-350v-275h-150v550h-100v150h250z" />
    <glyph glyph-name="uni0372" unicode="&#x372;" horiz-adv-x="900" 
d="M100 850v-250h-150v400h900v-400h-150v250h-225v-850h-150v850h-225z" />
    <glyph glyph-name="uni0373" unicode="&#x373;" 
d="M150 850v-250h-150v300l100 100h600v-400h-150v250h-125v-850h-150v850h-125z" />
    <glyph glyph-name="uni0374" unicode="&#x374;" horiz-adv-x="500" 
d="M400 1000l-200 -200h-200l200 250z" />
    <glyph glyph-name="uni0375" unicode="&#x375;" horiz-adv-x="500" 
d="M0 -200l200 200h200l-200 -250z" />
    <glyph glyph-name="uni0376" unicode="&#x376;" horiz-adv-x="900" 
d="M650 723l-500 -723h-150v1000h150v-723l500 723h150v-1000h-150v723z" />
    <glyph glyph-name="uni0377" unicode="&#x377;" horiz-adv-x="850" 
d="M500 0v450l-350 -450h-150v700h150v-450l350 450h150v-550h100v-150h-250z" />
    <glyph glyph-name="uni037A" unicode="&#x37a;" horiz-adv-x="200" 
d="M0 -300v200h100v-100h100v-100h-200z" />
    <glyph glyph-name="uni037B" unicode="&#x37b;" 
d="M163 249h-163c16 -54 45.333 -102.667 88 -146c68 -68.667 150.333 -103 247 -103c97.333 -0 180.166 34.333 248.499 103s102.5 151.334 102.5 248.001s-34.167 179 -102.5 247s-151.166 102 -248.499 102c-96.667 0 -179 -34 -247 -102
c-44 -44 -73.667 -93.667 -89 -149h162c8.66699 15.333 19.667 29.666 33 42.999c39.333 38.667 86.666 58 141.999 58s102.5 -19.333 141.5 -58s58.5 -86 58.5 -142c0 -55.333 -19.5 -102.5 -58.5 -141.5s-86.167 -58.5 -141.5 -58.5s-102.666 19.667 -141.999 59
c-12 12 -22.333 25.333 -31 40z" />
    <glyph glyph-name="uni037C" unicode="&#x37c;" horiz-adv-x="750" 
d="M523 249h163c-16 -54 -45.333 -102.667 -88 -146c-68 -68.667 -150.333 -103 -247 -103c-97.333 -0 -180.166 34.333 -248.499 103s-102.5 151.334 -102.5 248.001s34.167 179 102.5 247s151.166 102 248.499 102c96.667 0 179 -34 247 -102
c44 -44 73.667 -93.667 89 -149h-162c-8.66699 15.333 -19.667 29.666 -33 42.999c-39.333 38.667 -86.666 58 -141.999 58s-102.5 -19.333 -141.5 -58s-58.5 -86 -58.5 -142c0 -55.333 19.5 -102.5 58.5 -141.5s86.167 -58.5 141.5 -58.5s102.666 19.667 141.999 59
c12 12 22.333 25.333 31 40zM244 250v200h200v-200h-200z" />
    <glyph glyph-name="uni037D" unicode="&#x37d;" horiz-adv-x="750" 
d="M164 249h-163c16 -54 45.333 -102.667 88 -146c68 -68.667 150.333 -103 247 -103c97.333 -0 180.166 34.333 248.499 103s102.5 151.334 102.5 248.001s-34.167 179 -102.5 247s-151.166 102 -248.499 102c-96.667 0 -179 -34 -247 -102
c-44 -44 -73.667 -93.667 -89 -149h162c8.66699 15.333 19.667 29.666 33 42.999c39.333 38.667 86.666 58 141.999 58s102.5 -19.333 141.5 -58s58.5 -86 58.5 -142c0 -55.333 -19.5 -102.5 -58.5 -141.5s-86.167 -58.5 -141.5 -58.5s-102.666 19.667 -141.999 59
c-12 12 -22.333 25.333 -31 40zM443 250v200h-200v-200h200z" />
    <glyph glyph-name="uni037F" unicode="&#x37f;" horiz-adv-x="700" 
d="M150 150h300v850h150v-1000h-600v350h150v-200z" />
    <glyph glyph-name="tonos" unicode="&#x384;" horiz-adv-x="500" 
d="M400 1000l-200 -200h-200l200 250z" />
    <glyph glyph-name="dieresistonos" unicode="&#x385;" horiz-adv-x="900" 
d="M200 800h-200v200h200v-200zM800 800h-200v200h200v-200zM600 1000l-200 -200h-200l200 250z" />
    <glyph glyph-name="Alphatonos" unicode="&#x386;" horiz-adv-x="1350" 
d="M1100 850h-450v-275h450v275zM1100 425h-450v-425h-150v1000h750v-1000h-150v425zM400 1000l-200 -200h-200l200 250z" />
    <glyph glyph-name="anoteleia" unicode="&#x387;" horiz-adv-x="300" 
d="M0 800v200h200v-200h-200z" />
    <glyph glyph-name="Epsilontonos" unicode="&#x388;" horiz-adv-x="1200" 
d="M400 1000l-200 -200h-200l200 250zM1100 1000v-150h-450v-200h450v-150h-450v-350h450v-150h-600v1000h600z" />
    <glyph glyph-name="Etatonos" unicode="&#x389;" horiz-adv-x="1350" 
d="M400 1000l-200 -200h-200l200 250zM1100 1000h150v-1000h-150v425h-450v-425h-150v1000h150v-425h450v425z" />
    <glyph glyph-name="Iotatonos" unicode="&#x38a;" horiz-adv-x="1199" 
d="M400 1000l-200 -200h-200l200 250zM1100 1000v-150h-225v-700h225v-150h-600v150h225v700h-225v150h600z" />
    <glyph glyph-name="Omicrontonos" unicode="&#x38c;" horiz-adv-x="1400" 
d="M400 1000l-200 -200h-200l200 250zM500 1000h800v-1000h-800v1000zM650 850v-700h500v700h-500z" />
    <glyph glyph-name="Upsilontonos" unicode="&#x38e;" horiz-adv-x="1399" 
d="M400 1000l-200 -200h-200l200 250zM825 325l-375 675h175l275 -493l275 493h175l-375 -675v-325h-150v325z" />
    <glyph glyph-name="Omegatonos" unicode="&#x38f;" horiz-adv-x="1500" 
d="M400 1000l-200 -200h-200l200 250zM850 150v-150h-350v150h180l-180 350v500h900v-500l-180 -350h180v-150h-350v150l200 390v310h-600v-310z" />
    <glyph glyph-name="iotadieresistonos" unicode="&#x390;" horiz-adv-x="450" 
d="M250 150h100v-150h-250v550h-100v150h250v-550zM0 800h-200v200h200v-200zM600 800h-200v200h200v-200zM400 1000l-200 -200h-200l200 250z" />
    <glyph glyph-name="Alpha" unicode="&#x391;" horiz-adv-x="850" 
d="M600 850h-450v-275h450v275zM600 425h-450v-425h-150v1000h750v-1000h-150v425z" />
    <glyph glyph-name="Beta" unicode="&#x392;" horiz-adv-x="850" 
d="M600 150v275h-450v-275h450zM600 850h-450v-275h450v275zM750 1000v-1000h-750v1000h750z" />
    <glyph glyph-name="Gamma" unicode="&#x393;" 
d="M250 150h100v-150h-350v150h100v700h-100v150h700v-300h-150v150h-300v-700z" />
    <glyph glyph-name="uni0394" unicode="&#x394;" horiz-adv-x="1000" 
d="M-50 0l415 1000h170l415 -1000h-1000zM718 150l-268 645l-268 -645h536z" />
    <glyph glyph-name="Epsilon" unicode="&#x395;" horiz-adv-x="700" 
d="M600 1000v-150h-450v-200h450v-150h-450v-350h450v-150h-600v1000h600z" />
    <glyph glyph-name="Zeta" unicode="&#x396;" horiz-adv-x="851" 
d="M150 850v-150h-150v300h750l-517 -850h367v150h150v-300h-786l518 850h-332z" />
    <glyph glyph-name="Eta" unicode="&#x397;" horiz-adv-x="850" 
d="M600 1000h150v-1000h-150v425h-450v-425h-150v1000h150v-425h450v425z" />
    <glyph glyph-name="Theta" unicode="&#x398;" horiz-adv-x="900" 
d="M0 1000h800v-1000h-800v1000zM150 850v-700h500v700h-500zM550 425h-300v150h300v-150z" />
    <glyph glyph-name="Iota" unicode="&#x399;" horiz-adv-x="699" 
d="M600 1000v-150h-225v-700h225v-150h-600v150h225v700h-225v150h600z" />
    <glyph glyph-name="Kappa" unicode="&#x39a;" 
d="M150 436v-436h-150v1000h150v-429l432 429h217l-499 -500l499 -500h-217z" />
    <glyph glyph-name="Lambda" unicode="&#x39b;" horiz-adv-x="952" 
d="M365 1000h170l415 -1000h-170l-330 795l-330 -795h-170z" />
    <glyph glyph-name="Mu" unicode="&#x39c;" horiz-adv-x="1100" 
d="M150 701v-701h-150v1000h200l300 -794l300 794h200v-1000h-150v701l-275 -701h-150z" />
    <glyph glyph-name="Nu" unicode="&#x39d;" horiz-adv-x="900" 
d="M150 723v-723h-150v1000h150l500 -723v723h150v-1000h-150z" />
    <glyph glyph-name="Xi" unicode="&#x39e;" 
d="M0 150h700v-150h-700v150zM0 850v150h700v-150h-700zM0 425v150h700v-150h-700z" />
    <glyph glyph-name="Omicron" unicode="&#x39f;" horiz-adv-x="900" 
d="M0 1000h800v-1000h-800v1000zM150 850v-700h500v700h-500z" />
    <glyph glyph-name="Pi" unicode="&#x3a0;" horiz-adv-x="900" 
d="M650 0v850h-400v-850h-150v850h-100v150h800v-1000h-150z" />
    <glyph glyph-name="Rho" unicode="&#x3a1;" horiz-adv-x="900" 
d="M250 425v-425h-150v850h-100v150h800v-575h-550zM250 850v-275h400v275h-400z" />
    <glyph glyph-name="Sigma" unicode="&#x3a3;" horiz-adv-x="850" 
d="M386 500l-486 500h850v-300h-150v150h-352l352 -350l-352 -350h352v150h150v-300h-850z" />
    <glyph glyph-name="Tau" unicode="&#x3a4;" horiz-adv-x="900" 
d="M475 850v-850h-150v850h-375v150h900v-150h-375z" />
    <glyph glyph-name="Upsilon" unicode="&#x3a5;" horiz-adv-x="899" 
d="M325 325l-375 675h175l275 -493l275 493h175l-375 -675v-325h-150v325z" />
    <glyph glyph-name="Phi" unicode="&#x3a6;" horiz-adv-x="1100" 
d="M425 100h-425v800h425v100h150v-100h425v-800h-425v-101h-150v101zM575 750v-500h275v500h-275zM425 250v500h-275v-500h275z" />
    <glyph glyph-name="Chi" unicode="&#x3a7;" horiz-adv-x="900" 
d="M500 500l350 -500h-200l-250 357l-250 -357h-200l350 500l-350 500h200l250 -357l250 357h200z" />
    <glyph glyph-name="Psi" unicode="&#x3a8;" horiz-adv-x="1100" 
d="M425 999h150v-549h275v550h150v-700h-425v-301h-150v301h-425v700h150v-550h275v549z" />
    <glyph glyph-name="uni03A9" unicode="&#x3a9;" horiz-adv-x="1000" 
d="M350 150v-150h-350v150h180l-180 350v500h900v-500l-180 -350h180v-150h-350v150l200 390v310h-600v-310z" />
    <glyph glyph-name="Iotadieresis" unicode="&#x3aa;" horiz-adv-x="699" 
d="M600 1000v-150h-225v-700h225v-150h-600v150h225v700h-225v150h600zM200 1150h-150v150h150v-150zM550 1150h-150v150h150v-150z" />
    <glyph glyph-name="Upsilondieresis" unicode="&#x3ab;" horiz-adv-x="899" 
d="M325 325l-375 675h175l275 -493l275 493h175l-375 -675v-325h-150v325zM300 1150h-150v150h150v-150zM650 1150h-150v150h150v-150z" />
    <glyph glyph-name="alphatonos" unicode="&#x3ac;" horiz-adv-x="799" 
d="M350 150c55.333 0 102.5 19.5 141.5 58.5s58.5 86.167 58.5 141.5s-19.5 102.5 -58.5 141.5s-86.167 58.5 -141.5 58.5s-102.5 -19.5 -141.5 -58.5s-58.5 -86.167 -58.5 -141.5s19.5 -102.5 58.5 -141.5s86.167 -58.5 141.5 -58.5zM700 700l-50 -350l50 -350h-150v97
c-62.667 -64.667 -137.667 -97 -225 -97c-90 0 -166.667 34.167 -230 102.5s-95 150.833 -95 247.5s31.667 179.167 95 247.5s140 102.5 230 102.5c87.333 0 162.333 -32.333 225 -97v97h150zM617 1000l-200 -200h-200l200 250z" />
    <glyph glyph-name="epsilontonos" unicode="&#x3ad;" horiz-adv-x="700" 
d="M500 425v-150h-350v-125h450v-150h-600v275l75 75l-75 75v275h600v-150h-450v-125h350zM567 1000l-200 -200h-200l200 250z" />
    <glyph glyph-name="etatonos" unicode="&#x3ae;" horiz-adv-x="750" 
d="M150 550v-550h-150v700h600c14 0 25.833 -4.83301 35.5 -14.5s14.5 -21.5 14.5 -35.5v-950h-150v850h-350zM592 1000l-200 -200h-200l200 250z" />
    <glyph glyph-name="iotatonos" unicode="&#x3af;" horiz-adv-x="450" 
d="M250 150h100v-150h-250v550h-100v150h250v-550zM467 1000l-200 -200h-200l200 250z" />
    <glyph glyph-name="upsilondieresistonos" unicode="&#x3b0;" horiz-adv-x="750" 
d="M500 150v550h150v-650c0 -14 -4.83301 -25.833 -14.5 -35.5s-21.5 -14.5 -35.5 -14.5h-550c-14 -0 -25.833 4.83301 -35.5 14.5s-14.5 21.5 -14.5 35.5v650h150v-550h350zM125 800h-200v200h200v-200zM725 800h-200v200h200v-200zM525 1000l-200 -200h-200l200 250z" />
    <glyph glyph-name="alpha" unicode="&#x3b1;" horiz-adv-x="799" 
d="M350 150c55.333 0 102.5 19.5 141.5 58.5s58.5 86.167 58.5 141.5s-19.5 102.5 -58.5 141.5s-86.167 58.5 -141.5 58.5s-102.5 -19.5 -141.5 -58.5s-58.5 -86.167 -58.5 -141.5s19.5 -102.5 58.5 -141.5s86.167 -58.5 141.5 -58.5zM700 700l-50 -350l50 -350h-150v97
c-62.667 -64.667 -137.667 -97 -225 -97c-90 0 -166.667 34.167 -230 102.5s-95 150.833 -95 247.5s31.667 179.167 95 247.5s140 102.5 230 102.5c87.333 0 162.333 -32.333 225 -97v97h150z" />
    <glyph glyph-name="beta" unicode="&#x3b2;" 
d="M150 850v-1150h-150v1300h701v-1000h-451v150h301v275h-301v150h301v275h-401z" />
    <glyph glyph-name="gamma" unicode="&#x3b3;" 
d="M66 550h-66v150h170l214 -505l212 505h170l-308 -700v-300h-150v300z" />
    <glyph glyph-name="delta" unicode="&#x3b4;" 
d="M550 150v400h-400v-400h400zM350 850l350 -150v-700h-700v700h350l-350 150v150h700v-150h-350z" />
    <glyph glyph-name="epsilon" unicode="&#x3b5;" horiz-adv-x="700" 
d="M500 425v-150h-350v-125h450v-150h-600v275l75 75l-75 75v275h600v-150h-450v-125h350z" />
    <glyph glyph-name="zeta" unicode="&#x3b6;" horiz-adv-x="650" 
d="M0 450l353 400h-353v150h550v-150l-400 -448v-252h400v-450h-150v300h-400v450z" />
    <glyph glyph-name="eta" unicode="&#x3b7;" horiz-adv-x="750" 
d="M150 550v-550h-150v700h600c14 0 25.833 -4.83301 35.5 -14.5s14.5 -21.5 14.5 -35.5v-950h-150v850h-350z" />
    <glyph glyph-name="theta" unicode="&#x3b8;" horiz-adv-x="700" 
d="M0 1000v-1000h601v1000h-601zM451 850v-275h-301v275h301zM150 150v275h301v-275h-301z" />
    <glyph glyph-name="iota" unicode="&#x3b9;" horiz-adv-x="450" 
d="M250 150h100v-150h-250v550h-100v150h250v-550z" />
    <glyph glyph-name="kappa" unicode="&#x3ba;" horiz-adv-x="700" 
d="M493 550l-191 -200l334 -350h-214l-272 286v-286h-150v700h150v-279l272 279h178v-150h-107z" />
    <glyph glyph-name="lambda" unicode="&#x3bb;" horiz-adv-x="790" 
d="M304 1000l441 -1000h-183l-214 485l-214 -485h-183l306 693l-136 307h183z" />
    <glyph glyph-name="uni03BC" unicode="&#x3bc;" horiz-adv-x="750" 
d="M0 700h150v-550h350v550h150v-700h-501v-300h-149v1000z" />
    <glyph glyph-name="nu" unicode="&#x3bd;" 
d="M700 700l33 -39l-293 -661h-180l-310 700h180l220 -497l154 347h-104v150h300z" />
    <glyph glyph-name="xi" unicode="&#x3be;" horiz-adv-x="650" 
d="M550 1000v-150h-400v-150h400v-150h-400v-400h300l100 -100v-350h-150v300h-300l-100 100v450l75 75l-75 75v200l100 100h450z" />
    <glyph glyph-name="omicron" unicode="&#x3bf;" 
d="M351 0c-97.333 0 -180.166 34.333 -248.499 103s-102.5 151.334 -102.5 248.001s34.167 179 102.5 247s151.166 102 248.499 102c96.667 0 179 -34 247 -102s102 -150.333 102 -247s-34 -179.334 -102 -248.001s-150.333 -103 -247 -103zM491.5 208.5
c39 39 58.5 86.167 58.5 141.5c0 56 -19.5 103.333 -58.5 142s-86.167 58 -141.5 58s-102.5 -19.333 -141.5 -58s-58.5 -86 -58.5 -142c0 -55.333 19.5 -102.5 58.5 -141.5s86.167 -58.5 141.5 -58.5s102.5 19.5 141.5 58.5z" />
    <glyph glyph-name="pi" unicode="&#x3c0;" horiz-adv-x="801" 
d="M700 700v-150h-100v-400h100v-150h-250v550h-200v-200l-90 -350h-160l100 370v180h-100v150h700z" />
    </font>
</defs>
</svg>
